{"glyphs":{"0":{"ha":793,"x_min":66,"x_max":734,"o":"m 734 385 q 644 87 734 189 q 401 -14 554 -14 q 156 87 246 -14 q 66 385 66 189 l 66 602 q 156 900 66 798 q 399 1002 245 1002 q 643 900 553 1002 q 734 602 734 798 l 734 385 m 536 623 q 501 794 536 740 q 399 849 466 849 q 298 795 332 849 q 263 623 263 741 l 263 366 q 298 192 263 246 q 401 138 333 138 q 502 192 467 138 q 536 366 536 246 l 536 623 z "},"1":{"ha":614,"x_min":42,"x_max":575,"o":"m 44 119 l 211 139 l 211 808 l 42 808 l 42 921 l 408 987 l 408 139 l 575 119 l 575 0 l 44 0 l 44 119 z "},"2":{"ha":768,"x_min":31,"x_max":724,"o":"m 50 0 l 50 130 l 369 472 q 467 606 438 551 q 496 707 496 661 q 463 809 496 770 q 368 849 429 849 q 263 803 299 849 q 228 679 228 756 l 35 679 l 34 683 q 122 909 31 817 q 368 1002 213 1002 q 608 922 520 1002 q 695 711 695 843 q 646 545 695 621 q 483 347 597 469 l 307 155 l 309 152 l 565 152 l 573 250 l 724 250 l 724 0 l 50 0 z "},"3":{"ha":754,"x_min":35,"x_max":722,"o":"m 258 578 l 370 578 q 474 615 440 578 q 508 718 508 652 q 474 813 508 777 q 376 849 440 849 q 282 817 320 849 q 244 731 244 784 l 52 731 l 51 735 q 140 926 47 851 q 370 1002 233 1002 q 615 928 524 1002 q 706 720 706 855 q 665 597 706 655 q 553 507 625 539 q 679 417 635 477 q 722 277 722 357 q 623 63 722 141 q 370 -14 524 -14 q 134 59 233 -14 q 39 264 35 132 l 40 269 l 232 269 q 273 175 232 212 q 376 138 313 138 q 484 176 444 138 q 524 279 524 214 q 485 393 524 357 q 370 429 446 429 l 258 429 l 258 578 z "},"4":{"ha":783,"x_min":24,"x_max":746,"o":"m 634 368 l 746 368 l 746 236 l 634 236 l 634 139 l 739 119 l 739 0 l 331 0 l 331 119 l 437 139 l 437 236 l 34 236 l 24 333 l 435 987 l 634 987 l 634 368 m 210 368 l 437 368 l 437 724 l 433 725 l 416 696 l 210 368 z "},"5":{"ha":741,"x_min":42,"x_max":705,"o":"m 566 762 l 548 829 l 282 829 l 254 601 q 321 634 282 621 q 406 648 359 648 q 627 562 549 650 q 705 317 705 474 q 619 80 705 174 q 372 -14 533 -14 q 139 60 236 -14 q 45 264 42 134 l 47 268 l 237 277 q 274 175 237 212 q 372 138 311 138 q 474 187 441 138 q 507 315 507 237 q 472 452 507 401 q 367 504 437 504 q 280 483 311 504 q 237 426 250 462 l 62 437 l 119 987 l 688 987 l 688 762 l 566 762 z "},"6":{"ha":776,"x_min":62,"x_max":747,"o":"m 458 1002 q 561 991 513 1002 q 655 960 608 981 l 621 816 q 542 839 578 831 q 459 846 506 846 q 318 782 371 846 q 264 592 264 718 l 266 589 q 350 643 299 623 q 465 663 401 663 q 672 569 597 663 q 747 329 747 475 q 654 83 747 180 q 414 -14 562 -14 q 160 92 258 -14 q 62 386 62 198 l 62 559 q 173 885 62 769 q 458 1002 283 1002 m 412 513 q 319 495 357 513 q 259 447 280 477 l 259 381 q 301 201 259 264 q 414 138 344 138 q 512 194 475 138 q 549 329 549 250 q 512 462 549 411 q 412 513 475 513 z "},"7":{"ha":751,"x_min":33,"x_max":731,"o":"m 731 835 q 514 488 572 649 q 431 100 456 328 l 422 0 l 224 0 l 233 100 q 332 500 256 318 q 541 835 408 682 l 193 835 l 185 737 l 33 737 l 33 987 l 731 987 l 731 835 z "},"8":{"ha":756,"x_min":45,"x_max":718,"o":"m 696 726 q 656 595 696 652 q 549 506 617 538 q 673 411 627 473 q 718 270 718 349 q 625 59 718 133 q 382 -14 532 -14 q 139 59 232 -14 q 45 270 45 133 q 91 411 45 350 q 214 506 136 473 q 106 595 145 538 q 68 726 68 652 q 154 929 68 857 q 381 1002 240 1002 q 609 929 522 1002 q 696 726 696 857 m 521 283 q 482 390 521 350 q 381 430 443 430 q 281 390 319 430 q 243 283 243 350 q 281 177 243 216 q 382 138 319 138 q 483 177 444 138 q 521 283 521 216 m 498 717 q 466 813 498 777 q 381 849 435 849 q 297 813 327 849 q 267 717 267 778 q 297 619 267 655 q 382 583 328 583 q 467 619 436 583 q 498 717 498 655 z "},"9":{"ha":774,"x_min":43,"x_max":714,"o":"m 340 138 q 468 198 419 138 q 517 380 517 259 l 517 395 q 437 331 484 353 q 338 309 391 309 q 121 399 200 309 q 43 649 43 490 q 137 900 43 799 q 374 1002 231 1002 q 620 898 526 1002 q 714 605 714 793 l 714 391 q 609 92 714 199 q 340 -14 505 -14 q 234 -4 288 -14 q 133 27 179 7 l 155 170 q 243 145 201 153 q 340 138 286 138 m 372 454 q 458 472 421 454 q 517 522 495 491 l 517 628 q 479 793 517 736 q 376 849 441 849 q 278 790 316 849 q 241 649 241 732 q 274 507 241 559 q 372 454 308 454 z "},"\u0000":{"ha":0,"x_min":0,"x_max":0,"o":""},"\r":{"ha":340,"x_min":0,"x_max":0,"o":""}," ":{"ha":340,"x_min":0,"x_max":0,"o":""},"\"":{"ha":530,"x_min":95,"x_max":456,"o":"m 235 873 l 182 705 l 95 705 l 95 1058 l 235 1058 l 235 873 m 456 873 l 404 705 l 317 705 l 317 1058 l 456 1058 l 456 873 z "},"#":{"ha":812,"x_min":26,"x_max":783,"o":"m 435 278 l 305 278 l 256 0 l 132 0 l 180 278 l 26 278 l 26 393 l 200 393 l 235 589 l 78 589 l 78 705 l 255 705 l 305 987 l 429 987 l 380 705 l 510 705 l 559 987 l 684 987 l 634 705 l 783 705 l 783 589 l 614 589 l 579 393 l 732 393 l 732 278 l 559 278 l 511 0 l 387 0 l 435 278 m 325 393 l 455 393 l 490 589 l 359 589 l 325 393 z "},"$":{"ha":751,"x_min":36,"x_max":706,"o":"m 508 260 q 476 349 508 315 q 368 414 445 384 q 145 536 218 469 q 73 726 73 604 q 145 913 73 840 q 342 999 218 986 l 342 1145 l 450 1145 l 450 997 q 636 898 568 979 q 703 685 705 816 l 701 682 l 509 682 q 475 805 509 762 q 386 848 442 848 q 299 815 328 848 q 270 726 270 781 q 300 640 270 673 q 411 575 330 607 q 633 449 561 516 q 706 261 706 382 q 633 73 706 144 q 436 -11 560 2 l 436 -145 l 328 -145 l 328 -12 q 119 78 201 1 q 39 304 36 155 l 40 308 l 233 308 q 275 178 233 217 q 380 138 317 138 q 475 171 442 138 q 508 260 508 204 z "},"%":{"ha":969,"x_min":33,"x_max":935,"o":"m 33 798 q 90 943 33 885 q 248 1002 146 1002 q 406 944 350 1002 q 463 798 463 886 l 463 745 q 406 600 463 658 q 249 543 350 543 q 90 600 147 543 q 33 745 33 658 l 33 798 m 165 745 q 186 679 165 706 q 249 652 208 652 q 310 679 288 652 q 332 745 332 706 l 332 798 q 310 864 332 837 q 248 892 288 892 q 186 864 208 892 q 165 798 165 837 l 165 745 m 505 242 q 562 387 505 329 q 720 446 619 446 q 879 388 822 446 q 935 242 935 330 l 935 190 q 879 44 935 102 q 722 -14 823 -14 q 563 44 620 -14 q 505 190 505 102 l 505 242 m 637 190 q 660 124 637 151 q 722 96 684 96 q 785 122 766 96 q 804 190 804 147 l 804 242 q 782 308 804 281 q 720 336 760 336 q 658 308 680 336 q 637 242 637 281 l 637 190 m 305 74 l 209 125 l 691 897 l 787 846 l 305 74 z "},"&":{"ha":867,"x_min":31,"x_max":876,"o":"m 31 266 q 75 404 31 346 q 209 525 119 462 q 140 639 163 587 q 117 744 117 690 q 191 931 117 861 q 387 1002 264 1002 q 562 935 494 1002 q 629 773 629 868 q 596 652 629 707 q 505 555 563 597 l 442 511 l 629 292 q 667 380 654 333 q 681 481 681 428 l 829 481 q 806 309 829 387 q 735 169 783 230 l 876 3 l 875 0 l 655 0 l 603 60 q 484 4 545 23 q 353 -14 423 -14 q 118 63 205 -14 q 31 266 31 141 m 363 138 q 435 147 399 138 q 505 174 471 156 l 301 410 l 288 401 q 241 338 254 369 q 229 276 229 307 q 266 177 229 216 q 363 138 303 138 m 294 746 q 309 686 294 717 q 353 618 323 655 l 411 656 q 462 706 449 680 q 475 762 475 732 q 451 823 475 796 q 386 849 426 849 q 318 820 342 849 q 294 746 294 790 z "},"'":{"ha":304,"x_min":94,"x_max":229,"o":"m 229 876 l 182 684 l 94 684 l 94 1058 l 229 1058 l 229 876 z "},"(":{"ha":465,"x_min":60,"x_max":437,"o":"m 60 401 q 163 853 60 667 q 397 1093 267 1038 l 401 1093 l 437 994 q 288 780 348 928 q 227 403 227 632 l 227 385 q 288 8 227 155 q 437 -208 348 -140 l 401 -305 l 397 -305 q 163 -65 267 -250 q 60 387 60 120 l 60 401 z "},")":{"ha":483,"x_min":41,"x_max":428,"o":"m 428 387 q 321 -62 428 127 q 82 -305 214 -251 l 78 -305 l 41 -208 q 190 7 129 -142 q 251 385 251 155 l 251 403 q 189 780 251 631 q 41 997 127 930 l 78 1093 l 82 1093 q 321 850 214 1039 q 428 401 428 661 l 428 387 z "},"*":{"ha":620,"x_min":23,"x_max":600,"o":"m 228 655 l 23 715 l 62 836 l 263 752 l 251 987 l 378 987 l 365 748 l 562 829 l 600 707 l 393 647 l 528 467 l 426 393 l 307 589 l 190 399 l 87 471 l 228 655 z "},"+":{"ha":745,"x_min":33,"x_max":710,"o":"m 467 551 l 710 551 l 710 380 l 467 380 l 467 99 l 279 99 l 279 380 l 33 380 l 33 551 l 279 551 l 279 818 l 467 818 l 467 551 z "},",":{"ha":341,"x_min":39,"x_max":272,"o":"m 271 26 q 232 -120 271 -43 q 137 -247 193 -197 l 39 -194 q 80 -96 66 -146 q 94 17 94 -45 l 94 165 l 272 165 l 271 26 z "},"-":{"ha":553,"x_min":89,"x_max":471,"o":"m 471 346 l 89 346 l 89 498 l 471 498 l 471 346 z "},".":{"ha":354,"x_min":87,"x_max":285,"o":"m 285 0 l 87 0 l 87 174 l 285 174 l 285 0 z "},"/":{"ha":507,"x_min":-16,"x_max":493,"o":"m 131 -85 l -16 -85 l 347 987 l 493 987 l 131 -85 z "},":":{"ha":309,"x_min":62,"x_max":259,"o":"m 62 0 m 259 0 l 62 0 l 62 174 l 259 174 l 259 0 m 259 559 l 62 559 l 62 733 l 259 733 l 259 559 z "},";":{"ha":307,"x_min":19,"x_max":258,"o":"m 19 0 m 258 559 l 61 559 l 61 733 l 258 733 l 258 559 m 251 26 q 212 -120 251 -43 q 117 -247 173 -197 l 19 -194 q 60 -96 45 -146 q 74 17 74 -45 l 74 165 l 252 165 l 251 26 z "},"<":{"ha":686,"x_min":39,"x_max":623,"o":"m 233 373 l 233 369 l 623 231 l 623 47 l 39 296 l 39 450 l 623 698 l 623 513 l 233 373 z "},"=":{"ha":762,"x_min":83,"x_max":691,"o":"m 691 517 l 83 517 l 83 673 l 691 673 l 691 517 m 691 225 l 83 225 l 83 380 l 691 380 l 691 225 z "},">":{"ha":699,"x_min":71,"x_max":661,"o":"m 467 366 l 467 370 l 71 509 l 71 692 l 661 444 l 661 290 l 71 41 l 71 224 l 467 366 z "},"?":{"ha":668,"x_min":21,"x_max":663,"o":"m 221 281 q 249 420 222 376 q 359 527 277 464 q 436 612 407 566 q 465 713 465 657 q 432 811 465 776 q 338 846 399 846 q 253 817 288 846 q 217 729 218 787 l 24 729 l 23 733 q 109 932 21 863 q 338 1002 197 1002 q 576 925 490 1002 q 663 715 663 848 q 612 556 663 629 q 486 433 562 483 q 431 369 444 401 q 418 281 418 337 l 221 281 m 420 0 l 220 0 l 220 170 l 420 170 l 420 0 z "},"@":{"ha":1225,"x_min":34,"x_max":1185,"o":"m 1174 348 q 1087 93 1168 200 q 846 -14 1006 -14 q 754 16 793 -14 q 699 99 715 45 q 625 16 669 43 q 521 -12 581 -12 q 374 68 425 -12 q 336 282 323 149 q 433 558 353 454 q 629 662 514 662 q 755 644 707 662 q 860 590 802 627 l 858 587 l 861 587 l 827 199 q 836 111 822 135 q 875 87 850 87 q 1000 161 953 87 q 1053 348 1047 235 q 960 722 1063 588 q 640 856 857 856 q 312 711 434 856 q 179 324 189 567 q 278 -56 167 83 q 596 -195 389 -195 q 715 -181 654 -195 q 821 -147 777 -168 l 846 -247 q 731 -291 801 -275 q 593 -307 661 -307 q 179 -138 325 -307 q 45 324 34 31 q 218 788 58 614 q 643 962 379 962 q 1045 797 905 962 q 1174 348 1185 633 m 489 282 q 502 152 482 196 q 564 107 521 107 q 633 125 602 107 q 688 191 664 143 q 689 195 688 192 q 689 199 689 197 l 719 535 q 687 543 703 540 q 655 545 671 545 q 541 480 580 545 q 489 282 501 414 z "},"A":{"ha":998,"x_min":28,"x_max":970,"o":"m 28 119 l 98 129 l 399 987 l 602 987 l 900 129 l 970 119 l 970 0 l 634 0 l 634 119 l 703 131 l 659 267 l 339 267 l 296 131 l 364 119 l 364 0 l 28 0 l 28 119 m 386 412 l 612 412 l 501 760 l 497 760 l 386 412 z "},"B":{"ha":918,"x_min":38,"x_max":882,"o":"m 477 987 q 749 920 651 987 q 846 717 846 852 q 810 594 846 648 q 705 513 774 541 q 838 432 793 494 q 882 288 882 370 q 789 73 882 146 q 524 0 695 0 l 38 0 l 38 119 l 143 139 l 143 848 l 38 868 l 38 987 l 143 987 l 477 987 m 341 437 l 341 152 l 524 152 q 644 186 602 152 q 685 288 685 220 q 650 398 685 360 q 538 437 614 437 l 341 437 m 341 574 l 484 574 q 606 606 563 574 q 648 701 648 639 q 605 802 648 770 q 477 835 562 835 l 341 835 l 341 574 z "},"C":{"ha":900,"x_min":35,"x_max":847,"o":"m 847 654 l 700 654 l 680 786 q 606 832 650 815 q 501 849 562 849 q 303 755 372 849 q 233 511 233 662 l 233 477 q 302 232 233 326 q 498 138 372 138 q 605 155 556 138 q 680 201 653 172 l 700 332 l 847 332 l 847 137 q 695 27 787 68 q 488 -14 602 -14 q 162 123 289 -14 q 35 477 35 261 l 35 510 q 161 863 35 725 q 488 1002 288 1002 q 694 960 602 1002 q 847 850 787 918 l 847 654 z "},"D":{"ha":957,"x_min":38,"x_max":898,"o":"m 482 987 q 781 872 663 987 q 898 575 898 756 l 898 412 q 781 115 898 230 q 482 0 663 0 l 38 0 l 38 119 l 143 139 l 143 848 l 38 868 l 38 987 l 143 987 l 482 987 m 341 835 l 341 152 l 472 152 q 639 224 578 152 q 699 412 699 296 l 699 576 q 639 763 699 691 q 472 835 578 835 l 341 835 z "},"E":{"ha":887,"x_min":38,"x_max":819,"o":"m 675 434 l 341 434 l 341 152 l 660 152 l 669 270 l 819 270 l 819 0 l 38 0 l 38 119 l 143 139 l 143 848 l 38 868 l 38 987 l 143 987 l 818 987 l 818 717 l 666 717 l 657 835 l 341 835 l 341 587 l 675 587 l 675 434 z "},"F":{"ha":858,"x_min":38,"x_max":824,"o":"m 38 119 l 143 139 l 143 848 l 38 868 l 38 987 l 824 987 l 824 717 l 672 717 l 663 835 l 341 835 l 341 563 l 687 563 l 687 410 l 341 410 l 341 139 l 447 119 l 447 0 l 38 0 l 38 119 z "},"G":{"ha":918,"x_min":32,"x_max":857,"o":"m 857 110 q 716 24 808 62 q 483 -14 624 -14 q 157 120 283 -14 q 32 468 32 254 l 32 502 q 156 863 32 724 q 479 1002 279 1002 q 691 965 595 1002 q 850 865 787 928 l 850 666 l 704 666 l 676 798 q 605 835 649 821 q 503 849 560 849 q 301 753 373 849 q 229 503 229 658 l 229 468 q 300 228 229 317 q 503 138 370 138 q 600 148 563 138 q 658 172 637 158 l 658 339 l 517 350 l 517 489 l 857 489 l 857 110 z "},"H":{"ha":1086,"x_min":38,"x_max":1047,"o":"m 38 868 l 38 987 l 447 987 l 447 868 l 341 848 l 341 563 l 744 563 l 744 848 l 638 868 l 638 987 l 744 987 l 941 987 l 1047 987 l 1047 868 l 941 848 l 941 139 l 1047 119 l 1047 0 l 638 0 l 638 119 l 744 139 l 744 410 l 341 410 l 341 139 l 447 119 l 447 0 l 38 0 l 38 119 l 143 139 l 143 848 l 38 868 z "},"I":{"ha":484,"x_min":37,"x_max":446,"o":"m 37 868 l 37 987 l 446 987 l 446 868 l 340 848 l 340 139 l 446 119 l 446 0 l 37 0 l 37 119 l 143 139 l 143 848 l 37 868 z "},"J":{"ha":808,"x_min":20,"x_max":790,"o":"m 790 987 l 790 868 l 684 848 l 684 296 q 591 70 684 153 q 355 -14 498 -14 q 111 61 201 -14 q 24 283 20 136 l 25 287 l 218 287 q 255 173 218 209 q 355 138 292 138 q 449 180 410 138 q 487 296 487 222 l 487 848 l 381 868 l 381 987 l 684 987 l 790 987 z "},"K":{"ha":993,"x_min":38,"x_max":972,"o":"m 38 119 l 143 139 l 143 848 l 38 868 l 38 987 l 441 987 l 441 868 l 341 848 l 341 584 l 427 584 l 617 860 l 559 868 l 559 987 l 950 987 l 950 868 l 843 850 l 600 526 l 873 136 l 972 119 l 972 0 l 581 0 l 581 119 l 642 127 l 452 412 l 341 412 l 341 139 l 441 119 l 441 0 l 38 0 l 38 119 z "},"L":{"ha":814,"x_min":38,"x_max":781,"o":"m 38 0 l 38 119 l 143 139 l 143 848 l 38 868 l 38 987 l 143 987 l 341 987 l 447 987 l 447 868 l 341 848 l 341 152 l 620 152 l 629 276 l 781 276 l 781 0 l 38 0 z "},"M":{"ha":1308,"x_min":38,"x_max":1276,"o":"m 991 730 l 987 731 l 722 0 l 589 0 l 326 728 l 322 728 l 341 294 l 341 139 l 447 119 l 447 0 l 38 0 l 38 119 l 143 139 l 143 848 l 38 868 l 38 987 l 143 987 l 401 987 l 653 260 l 657 260 l 911 987 l 1276 987 l 1276 868 l 1170 848 l 1170 139 l 1276 119 l 1276 0 l 867 0 l 867 119 l 972 139 l 972 294 l 991 730 z "},"N":{"ha":1073,"x_min":38,"x_max":1047,"o":"m 1047 987 l 1047 868 l 941 848 l 941 0 l 744 0 l 345 665 l 341 664 l 341 139 l 447 119 l 447 0 l 38 0 l 38 119 l 143 139 l 143 848 l 38 868 l 38 987 l 143 987 l 341 987 l 740 323 l 744 323 l 744 848 l 638 868 l 638 987 l 941 987 l 1047 987 z "},"O":{"ha":982,"x_min":45,"x_max":941,"o":"m 941 486 q 817 127 941 269 q 492 -14 692 -14 q 169 127 292 -14 q 45 486 45 269 l 45 501 q 168 859 45 717 q 491 1002 291 1002 q 816 859 692 1002 q 941 501 941 717 l 941 486 m 743 503 q 680 751 743 656 q 491 847 616 847 q 305 752 366 847 q 243 503 243 657 l 243 486 q 306 235 243 330 q 492 140 368 140 q 680 235 617 140 q 743 486 743 330 l 743 503 z "},"P":{"ha":899,"x_min":38,"x_max":873,"o":"m 508 987 q 775 900 677 987 q 873 672 873 813 q 775 444 873 530 q 508 358 677 358 l 341 358 l 341 139 l 447 119 l 447 0 l 38 0 l 38 119 l 143 139 l 143 848 l 38 868 l 38 987 l 143 987 l 508 987 m 341 511 l 508 511 q 633 556 591 511 q 675 671 675 601 q 633 788 675 742 q 508 835 591 835 l 341 835 l 341 511 z "},"Q":{"ha":983,"x_min":45,"x_max":975,"o":"m 941 486 q 894 251 941 357 q 764 77 848 144 l 975 -54 l 835 -161 l 598 -2 q 545 -11 572 -7 q 492 -14 518 -14 q 169 127 292 -14 q 45 486 45 269 l 45 501 q 168 859 45 717 q 491 1002 291 1002 q 816 859 692 1002 q 941 501 941 717 l 941 486 m 743 503 q 680 751 743 656 q 491 847 616 847 q 305 752 366 847 q 243 503 243 657 l 243 486 q 306 235 243 330 q 492 140 368 140 q 680 235 617 140 q 743 486 743 330 l 743 503 z "},"R":{"ha":955,"x_min":38,"x_max":928,"o":"m 481 987 q 745 910 650 987 q 841 698 841 833 q 801 568 841 623 q 684 479 761 513 q 809 394 771 454 q 848 245 848 334 l 848 195 q 861 144 848 162 q 903 123 873 126 l 928 119 l 928 0 l 825 0 q 689 52 728 0 q 650 187 650 104 l 650 243 q 611 356 650 315 q 503 399 573 397 l 341 399 l 341 139 l 447 119 l 447 0 l 38 0 l 38 119 l 143 139 l 143 848 l 38 868 l 38 987 l 143 987 l 481 987 m 341 552 l 478 552 q 602 587 561 552 q 644 689 644 623 q 603 795 644 755 q 481 835 562 835 l 341 835 l 341 552 z "},"S":{"ha":842,"x_min":66,"x_max":802,"o":"m 788 672 l 640 672 l 614 808 q 538 836 588 824 q 433 848 489 848 q 308 814 352 848 q 263 726 263 780 q 310 643 263 675 q 470 575 356 611 q 718 455 633 530 q 802 259 802 380 q 702 59 802 132 q 437 -14 602 -14 q 225 23 320 -14 q 68 126 131 60 l 68 332 l 221 332 l 242 192 q 323 152 272 168 q 437 136 374 136 q 561 169 519 136 q 604 258 604 202 q 563 349 604 315 q 422 414 523 384 q 156 535 246 465 q 66 726 66 605 q 168 923 66 846 q 423 1001 269 999 q 631 966 537 1001 q 788 874 724 932 l 788 672 z "},"T":{"ha":934,"x_min":27,"x_max":907,"o":"m 907 987 l 907 724 l 755 724 l 747 835 l 566 835 l 566 139 l 671 119 l 671 0 l 262 0 l 262 119 l 368 139 l 368 835 l 186 835 l 178 724 l 27 724 l 27 987 l 907 987 z "},"U":{"ha":1049,"x_min":26,"x_max":1029,"o":"m 435 987 l 435 868 l 330 848 l 330 332 q 382 186 330 235 q 526 138 435 138 q 672 186 619 138 q 725 332 725 234 l 725 848 l 620 868 l 620 987 l 1029 987 l 1029 868 l 923 848 l 923 332 q 813 76 923 166 q 526 -14 704 -14 q 240 76 349 -14 q 132 332 132 166 l 132 848 l 26 868 l 26 987 l 132 987 l 330 987 l 435 987 z "},"V":{"ha":996,"x_min":23,"x_max":973,"o":"m 384 868 l 309 854 l 484 262 l 496 208 l 500 208 l 511 261 l 687 854 l 612 868 l 612 987 l 973 987 l 973 868 l 890 857 l 600 0 l 396 0 l 104 857 l 23 868 l 23 987 l 384 987 l 384 868 z "},"W":{"ha":1337,"x_min":20,"x_max":1317,"o":"m 1317 868 l 1236 858 l 1036 0 l 852 0 l 671 652 l 667 652 l 486 0 l 302 0 l 100 858 l 20 868 l 20 987 l 383 987 l 383 868 l 293 852 l 406 311 l 410 311 l 595 987 l 741 987 l 928 311 l 932 311 l 1044 852 l 954 868 l 954 987 l 1317 987 l 1317 868 z "},"X":{"ha":975,"x_min":22,"x_max":952,"o":"m 22 119 l 106 135 l 367 498 l 113 851 l 30 868 l 30 987 l 409 987 l 409 868 l 328 859 l 481 617 l 634 859 l 555 868 l 555 987 l 935 987 l 935 868 l 852 851 l 598 498 l 865 136 l 952 119 l 952 0 l 564 0 l 564 119 l 642 127 l 484 376 l 324 127 l 404 119 l 404 0 l 22 0 l 22 119 z "},"Y":{"ha":948,"x_min":24,"x_max":922,"o":"m 398 868 l 317 857 l 471 532 l 475 532 l 628 857 l 548 868 l 548 987 l 922 987 l 922 868 l 838 854 l 569 347 l 569 139 l 675 119 l 675 0 l 266 0 l 266 119 l 372 139 l 372 357 l 108 854 l 24 868 l 24 987 l 398 987 l 398 868 z "},"Z":{"ha":831,"x_min":50,"x_max":802,"o":"m 775 987 l 775 888 l 292 152 l 635 152 l 652 271 l 802 271 l 787 0 l 50 0 l 50 103 l 532 835 l 218 835 l 202 715 l 51 715 l 66 987 l 775 987 z "},"[":{"ha":392,"x_min":94,"x_max":388,"o":"m 388 1000 l 292 1000 l 292 -81 l 388 -81 l 388 -228 l 94 -228 l 94 1147 l 388 1147 l 388 1000 z "},"\\":{"ha":579,"x_min":8,"x_max":616,"o":"m 8 987 l 203 987 l 616 -85 l 420 -85 l 8 987 z "},"]":{"ha":386,"x_min":7,"x_max":302,"o":"m 7 1147 l 302 1147 l 302 -228 l 7 -228 l 7 -81 l 104 -81 l 104 1000 l 7 1000 l 7 1147 z "},"^":{"ha":600,"x_min":31,"x_max":580,"o":"m 187 494 l 31 494 l 233 987 l 377 987 l 580 494 l 423 494 l 311 774 l 306 798 l 302 798 l 297 774 l 187 494 z "},"_":{"ha":742,"x_min":62,"x_max":680,"o":"m 680 -126 l 62 -126 l 62 0 l 680 0 l 680 -126 z "},"`":{"ha":422,"x_min":43,"x_max":388,"o":"m 388 822 l 228 822 l 43 998 l 45 1002 l 255 1002 l 388 822 z "},"a":{"ha":763,"x_min":50,"x_max":739,"o":"m 510 0 q 496 38 502 18 q 486 77 490 57 q 400 11 451 36 q 285 -14 350 -14 q 114 44 177 -14 q 50 204 50 103 q 133 363 50 307 q 376 420 216 420 l 477 420 l 477 492 q 446 574 477 545 q 356 603 416 603 q 296 595 322 603 q 253 576 269 587 l 240 498 l 91 498 l 92 661 q 216 722 146 697 q 369 747 286 747 q 590 681 505 747 q 675 490 675 614 l 675 187 q 676 155 675 170 q 678 127 676 140 l 739 119 l 739 0 l 510 0 m 338 132 q 420 152 383 132 q 477 200 456 171 l 477 312 l 376 312 q 280 282 313 312 q 248 212 248 253 q 272 153 248 174 q 338 132 296 132 z "},"b":{"ha":801,"x_min":-15,"x_max":752,"o":"m 752 347 q 679 84 752 182 q 467 -14 606 -14 q 355 13 403 -14 q 275 90 308 39 l 261 0 l 90 0 l 90 918 l -15 939 l -15 1058 l 288 1058 l 288 656 q 364 724 319 700 q 466 747 408 747 q 679 642 606 747 q 752 361 752 536 l 752 347 m 555 361 q 523 531 555 468 q 416 593 492 593 q 338 574 370 593 q 288 519 306 555 l 288 209 q 338 157 306 175 q 417 140 370 140 q 524 194 494 140 q 555 347 555 248 l 555 361 z "},"c":{"ha":732,"x_min":45,"x_max":688,"o":"m 387 138 q 472 169 440 138 q 504 251 504 199 l 683 251 l 685 247 q 602 61 688 136 q 387 -14 515 -14 q 134 90 223 -14 q 45 356 45 193 l 45 376 q 137 643 45 538 q 397 747 228 747 q 556 721 486 747 q 673 646 627 694 l 676 450 l 515 450 l 483 565 q 446 586 468 578 q 397 595 425 595 q 278 534 313 595 q 243 376 243 473 l 243 356 q 275 198 243 258 q 387 138 307 138 z "},"d":{"ha":822,"x_min":45,"x_max":802,"o":"m 520 90 q 438 12 486 39 q 331 -14 391 -14 q 120 85 195 -14 q 45 347 45 184 l 45 361 q 121 641 45 534 q 332 747 196 747 q 431 723 387 747 q 509 655 475 699 l 509 918 l 403 939 l 403 1058 l 509 1058 l 707 1058 l 707 139 l 802 119 l 802 0 l 535 0 l 520 90 m 243 347 q 276 195 243 250 q 381 140 308 140 q 456 157 425 140 q 509 208 488 175 l 509 519 q 457 574 488 555 q 382 593 425 593 q 277 529 310 593 q 243 361 243 465 l 243 347 z "},"e":{"ha":740,"x_min":45,"x_max":689,"o":"m 394 -14 q 140 87 235 -14 q 45 346 45 189 l 45 373 q 135 642 45 536 q 376 747 225 748 q 607 658 525 747 q 689 416 689 568 l 689 308 l 251 308 l 250 304 q 298 184 255 231 q 415 138 341 138 q 524 151 481 138 q 619 193 568 164 l 673 71 q 555 10 627 35 q 394 -14 483 -14 m 376 595 q 290 553 321 595 q 250 442 258 511 l 252 439 l 495 439 l 495 456 q 466 557 495 519 q 376 595 436 595 z "},"f":{"ha":517,"x_min":40,"x_max":529,"o":"m 54 119 l 149 139 l 149 595 l 40 595 l 40 734 l 149 734 l 149 815 q 220 1005 149 939 q 420 1072 292 1072 q 472 1068 446 1072 q 529 1058 498 1065 l 512 911 q 480 916 496 913 q 445 918 465 918 q 372 891 397 918 q 347 815 347 865 l 347 734 l 493 734 l 493 595 l 347 595 l 347 139 l 443 119 l 443 0 l 54 0 l 54 119 z "},"g":{"ha":793,"x_min":55,"x_max":718,"o":"m 55 361 q 131 641 55 534 q 342 747 206 747 q 451 720 404 747 q 531 642 498 692 l 545 734 l 718 734 l 718 22 q 626 -210 718 -123 q 376 -296 535 -296 q 258 -281 320 -296 q 142 -239 195 -266 l 179 -100 q 274 -133 227 -121 q 374 -144 321 -144 q 483 -100 447 -144 q 519 22 519 -56 l 519 71 q 442 7 486 29 q 341 -14 398 -14 q 131 85 206 -14 q 55 347 55 184 l 55 361 m 253 347 q 286 195 253 250 q 391 140 318 140 q 468 156 437 140 q 519 205 500 173 l 519 524 q 468 575 500 557 q 393 593 437 593 q 287 529 320 593 q 253 361 253 465 l 253 347 z "},"h":{"ha":883,"x_min":22,"x_max":862,"o":"m 32 119 l 127 139 l 127 918 l 22 939 l 22 1058 l 325 1058 l 325 640 q 410 719 359 691 q 521 747 460 747 q 702 671 636 747 q 767 435 767 595 l 767 139 l 862 119 l 862 0 l 484 0 l 484 119 l 569 139 l 569 437 q 539 558 569 522 q 449 593 509 593 q 377 578 408 593 q 325 536 346 564 l 325 139 l 410 119 l 410 0 l 32 0 l 32 119 z "},"i":{"ha":448,"x_min":26,"x_max":425,"o":"m 37 119 l 132 139 l 132 594 l 26 614 l 26 734 l 330 734 l 330 139 l 425 119 l 425 0 l 37 0 l 37 119 m 330 909 l 132 909 l 132 1058 l 330 1058 l 330 909 z "},"j":{"ha":406,"x_min":-22,"x_max":334,"o":"m 334 -27 q 265 -226 334 -156 q 75 -296 197 -296 q 25 -294 47 -296 q -22 -285 2 -291 l -13 -134 q 18 -140 2 -138 q 52 -142 33 -142 q 114 -114 92 -142 q 136 -27 136 -85 l 136 594 l 30 614 l 30 734 l 334 734 l 334 -27 m 330 911 l 132 911 l 132 1058 l 330 1058 l 330 911 z "},"k":{"ha":847,"x_min":22,"x_max":821,"o":"m 22 939 l 22 1058 l 325 1058 l 325 445 l 369 445 l 483 606 l 418 614 l 418 734 l 779 734 l 779 614 l 692 595 l 560 413 l 745 134 l 821 119 l 821 0 l 481 0 l 481 119 l 522 125 l 410 307 l 325 307 l 325 139 l 410 119 l 410 0 l 32 0 l 32 119 l 127 139 l 127 918 l 22 939 z "},"l":{"ha":443,"x_min":22,"x_max":421,"o":"m 22 939 l 22 1058 l 326 1058 l 326 139 l 421 119 l 421 0 l 32 0 l 32 119 l 127 139 l 127 918 l 22 939 z "},"m":{"ha":1292,"x_min":20,"x_max":1271,"o":"m 20 614 l 20 734 l 309 734 l 317 637 q 406 719 353 690 q 529 747 459 747 q 650 716 600 747 q 726 622 700 685 q 814 714 760 681 q 941 747 868 747 q 1113 672 1050 747 q 1175 444 1175 597 l 1175 139 l 1271 119 l 1271 0 l 892 0 l 892 119 l 977 139 l 977 445 q 950 561 977 528 q 869 593 923 593 q 797 575 827 593 q 747 523 766 556 q 748 501 747 510 q 749 482 749 492 l 749 139 l 829 119 l 829 0 l 471 0 l 471 119 l 551 139 l 551 445 q 524 560 551 526 q 443 593 497 593 q 373 578 403 593 q 323 535 342 563 l 323 139 l 408 119 l 408 0 l 30 0 l 30 119 l 125 139 l 125 594 l 20 614 z "},"n":{"ha":882,"x_min":22,"x_max":861,"o":"m 32 119 l 127 139 l 127 594 l 22 614 l 22 734 l 311 734 l 320 629 q 410 716 357 685 q 530 747 464 747 q 704 677 642 747 q 766 458 766 608 l 766 139 l 861 119 l 861 0 l 483 0 l 483 119 l 568 139 l 568 458 q 538 563 568 532 q 448 593 508 593 q 377 577 408 593 q 325 532 346 562 l 325 139 l 405 119 l 405 0 l 32 0 l 32 119 z "},"o":{"ha":779,"x_min":43,"x_max":735,"o":"m 43 374 q 135 643 43 538 q 389 747 227 747 q 643 643 551 747 q 735 374 735 538 l 735 359 q 643 90 735 194 q 390 -14 551 -14 q 135 90 227 -14 q 43 359 43 194 l 43 374 m 241 359 q 276 198 241 259 q 390 138 311 138 q 502 199 467 138 q 538 359 538 260 l 538 374 q 502 533 538 471 q 389 595 466 595 q 276 533 311 595 q 241 374 241 471 l 241 359 z "},"p":{"ha":841,"x_min":28,"x_max":795,"o":"m 28 614 l 28 734 l 315 734 l 325 648 q 403 722 357 696 q 509 747 448 747 q 720 641 645 747 q 795 361 795 534 l 795 347 q 720 85 795 184 q 510 -14 645 -14 q 408 7 452 -14 q 331 70 363 28 l 331 -142 l 427 -163 l 427 -282 l 38 -282 l 38 -163 l 134 -142 l 134 594 l 28 614 m 597 361 q 563 529 597 465 q 457 593 528 593 q 381 575 412 593 q 331 523 349 557 l 331 201 q 381 154 349 170 q 458 138 412 138 q 564 194 530 138 q 597 347 597 250 l 597 361 z "},"q":{"ha":783,"x_min":45,"x_max":800,"o":"m 45 361 q 121 641 45 534 q 332 747 196 747 q 438 721 392 747 q 517 646 484 694 l 533 734 l 705 734 l 705 -142 l 800 -163 l 800 -282 l 411 -282 l 411 -163 l 507 -142 l 507 68 q 430 6 474 27 q 331 -14 387 -14 q 120 85 195 -14 q 45 347 45 184 l 45 361 m 243 347 q 276 194 243 250 q 381 138 308 138 q 456 154 425 138 q 507 201 487 170 l 507 527 q 456 577 487 559 q 382 595 425 595 q 277 530 310 595 q 243 361 243 465 l 243 347 z "},"r":{"ha":585,"x_min":47,"x_max":568,"o":"m 58 119 l 153 139 l 153 594 l 47 614 l 47 734 l 337 734 l 346 627 q 412 715 372 684 q 507 747 453 747 q 539 745 522 747 q 568 739 557 743 l 547 559 l 466 561 q 394 544 422 561 q 351 496 366 527 l 351 139 l 446 119 l 446 0 l 58 0 l 58 119 z "},"s":{"ha":715,"x_min":66,"x_max":669,"o":"m 642 481 l 509 481 l 488 573 q 436 600 467 589 q 368 611 406 611 q 286 588 316 611 q 255 529 255 564 q 284 474 255 496 q 401 435 313 452 q 603 355 537 408 q 669 210 669 302 q 584 48 669 111 q 359 -14 498 -14 q 204 11 275 -14 q 78 81 133 35 l 76 246 l 214 246 l 241 151 q 290 129 259 136 q 353 121 320 121 q 445 143 414 121 q 477 202 477 165 q 445 258 477 235 q 328 300 413 282 q 132 379 198 327 q 66 520 66 431 q 142 679 66 612 q 358 746 218 746 q 520 723 444 746 q 640 664 596 700 l 642 481 z "},"t":{"ha":518,"x_min":30,"x_max":487,"o":"m 335 913 l 335 734 l 464 734 l 464 595 l 335 595 l 335 221 q 353 160 335 178 q 400 142 370 142 q 436 143 420 142 q 470 149 451 145 l 487 6 q 421 -9 454 -4 q 351 -14 389 -14 q 193 42 248 -14 q 138 220 138 98 l 138 595 l 30 595 l 30 734 l 138 734 l 138 913 l 335 913 z "},"u":{"ha":867,"x_min":22,"x_max":831,"o":"m 556 93 q 469 14 521 41 q 351 -14 417 -14 q 169 60 235 -14 q 103 291 103 134 l 103 594 l 22 614 l 22 734 l 103 734 l 301 734 l 301 290 q 328 175 301 210 q 408 140 355 140 q 489 155 454 140 q 545 199 523 170 l 545 594 l 458 614 l 458 734 l 545 734 l 743 734 l 743 139 l 831 119 l 831 0 l 569 0 l 556 93 z "},"v":{"ha":791,"x_min":21,"x_max":771,"o":"m 354 614 l 285 602 l 382 273 l 395 204 l 399 204 l 413 273 l 509 601 l 438 614 l 438 734 l 771 734 l 771 614 l 707 604 l 491 0 l 302 0 l 85 604 l 21 614 l 21 734 l 354 734 l 354 614 z "},"w":{"ha":1114,"x_min":26,"x_max":1088,"o":"m 1088 614 l 1015 605 l 861 0 l 696 0 l 559 437 l 555 437 l 419 0 l 254 0 l 100 605 l 26 614 l 26 734 l 359 734 l 359 614 l 281 600 l 350 264 l 354 264 l 491 734 l 624 734 l 762 262 l 766 262 l 835 599 l 756 614 l 756 734 l 1088 734 l 1088 614 z "},"x":{"ha":808,"x_min":22,"x_max":788,"o":"m 22 119 l 90 130 l 290 371 l 97 603 l 28 614 l 28 734 l 359 734 l 359 619 l 292 611 l 403 470 l 512 611 l 444 619 l 444 734 l 775 734 l 775 614 l 709 603 l 520 371 l 719 130 l 788 119 l 788 0 l 452 0 l 452 114 l 519 122 l 406 270 l 290 121 l 349 114 l 349 0 l 22 0 l 22 119 z "},"y":{"ha":822,"x_min":18,"x_max":802,"o":"m 802 614 l 734 604 l 464 -110 q 379 -243 432 -189 q 218 -296 326 -296 q 171 -292 193 -296 q 119 -281 149 -288 l 142 -136 q 162 -139 152 -138 q 180 -140 172 -140 q 256 -116 229 -140 q 296 -56 282 -92 l 319 -1 l 86 604 l 18 614 l 18 734 l 377 734 l 377 614 l 295 601 l 395 308 l 406 255 l 410 254 l 526 601 l 443 614 l 443 734 l 802 734 l 802 614 z "},"z":{"ha":726,"x_min":60,"x_max":669,"o":"m 305 152 l 510 152 l 518 250 l 669 250 l 669 0 l 60 0 l 60 117 l 409 581 l 229 581 l 222 484 l 70 484 l 70 734 l 657 734 l 657 621 l 305 152 z "},"{":{"ha":444,"x_min":26,"x_max":429,"o":"m 391 -244 q 203 -125 259 -207 q 147 72 147 -44 l 147 210 q 118 314 147 277 q 26 351 88 351 l 26 488 q 118 525 88 488 q 147 630 147 562 l 147 768 q 203 965 147 884 q 391 1083 259 1046 l 429 977 q 348 902 371 956 q 324 768 324 848 l 324 630 q 294 505 324 559 q 202 420 263 450 q 294 333 263 388 q 324 210 324 279 l 324 72 q 348 -62 324 -8 q 429 -137 371 -116 l 391 -244 z "},"|":{"ha":290,"x_min":90,"x_max":208,"o":"m 208 -183 l 90 -183 l 90 987 l 208 987 l 208 -183 z "},"}":{"ha":441,"x_min":7,"x_max":410,"o":"m 7 -137 q 88 -62 64 -116 q 112 72 112 -8 l 112 210 q 143 334 112 280 q 238 419 174 389 q 143 504 174 450 q 112 630 112 559 l 112 768 q 88 902 112 848 q 7 977 64 956 l 45 1083 q 233 965 177 1046 q 290 768 290 884 l 290 630 q 319 525 290 562 q 410 488 348 488 l 410 351 q 319 314 348 351 q 290 210 290 277 l 290 72 q 233 -125 290 -44 q 45 -244 177 -207 l 7 -137 z "},"~":{"ha":897,"x_min":68,"x_max":823,"o":"m 823 514 q 763 331 823 405 q 612 256 703 256 q 505 278 554 256 q 404 347 456 299 q 344 390 370 376 q 288 404 318 404 q 229 369 253 404 q 204 286 204 334 l 68 304 q 126 487 68 414 q 278 559 185 559 q 386 537 334 559 q 488 469 437 514 q 547 426 521 439 q 602 412 572 412 q 661 448 636 412 q 686 532 686 483 l 823 514 z "},"¡":{"ha":355,"x_min":88,"x_max":287,"o":"m 287 -254 l 88 -254 l 88 393 l 287 393 l 287 -254 m 287 559 l 88 559 l 88 734 l 287 734 l 287 559 z "},"¢":{"ha":741,"x_min":54,"x_max":696,"o":"m 396 138 q 481 169 449 138 q 513 251 513 199 l 692 251 l 694 247 q 628 78 696 149 q 452 -9 559 6 l 452 -166 l 317 -166 l 317 -7 q 122 116 189 18 q 54 356 54 215 l 54 376 q 122 613 54 514 q 317 739 190 711 l 317 894 l 452 894 l 452 745 q 583 713 525 739 q 682 646 642 688 l 685 450 l 524 450 l 492 565 q 455 586 477 578 q 406 595 433 595 q 287 534 321 595 q 252 376 252 473 l 252 356 q 284 198 252 258 q 396 138 316 138 z "},"£":{"ha":798,"x_min":39,"x_max":758,"o":"m 349 399 l 352 341 q 332 239 352 288 q 273 152 311 191 l 598 152 l 606 250 l 758 250 l 758 0 l 81 0 l 81 152 l 88 152 q 136 216 120 160 q 152 332 152 272 l 149 399 l 39 399 l 39 551 l 144 551 l 138 696 q 220 920 138 839 q 439 1002 302 1002 q 665 926 585 1002 q 743 726 745 850 l 741 722 l 548 722 q 517 818 548 787 q 438 849 486 849 q 363 809 390 849 q 336 696 336 769 l 342 551 l 584 551 l 584 399 l 349 399 z "},"¤":{"ha":971,"x_min":56,"x_max":914,"o":"m 728 73 q 613 9 676 31 q 483 -14 551 -14 q 352 8 414 -14 q 239 72 290 31 l 151 -18 l 56 80 l 147 173 q 97 285 114 224 q 79 412 79 346 q 98 544 79 481 q 153 660 117 606 l 56 760 l 151 857 l 248 759 q 357 817 298 796 q 483 837 417 837 q 608 816 548 837 q 720 758 669 795 l 818 858 l 914 760 l 814 657 q 867 542 848 604 q 886 412 886 480 q 869 287 886 347 q 820 176 852 227 l 914 80 l 818 -18 l 728 73 m 205 412 q 286 201 205 288 q 483 115 367 115 q 679 201 598 115 q 760 412 760 287 q 679 623 760 536 q 483 709 598 709 q 286 623 367 709 q 205 412 205 536 z "},"¥":{"ha":950,"x_min":28,"x_max":928,"o":"m 928 868 l 816 853 l 629 503 l 794 503 l 794 391 l 574 391 l 574 307 l 794 307 l 794 195 l 574 195 l 574 139 l 669 119 l 669 0 l 271 0 l 271 119 l 376 139 l 376 195 l 146 195 l 146 307 l 376 307 l 376 391 l 146 391 l 146 503 l 328 503 l 140 853 l 28 868 l 28 987 l 391 987 l 391 868 l 345 859 l 476 576 l 480 576 l 611 859 l 565 868 l 565 987 l 928 987 l 928 868 z "},"¦":{"ha":348,"x_min":91,"x_max":268,"o":"m 91 -183 l 91 356 l 268 356 l 268 -183 l 91 -183 m 268 473 l 91 473 l 91 987 l 268 987 l 268 473 z "},"§":{"ha":843,"x_min":58,"x_max":795,"o":"m 795 322 q 766 214 795 260 q 684 139 738 168 q 754 57 730 104 q 777 -57 777 9 q 682 -245 777 -177 q 426 -313 587 -313 q 163 -245 269 -313 q 62 -30 58 -178 l 63 -26 l 254 -25 q 303 -128 254 -97 q 426 -159 353 -159 q 539 -131 498 -159 q 579 -58 579 -103 q 538 15 579 -12 q 382 77 497 43 q 137 183 216 120 q 58 363 58 247 q 86 470 58 423 q 169 547 115 517 q 99 629 122 581 q 75 743 75 677 q 171 931 75 860 q 428 1002 267 1002 q 686 926 593 1002 q 776 715 779 851 l 774 711 l 583 711 q 542 810 583 771 q 428 849 501 849 q 312 820 351 849 q 274 745 274 790 q 312 668 274 694 q 469 609 349 642 q 715 502 636 566 q 795 322 795 439 m 401 450 q 351 464 374 456 q 307 479 328 471 q 268 439 281 464 q 256 381 256 414 q 293 298 256 326 q 450 235 330 271 q 497 222 473 229 q 544 208 520 215 q 585 248 570 222 q 600 305 600 273 q 557 384 600 353 q 401 450 515 414 z "},"¨":{"ha":699,"x_min":98,"x_max":618,"o":"m 618 849 l 437 849 l 437 987 l 618 987 l 618 849 m 279 849 l 98 849 l 98 987 l 279 987 l 279 849 z "},"©":{"ha":1062,"x_min":50,"x_max":1013,"o":"m 744 404 l 745 400 q 688 244 748 298 q 522 191 629 191 q 350 263 414 191 q 286 454 286 335 l 286 534 q 350 724 286 652 q 522 797 414 797 q 689 743 629 797 q 746 588 749 689 l 745 584 l 644 584 q 614 676 644 648 q 522 705 583 705 q 425 659 458 705 q 391 535 391 612 l 391 454 q 425 329 391 376 q 522 283 458 283 q 613 311 583 283 q 644 404 644 339 l 744 404 m 133 494 q 249 193 133 315 q 532 71 366 71 q 813 193 697 71 q 930 494 930 315 q 813 794 930 673 q 532 916 697 916 q 249 794 365 916 q 133 494 133 673 m 50 494 q 191 854 50 708 q 532 1001 331 1001 q 872 854 732 1001 q 1013 494 1013 708 q 872 133 1013 280 q 532 -14 731 -14 q 191 133 331 -14 q 50 494 50 280 z "},"ª":{"ha":588,"x_min":64,"x_max":517,"o":"m 397 479 q 389 509 392 493 q 383 543 385 525 q 323 490 361 511 q 233 469 286 469 q 108 511 152 469 q 64 624 64 552 q 121 740 64 699 q 288 781 178 781 l 381 781 l 381 815 q 361 879 381 857 q 302 901 341 901 q 233 884 258 901 q 209 834 209 866 l 97 843 l 96 847 q 150 958 92 913 q 302 1002 208 1002 q 447 954 393 1002 q 500 814 500 905 l 500 602 q 504 537 500 567 q 517 479 508 507 l 397 479 m 262 567 q 333 587 296 567 q 381 631 370 608 l 381 701 l 289 701 q 211 680 239 701 q 182 627 182 658 q 202 582 182 597 q 262 567 222 567 z "},"«":{"ha":646,"x_min":3,"x_max":587,"o":"m 3 79 m 157 349 l 319 79 l 193 79 l 3 343 l 3 356 l 193 621 l 319 621 l 157 349 m 425 349 l 587 79 l 460 79 l 271 343 l 271 356 l 460 621 l 587 621 l 425 349 z "},"¬":{"ha":745,"x_min":77,"x_max":644,"o":"m 644 254 l 508 254 l 508 430 l 77 430 l 77 546 l 644 546 l 644 254 z "},"®":{"ha":1062,"x_min":50,"x_max":1013,"o":"m 50 494 q 191 854 50 708 q 532 1001 331 1001 q 872 854 732 1001 q 1013 494 1013 708 q 872 133 1013 280 q 532 -14 731 -14 q 191 133 331 -14 q 50 494 50 280 m 133 494 q 249 193 133 315 q 532 71 366 71 q 813 193 697 71 q 930 494 930 315 q 813 794 930 673 q 532 916 697 916 q 249 794 365 916 q 133 494 133 673 m 434 443 l 434 214 l 332 214 l 332 791 l 522 791 q 684 745 625 791 q 743 613 743 699 q 723 544 743 574 q 665 494 703 515 q 723 436 705 473 q 741 349 741 399 l 741 311 q 743 261 741 283 q 752 225 745 239 l 752 214 l 647 214 q 640 256 641 229 q 638 312 638 283 l 638 349 q 615 420 638 397 q 541 443 593 443 l 434 443 m 434 534 l 526 534 q 608 554 574 534 q 641 612 641 574 q 614 681 641 661 q 522 701 588 701 l 434 701 l 434 534 z "},"¯":{"ha":684,"x_min":99,"x_max":595,"o":"m 595 876 l 99 876 l 99 988 l 595 988 l 595 876 z "},"°":{"ha":505,"x_min":72,"x_max":438,"o":"m 72 816 q 126 947 72 892 q 256 1002 180 1002 q 385 947 331 1002 q 438 816 438 892 q 385 685 438 739 q 256 632 332 632 q 126 686 180 632 q 72 816 72 739 m 172 816 q 196 756 172 780 q 256 732 221 732 q 315 755 292 732 q 339 816 339 779 q 315 878 339 852 q 256 903 291 903 q 196 878 221 903 q 172 816 172 852 z "},"±":{"ha":705,"x_min":45,"x_max":666,"o":"m 444 642 l 666 642 l 666 485 l 444 485 l 444 225 l 271 225 l 271 485 l 45 485 l 45 642 l 271 642 l 271 888 l 444 888 l 444 642 m 646 1 l 81 1 l 81 155 l 646 155 l 646 1 z "},"²":{"ha":558,"x_min":64,"x_max":494,"o":"m 494 452 l 72 452 l 72 557 l 282 728 q 335 785 323 762 q 347 836 347 808 q 331 880 347 862 q 281 898 315 898 q 225 878 244 898 q 206 825 206 857 l 70 825 l 68 829 q 124 952 64 901 q 285 1003 184 1003 q 436 959 382 1003 q 489 835 489 915 q 453 737 489 779 q 332 625 416 694 l 258 562 l 260 557 l 494 557 l 494 452 z "},"³":{"ha":565,"x_min":56,"x_max":507,"o":"m 272 772 q 334 789 314 772 q 354 837 354 806 q 335 880 354 863 q 278 897 316 897 q 224 882 243 897 q 205 846 205 867 l 70 846 l 68 850 q 124 961 64 919 q 275 1002 184 1002 q 437 962 377 1002 q 497 847 497 922 q 473 779 497 810 q 408 731 449 748 q 481 683 456 715 q 507 604 507 650 q 446 486 507 528 q 281 444 385 444 q 119 487 183 444 q 60 606 56 529 l 61 610 l 197 610 q 218 565 197 581 q 280 549 239 549 q 341 566 318 549 q 364 612 364 582 q 340 664 364 646 q 272 682 317 682 l 196 682 l 196 772 l 272 772 z "},"´":{"ha":437,"x_min":56,"x_max":401,"o":"m 191 1002 l 400 1002 l 401 998 l 214 822 l 56 822 l 191 1002 z "},"µ":{"ha":913,"x_min":37,"x_max":893,"o":"m 610 46 q 542 1 580 16 q 457 -14 503 -14 q 393 -7 422 -14 q 340 15 364 0 l 340 -282 l 143 -282 l 143 594 l 37 614 l 37 734 l 143 734 l 340 734 l 340 313 q 371 176 340 212 q 462 140 401 140 q 547 158 513 140 q 600 213 581 177 l 600 594 l 494 614 l 494 734 l 798 734 l 798 139 l 893 119 l 893 0 l 614 0 l 610 46 z "},"¶":{"ha":764,"x_min":37,"x_max":730,"o":"m 321 119 l 427 139 l 427 353 l 370 353 q 124 440 212 353 q 37 670 37 528 q 124 899 37 810 q 370 987 212 987 l 625 987 l 625 139 l 730 119 l 730 0 l 321 0 l 321 119 m 730 987 l 730 868 l 625 848 l 625 987 l 730 987 z "},"·":{"ha":375,"x_min":98,"x_max":296,"o":"m 296 385 l 98 385 l 98 562 l 296 562 l 296 385 z "},"¸":{"ha":339,"x_min":56,"x_max":320,"o":"m 226 4 l 218 -35 q 291 -70 262 -42 q 320 -152 320 -98 q 258 -268 320 -224 q 82 -311 196 -311 l 77 -202 q 132 -188 112 -202 q 153 -146 153 -174 q 131 -107 153 -118 q 56 -92 109 -96 l 77 4 l 226 4 z "},"¹":{"ha":363,"x_min":69,"x_max":298,"o":"m 298 451 l 155 451 l 155 878 l 69 878 l 69 986 l 298 1002 l 298 451 z "},"º":{"ha":620,"x_min":74,"x_max":544,"o":"m 74 774 q 138 938 74 875 q 309 1002 201 1002 q 480 938 416 1002 q 544 774 544 875 l 544 695 q 480 531 544 594 q 310 469 416 469 q 138 531 202 469 q 74 695 74 594 l 74 774 m 193 695 q 222 603 193 637 q 310 568 252 568 q 395 603 366 568 q 425 695 425 637 l 425 774 q 395 866 425 831 q 309 901 365 901 q 222 866 252 901 q 193 774 193 831 l 193 695 z "},"»":{"ha":660,"x_min":43,"x_max":635,"o":"m 43 102 m 170 644 l 360 380 l 360 367 l 170 102 l 43 102 l 205 373 l 43 644 l 170 644 m 446 644 l 635 380 l 635 367 l 446 102 l 319 102 l 481 373 l 319 644 l 446 644 z "},"¼":{"ha":958,"x_min":79,"x_max":976,"o":"m 79 0 m 308 450 l 165 450 l 165 878 l 79 878 l 79 985 l 308 1001 l 308 450 m 259 79 l 163 130 l 645 902 l 741 851 l 259 79 m 907 201 l 976 201 l 976 94 l 907 94 l 907 0 l 764 0 l 764 94 l 486 94 l 477 180 l 764 542 l 764 543 l 907 543 l 907 201 m 623 201 l 764 201 l 764 375 l 760 376 l 751 363 l 623 201 z "},"½":{"ha":988,"x_min":69,"x_max":985,"o":"m 69 0 m 258 79 l 161 130 l 644 902 l 740 851 l 258 79 m 298 450 l 155 450 l 155 878 l 69 878 l 69 985 l 298 1001 l 298 450 m 985 0 l 562 0 l 562 105 l 772 276 q 825 333 813 310 q 837 383 837 355 q 821 428 837 410 q 772 446 805 446 q 715 425 734 446 q 696 373 696 405 l 560 373 l 559 377 q 615 500 555 449 q 775 551 675 551 q 926 507 873 551 q 979 382 979 463 q 943 284 979 327 q 823 172 907 242 l 749 109 l 750 105 l 985 105 l 985 0 z "},"¾":{"ha":1109,"x_min":50,"x_max":1103,"o":"m 50 0 m 406 79 l 309 130 l 791 902 l 888 851 l 406 79 m 1034 201 l 1103 201 l 1103 94 l 1034 94 l 1034 0 l 891 0 l 891 94 l 613 94 l 604 180 l 891 542 l 891 543 l 1034 543 l 1034 201 m 750 201 l 891 201 l 891 375 l 887 376 l 878 363 l 750 201 m 266 773 q 328 790 308 773 q 348 838 348 806 q 329 881 348 863 q 272 898 310 898 q 218 883 237 898 q 199 847 199 868 l 64 847 l 62 851 q 118 961 58 920 q 269 1003 178 1003 q 431 963 371 1003 q 491 848 491 922 q 467 780 491 810 q 401 732 443 749 q 475 683 450 715 q 500 605 500 651 q 440 487 500 529 q 275 445 379 445 q 113 487 177 445 q 54 606 50 530 l 55 610 l 191 610 q 212 566 191 582 q 274 550 233 550 q 335 566 312 550 q 358 612 358 583 q 334 665 358 646 q 266 683 311 683 l 190 683 l 190 773 l 266 773 z "},"¿":{"ha":641,"x_min":31,"x_max":671,"o":"m 472 453 q 443 313 471 357 q 335 206 416 269 q 257 121 286 167 q 229 20 229 75 q 261 -77 229 -41 q 356 -112 294 -112 q 440 -83 406 -112 q 477 4 475 -54 l 669 4 l 670 0 q 584 -198 671 -130 q 356 -267 496 -267 q 117 -191 203 -267 q 31 18 31 -114 q 81 176 31 103 q 208 300 131 250 q 261 363 248 331 q 275 453 275 395 l 472 453 m 273 734 l 473 734 l 473 564 l 273 564 l 273 734 z "},"Æ":{"ha":1388,"x_min":45,"x_max":1328,"o":"m 45 119 l 137 132 l 597 987 l 1286 987 l 1286 737 l 1135 737 l 1128 833 l 882 833 l 893 585 l 1232 585 l 1232 431 l 899 431 l 911 154 l 1169 154 l 1177 250 l 1328 250 l 1328 0 l 614 0 l 614 119 l 713 138 l 709 240 l 418 240 l 361 128 l 418 119 l 418 0 l 45 0 l 45 119 m 495 395 l 703 395 l 687 770 l 684 771 l 495 395 z "},"×":{"ha":724,"x_min":41,"x_max":686,"o":"m 41 252 l 251 465 l 41 679 l 157 790 l 363 580 l 570 790 l 686 679 l 476 465 l 686 252 l 570 140 l 363 351 l 157 140 l 41 252 z "},"Ø":{"ha":949,"x_min":49,"x_max":944,"o":"m 944 486 q 820 127 944 269 q 495 -14 696 -14 q 374 1 431 -14 q 269 46 317 16 l 205 -64 l 107 -64 l 201 98 q 89 266 128 165 q 49 486 49 366 l 49 501 q 172 859 49 717 q 494 1002 294 1002 q 602 989 551 1002 q 700 953 654 977 l 745 1029 l 842 1029 l 770 907 q 899 733 853 838 q 944 501 944 627 l 944 486 m 747 503 q 730 642 747 578 q 683 748 714 706 l 679 749 l 352 188 q 415 152 380 164 q 495 140 451 140 q 684 235 621 140 q 747 486 747 330 l 747 503 m 247 486 q 258 361 247 418 q 294 264 270 304 l 298 263 l 618 814 q 561 838 592 829 q 494 847 530 847 q 308 752 370 847 q 247 503 247 657 l 247 486 z "},"Þ":{"ha":886,"x_min":45,"x_max":864,"o":"m 45 119 l 151 139 l 151 848 l 45 868 l 45 987 l 349 987 l 455 987 l 455 868 l 349 848 l 349 804 l 499 804 q 768 720 671 804 q 864 500 864 636 q 768 280 864 364 q 499 196 671 196 l 349 196 l 349 139 l 455 119 l 455 0 l 45 0 l 45 119 m 349 652 l 349 349 l 499 349 q 624 392 583 349 q 666 499 666 435 q 624 608 666 564 q 499 652 583 652 l 349 652 z "},"ß":{"ha":896,"x_min":26,"x_max":872,"o":"m 330 0 l 26 0 l 26 119 l 132 139 l 132 747 q 219 983 132 900 q 458 1067 307 1067 q 661 1002 581 1067 q 741 818 741 937 q 705 679 741 745 q 669 566 669 612 q 771 432 669 528 q 872 241 872 336 q 794 50 872 113 q 569 -14 716 -14 q 466 -4 517 -14 q 391 24 416 6 l 427 175 q 488 149 452 160 q 565 138 524 138 q 646 163 616 138 q 675 233 675 189 q 573 373 675 281 q 471 560 471 464 q 509 689 471 621 q 546 808 546 757 q 519 885 546 856 q 445 915 492 915 q 361 869 393 915 q 330 744 330 823 l 330 0 z "},"æ":{"ha":1210,"x_min":50,"x_max":1156,"o":"m 863 -14 q 708 13 776 -14 q 594 92 640 41 q 485 16 553 46 q 321 -14 416 -14 q 120 47 191 -14 q 50 215 50 109 q 136 381 50 323 q 387 439 222 439 l 509 439 l 509 479 q 481 564 509 533 q 404 595 454 595 q 317 569 349 595 q 286 506 286 544 l 94 518 l 93 522 q 175 684 89 620 q 406 747 262 747 q 532 729 475 747 q 629 675 589 710 q 725 729 670 710 q 848 747 781 747 q 1074 658 991 747 q 1156 415 1156 568 l 1156 308 l 715 308 l 713 304 q 758 183 716 228 q 884 138 800 138 q 989 151 947 138 q 1084 193 1031 165 l 1136 68 q 1021 11 1094 35 q 863 -14 949 -14 m 359 125 q 441 146 399 125 q 509 195 484 167 l 509 315 l 388 315 q 284 285 321 315 q 248 212 248 255 q 276 149 248 172 q 359 125 304 125 m 848 595 q 751 553 783 595 q 715 440 720 511 l 716 437 l 962 437 l 962 456 q 933 557 962 519 q 848 595 904 595 z "},"ð":{"ha":825,"x_min":41,"x_max":779,"o":"m 623 869 q 738 683 697 790 q 779 448 779 576 l 779 397 q 672 101 779 216 q 406 -14 565 -14 q 142 81 244 -14 q 41 317 41 176 q 132 563 41 471 q 379 656 222 656 q 476 641 430 656 q 556 600 522 626 l 559 602 q 519 697 545 653 q 456 777 492 741 l 300 690 l 247 767 l 376 838 q 327 862 352 851 q 277 881 302 872 l 340 1029 q 450 991 397 1015 q 549 934 503 967 l 690 1013 l 743 936 l 623 869 m 581 450 q 514 494 557 477 q 410 512 470 512 q 283 458 328 512 q 238 317 238 405 q 284 190 238 242 q 408 138 331 138 q 534 211 488 138 q 581 397 581 283 l 581 450 z "},"÷":{"ha":768,"x_min":38,"x_max":735,"o":"m 735 389 l 38 389 l 38 543 l 735 543 l 735 389 m 486 660 l 288 660 l 288 818 l 486 818 l 486 660 m 486 111 l 288 111 l 288 269 l 486 269 l 486 111 z "},"ø":{"ha":799,"x_min":52,"x_max":744,"o":"m 52 374 q 143 643 52 538 q 397 747 235 747 q 456 743 428 747 q 513 731 485 739 l 558 824 l 668 824 l 602 688 q 707 557 670 639 q 744 374 744 475 l 744 359 q 652 90 744 194 q 399 -14 560 -14 q 330 -9 363 -14 q 269 7 298 -3 l 218 -96 l 109 -96 l 182 54 q 85 182 118 103 q 52 359 52 261 l 52 374 m 547 374 q 540 452 547 416 q 520 513 533 488 l 516 513 l 338 150 q 366 141 351 144 q 399 138 381 138 q 511 199 475 138 q 547 359 547 260 l 547 374 m 250 359 q 254 291 250 322 q 268 239 258 260 l 271 238 l 443 588 q 420 593 432 591 q 397 595 409 595 q 285 533 320 595 q 250 374 250 471 l 250 359 z "},"þ":{"ha":845,"x_min":23,"x_max":791,"o":"m 23 939 l 23 1058 l 326 1058 l 326 657 q 402 724 358 701 q 504 747 446 747 q 715 641 640 747 q 791 361 791 534 l 791 347 q 715 85 791 184 q 505 -14 640 -14 q 403 7 448 -14 q 326 70 358 28 l 326 -142 l 422 -163 l 422 -282 l 33 -282 l 33 -163 l 129 -142 l 129 918 l 23 939 m 593 361 q 558 529 593 465 q 452 593 524 593 q 376 575 408 593 q 326 523 345 557 l 326 201 q 376 154 345 170 q 454 138 408 138 q 559 194 526 138 q 593 347 593 250 l 593 361 z "},"Ħ":{"ha":1063,"x_min":26,"x_max":1035,"o":"m 1035 987 l 1035 868 l 929 848 l 929 753 l 1013 753 l 1013 650 l 929 650 l 929 139 l 1035 119 l 1035 0 l 626 0 l 626 119 l 732 139 l 732 410 l 329 410 l 329 139 l 435 119 l 435 0 l 26 0 l 26 119 l 131 139 l 131 650 l 48 650 l 48 753 l 131 753 l 131 848 l 26 868 l 26 987 l 435 987 l 435 868 l 329 848 l 329 753 l 732 753 l 732 848 l 626 868 l 626 987 l 732 987 l 929 987 l 1035 987 m 329 563 l 732 563 l 732 650 l 329 650 l 329 563 z "},"ı":{"ha":465,"x_min":47,"x_max":446,"o":"m 47 614 l 47 734 l 351 734 l 351 139 l 446 119 l 446 0 l 58 0 l 58 119 l 153 139 l 153 594 l 47 614 z "},"ĸ":{"ha":861,"x_min":28,"x_max":821,"o":"m 32 119 l 127 139 l 127 594 l 28 614 l 28 734 l 325 734 l 325 449 l 389 449 l 499 606 l 434 614 l 434 734 l 794 734 l 794 614 l 708 595 l 563 409 l 745 134 l 821 119 l 821 0 l 601 0 l 410 307 l 325 307 l 325 139 l 410 119 l 410 0 l 32 0 l 32 119 z "},"Ł":{"ha":808,"x_min":38,"x_max":781,"o":"m 447 868 l 341 848 l 341 604 l 490 647 l 490 515 l 341 471 l 341 152 l 620 152 l 629 276 l 781 276 l 781 0 l 38 0 l 38 119 l 143 139 l 143 414 l 50 388 l 50 520 l 143 547 l 143 848 l 38 868 l 38 987 l 447 987 l 447 868 z "},"ł":{"ha":443,"x_min":17,"x_max":420,"o":"m 321 614 l 420 647 l 420 515 l 321 481 l 321 139 l 416 119 l 416 0 l 27 0 l 27 119 l 123 139 l 123 416 l 37 388 l 37 520 l 123 549 l 123 918 l 17 939 l 17 1058 l 321 1058 l 321 614 z "},"Ŋ":{"ha":1074,"x_min":46,"x_max":1055,"o":"m 46 868 l 46 987 l 350 987 l 748 322 l 752 323 l 752 848 l 647 868 l 647 987 l 752 987 l 1055 987 l 1055 868 l 950 848 l 950 -27 q 882 -226 950 -156 q 691 -296 813 -296 q 641 -294 663 -296 q 593 -285 618 -291 l 603 -135 q 635 -141 618 -139 q 670 -144 652 -144 q 730 -113 709 -144 q 752 -27 752 -83 l 752 0 l 354 666 l 350 665 l 350 139 l 455 119 l 455 0 l 46 0 l 46 119 l 152 139 l 152 848 l 46 868 z "},"ŋ":{"ha":869,"x_min":53,"x_max":795,"o":"m 63 119 l 158 139 l 158 594 l 53 614 l 53 734 l 342 734 l 351 631 q 441 716 387 686 q 560 747 494 747 q 733 675 671 747 q 795 450 795 604 l 795 -27 q 727 -226 795 -156 q 537 -296 659 -296 q 486 -294 509 -296 q 439 -285 463 -291 l 448 -133 q 480 -139 463 -136 q 516 -141 497 -141 q 576 -112 555 -141 q 597 -27 597 -83 l 597 449 q 570 561 597 528 q 488 593 543 593 q 411 577 444 593 q 356 533 378 562 l 356 139 l 451 119 l 451 0 l 63 0 l 63 119 z "},"Œ":{"ha":1354,"x_min":70,"x_max":1313,"o":"m 1169 434 l 835 434 l 835 152 l 1154 152 l 1162 270 l 1313 270 l 1313 0 l 677 0 q 571 -11 614 -7 q 481 -14 527 -14 q 184 98 298 -14 q 70 391 70 211 l 70 597 q 183 889 70 777 q 480 1002 297 1002 q 575 998 527 1002 q 677 987 623 994 l 1312 987 l 1312 717 l 1160 717 l 1151 835 l 835 835 l 835 587 l 1169 587 l 1169 434 m 481 138 q 560 141 521 138 q 637 151 599 144 l 637 836 q 558 845 597 842 q 480 849 519 849 q 323 785 380 849 q 267 598 267 721 l 267 391 q 324 203 267 267 q 481 138 381 138 z "},"œ":{"ha":1272,"x_min":62,"x_max":1208,"o":"m 62 374 q 154 643 62 538 q 408 747 246 747 q 550 721 486 747 q 659 648 613 695 q 762 722 702 696 q 895 747 822 747 q 1126 658 1044 747 q 1208 416 1208 568 l 1208 308 l 769 308 l 768 304 q 816 184 773 231 q 934 138 859 138 q 1043 151 1000 138 q 1137 193 1086 164 l 1192 71 q 1074 10 1147 35 q 913 -14 1002 -14 q 769 12 833 -14 q 660 86 705 37 q 552 12 615 37 q 410 -14 488 -14 q 154 90 246 -14 q 62 359 62 194 l 62 374 m 260 359 q 296 198 260 259 q 410 138 331 138 q 522 199 486 138 q 557 359 557 260 l 557 374 q 522 533 557 471 q 408 595 486 595 q 296 533 331 595 q 260 374 260 471 l 260 359 m 895 595 q 808 553 840 595 q 769 442 777 511 l 770 439 l 1014 439 l 1014 456 q 984 557 1014 519 q 895 595 955 595 z "},"ſ":{"ha":511,"x_min":30,"x_max":505,"o":"m 30 119 l 125 139 l 125 815 q 196 1005 125 939 q 396 1072 267 1072 q 447 1068 421 1072 q 505 1058 473 1065 l 488 912 q 455 918 469 916 q 422 920 441 920 q 349 892 374 920 q 323 815 323 865 l 323 139 l 428 119 l 428 0 l 30 0 l 30 119 z "},"ƒ":{"ha":541,"x_min":-13,"x_max":526,"o":"m 484 595 l 344 595 l 343 -27 q 275 -226 343 -156 q 84 -296 206 -296 q 34 -294 57 -296 q -13 -285 12 -291 l -3 -135 q 28 -141 12 -139 q 64 -144 45 -144 q 124 -113 102 -144 q 145 -27 145 -83 l 145 595 l 37 595 l 37 734 l 145 734 l 145 815 q 216 1005 145 939 q 417 1072 288 1072 q 468 1068 442 1072 q 526 1058 493 1065 l 509 911 q 477 916 493 913 q 441 918 461 918 q 369 891 393 918 q 344 815 344 865 l 344 734 l 484 734 l 484 595 z "},"Ơ":{"ha":1010,"x_min":48,"x_max":983,"o":"m 943 486 q 819 127 943 269 q 494 -14 695 -14 q 171 127 294 -14 q 48 486 48 269 l 48 501 q 171 859 48 717 q 494 1002 294 1002 q 657 972 582 1002 q 791 888 733 942 q 837 950 823 906 q 850 1065 850 994 l 983 1065 q 954 898 983 965 q 865 798 924 830 q 923 660 903 735 q 943 501 943 585 l 943 486 m 746 503 q 682 751 746 656 q 494 847 618 847 q 308 752 369 847 q 246 503 246 657 l 246 486 q 308 235 246 330 q 494 140 370 140 q 683 235 620 140 q 746 486 746 330 l 746 503 z "},"ơ":{"ha":861,"x_min":53,"x_max":814,"o":"m 53 374 q 145 643 53 538 q 399 747 237 747 q 539 722 476 747 q 647 649 602 696 q 684 707 673 669 q 695 804 695 745 l 814 804 q 786 658 814 717 q 702 571 759 600 q 734 478 723 528 q 745 374 745 428 l 745 359 q 653 90 745 194 q 400 -14 562 -14 q 145 90 237 -14 q 53 359 53 194 l 53 374 m 251 359 q 286 198 251 259 q 400 138 321 138 q 512 199 477 138 q 548 359 548 260 l 548 374 q 512 533 548 471 q 399 595 476 595 q 286 533 321 595 q 251 374 251 471 l 251 359 z "},"Ư":{"ha":1203,"x_min":23,"x_max":1196,"o":"m 920 799 l 924 798 q 1038 850 1011 800 q 1065 1012 1065 901 l 1193 1012 l 1194 1008 q 1134 772 1196 853 q 920 686 1072 692 l 920 332 q 810 76 920 166 q 523 -14 701 -14 q 237 76 346 -14 q 128 332 128 166 l 128 848 l 23 868 l 23 987 l 128 987 l 327 987 l 432 987 l 432 868 l 327 848 l 327 332 q 379 186 327 235 q 523 138 431 138 q 669 186 616 138 q 722 332 722 234 l 722 848 l 616 868 l 616 987 l 920 987 l 920 799 z "},"ư":{"ha":931,"x_min":31,"x_max":943,"o":"m 751 734 l 751 650 l 755 649 q 813 691 799 656 q 827 798 827 726 l 943 798 q 899 624 943 684 q 751 549 855 563 l 751 139 l 840 119 l 840 0 l 577 0 l 564 93 q 477 14 529 41 q 359 -14 425 -14 q 177 60 243 -14 q 111 291 111 134 l 111 594 l 31 614 l 31 734 l 111 734 l 309 734 l 309 290 q 336 175 309 210 q 416 140 363 140 q 497 155 463 140 q 553 199 531 170 l 553 594 l 466 614 l 466 734 l 553 734 l 751 734 z "},"ȷ":{"ha":421,"x_min":-13,"x_max":343,"o":"m 343 -27 q 275 -227 343 -157 q 85 -296 207 -296 q 34 -294 57 -296 q -13 -285 12 -291 l -3 -135 q 28 -141 12 -139 q 64 -144 45 -144 q 124 -113 102 -144 q 146 -27 146 -83 l 146 594 l 40 614 l 40 734 l 343 734 l 343 -27 z "},"ə":{"ha":759,"x_min":62,"x_max":706,"o":"m 357 749 q 611 647 516 749 q 706 388 706 545 l 706 361 q 616 91 706 196 q 376 -13 526 -14 q 144 76 226 -13 q 62 318 62 165 l 62 426 l 500 426 l 502 430 q 453 549 496 502 q 336 596 410 596 q 227 583 270 596 q 133 541 183 569 l 79 663 q 196 724 123 699 q 357 749 269 749 m 376 139 q 461 181 430 139 q 501 292 493 222 l 499 295 l 257 295 l 257 277 q 286 176 257 214 q 376 139 315 139 z "},"ˆ":{"ha":604,"x_min":61,"x_max":562,"o":"m 562 865 l 562 849 l 414 849 l 309 948 l 205 849 l 61 849 l 61 867 l 252 1029 l 367 1029 l 562 865 z "},"ˇ":{"ha":593,"x_min":47,"x_max":563,"o":"m 305 939 l 395 1034 l 563 1034 l 563 1022 l 373 849 l 237 849 l 47 1023 l 47 1034 l 216 1034 l 305 939 z "},"˘":{"ha":592,"x_min":68,"x_max":537,"o":"m 532 987 l 534 983 q 474 843 537 897 q 303 788 410 788 q 132 843 195 788 q 72 983 68 897 l 73 987 l 208 987 q 231 922 208 948 q 303 897 254 897 q 374 922 351 897 q 397 987 397 947 l 532 987 z "},"˙":{"ha":377,"x_min":93,"x_max":300,"o":"m 300 832 l 93 832 l 93 996 l 300 996 l 300 832 z "},"˚":{"ha":444,"x_min":77,"x_max":363,"o":"m 77 880 q 119 975 77 937 q 222 1013 161 1013 q 322 975 281 1013 q 363 880 363 937 q 322 787 363 823 q 222 750 281 750 q 119 787 160 750 q 77 880 77 823 m 155 880 q 174 832 155 851 q 222 814 193 814 q 267 832 250 814 q 285 880 285 851 q 267 929 285 910 q 222 948 250 948 q 174 929 193 948 q 155 880 155 909 z "},"˛":{"ha":317,"x_min":27,"x_max":321,"o":"m 245 0 q 193 -61 210 -36 q 176 -119 176 -86 q 187 -152 176 -138 q 233 -167 198 -167 q 267 -163 252 -167 q 297 -153 281 -159 l 321 -258 q 267 -279 296 -271 q 195 -288 237 -288 q 74 -249 121 -288 q 27 -142 27 -211 q 58 -43 27 -90 q 156 41 90 4 l 245 0 z "},"˜":{"ha":644,"x_min":73,"x_max":581,"o":"m 581 1006 q 541 896 581 941 q 439 850 500 850 q 331 879 391 850 q 236 909 271 909 q 195 887 212 909 q 178 834 178 865 l 73 863 q 114 974 73 926 q 215 1021 154 1021 q 318 991 253 1021 q 418 962 382 962 q 459 983 441 962 q 476 1037 476 1005 l 581 1006 z "},"˝":{"ha":659,"x_min":61,"x_max":639,"o":"m 459 1029 l 637 1029 l 639 1025 l 446 849 l 298 849 l 296 852 l 459 1029 m 196 1029 l 372 1029 l 374 1026 l 211 849 l 61 849 l 196 1029 z "},"˳":{"ha":303,"x_min":31,"x_max":278,"o":"m 31 -172 q 67 -92 31 -124 q 156 -60 103 -60 q 243 -92 208 -60 q 278 -172 278 -124 q 243 -251 278 -220 q 156 -282 208 -282 q 67 -251 103 -282 q 31 -172 31 -219 m 108 -172 q 121 -205 108 -192 q 156 -218 135 -218 q 188 -205 175 -218 q 201 -172 201 -192 q 188 -137 201 -151 q 156 -124 175 -124 q 121 -137 135 -124 q 108 -172 108 -151 z "},"̀":{"ha":358,"x_min":53,"x_max":301,"o":"m 301 812 l 181 812 l 53 1024 l 210 1024 l 301 812 z "},"́":{"ha":353,"x_min":63,"x_max":311,"o":"m 155 1028 l 311 1028 l 181 815 l 63 815 l 155 1028 z "},"̃":{"ha":644,"x_min":-635,"x_max":-127,"o":"m -127 834 m -127 1006 q -168 896 -127 941 q -270 850 -208 850 q -377 879 -317 850 q -473 909 -437 909 q -514 887 -497 909 q -530 834 -530 865 l -635 863 q -595 974 -635 926 q -494 1021 -555 1021 q -391 991 -456 1021 q -291 962 -326 962 q -250 983 -267 962 q -233 1037 -233 1005 l -127 1006 z "},"̉":{"ha":415,"x_min":86,"x_max":350,"o":"m 100 857 l 90 950 q 161 962 139 952 q 182 995 182 972 q 157 1031 182 1020 q 86 1042 131 1042 l 91 1132 q 283 1097 216 1132 q 350 1000 350 1061 q 320 932 350 956 q 248 901 291 907 l 248 857 l 100 857 z "},"̏":{"ha":666,"x_min":45,"x_max":633,"o":"m 399 852 l 397 849 l 239 849 l 45 1025 l 47 1029 l 236 1029 l 399 852 m 633 849 l 474 849 l 311 1026 l 313 1029 l 498 1029 l 633 849 z "},"̣":{"ha":300,"x_min":60,"x_max":261,"o":"m 261 -244 l 60 -244 l 60 -81 l 261 -81 l 261 -244 z "},"΄":{"ha":349,"x_min":87,"x_max":328,"o":"m 139 1108 l 328 1108 l 185 861 l 87 861 l 139 1108 z "},"΅":{"ha":707,"x_min":90,"x_max":633,"o":"m 633 849 l 471 849 l 471 987 l 633 987 l 633 849 m 251 849 l 90 849 l 90 987 l 251 987 l 251 849 m 331 1168 l 522 1168 l 402 948 l 302 948 l 331 1168 z "},"·":{"ha":375,"x_min":98,"x_max":296,"o":"m 98 385 m 296 385 l 98 385 l 98 562 l 296 562 l 296 385 z "},"Γ":{"ha":829,"x_min":44,"x_max":793,"o":"m 44 119 l 149 139 l 149 848 l 44 868 l 44 987 l 793 987 l 793 737 l 641 737 l 633 835 l 347 835 l 347 139 l 453 119 l 453 0 l 44 0 l 44 119 z "},"Δ":{"ha":990,"x_min":8,"x_max":995,"o":"m 404 987 l 606 987 l 995 0 l 8 0 l 404 987 m 273 152 l 731 152 l 506 753 l 502 753 l 273 152 z "},"Θ":{"ha":949,"x_min":43,"x_max":939,"o":"m 606 416 l 348 416 l 348 568 l 606 568 l 606 416 m 939 486 q 814 127 939 269 q 490 -14 690 -14 q 166 127 290 -14 q 43 486 43 269 l 43 501 q 166 859 43 717 q 489 1002 289 1002 q 814 859 690 1002 q 939 501 939 717 l 939 486 m 741 503 q 677 751 741 656 q 489 847 614 847 q 303 752 364 847 q 241 503 241 657 l 241 486 q 303 235 241 330 q 490 140 366 140 q 678 235 615 140 q 741 486 741 330 l 741 503 z "},"Λ":{"ha":995,"x_min":25,"x_max":979,"o":"m 25 119 l 110 130 l 401 987 l 604 987 l 895 130 l 979 119 l 979 0 l 626 0 l 626 119 l 692 132 l 505 770 l 500 770 l 311 132 l 378 119 l 378 0 l 25 0 l 25 119 z "},"Ξ":{"ha":844,"x_min":43,"x_max":810,"o":"m 43 250 l 194 250 l 201 152 l 650 152 l 659 250 l 810 250 l 810 0 l 43 0 l 43 250 m 783 987 l 783 737 l 631 737 l 623 835 l 217 835 l 210 737 l 58 737 l 58 987 l 783 987 m 212 576 l 640 576 l 640 429 l 212 429 l 212 576 z "},"Π":{"ha":1086,"x_min":44,"x_max":1053,"o":"m 44 119 l 149 139 l 149 848 l 44 868 l 44 987 l 1053 987 l 1053 868 l 948 848 l 948 139 l 1053 119 l 1053 0 l 645 0 l 645 119 l 750 139 l 750 835 l 347 835 l 347 139 l 453 119 l 453 0 l 44 0 l 44 119 z "},"Σ":{"ha":799,"x_min":47,"x_max":773,"o":"m 47 0 l 47 103 l 347 497 l 47 885 l 47 987 l 755 987 l 755 737 l 604 737 l 595 835 l 312 835 l 557 503 l 557 491 l 311 153 l 614 153 l 622 250 l 773 250 l 773 0 l 47 0 z "},"Φ":{"ha":1022,"x_min":37,"x_max":986,"o":"m 414 176 q 141 264 245 180 q 37 487 37 349 q 142 716 37 628 q 414 808 246 804 l 414 852 l 309 873 l 309 987 l 612 987 l 717 987 l 717 873 l 612 852 l 612 808 q 882 716 778 803 q 986 488 986 629 q 882 265 986 351 q 612 176 778 180 l 612 134 l 717 114 l 717 0 l 309 0 l 309 114 l 414 134 l 414 176 m 231 487 q 280 374 231 415 q 410 332 328 333 l 414 334 l 414 650 l 410 651 q 280 606 328 650 q 231 487 231 563 m 792 488 q 744 607 792 564 q 615 651 696 650 l 612 650 l 612 334 l 615 332 q 744 374 696 333 q 792 488 792 416 z "},"Ψ":{"ha":1175,"x_min":37,"x_max":1154,"o":"m 792 868 l 697 848 l 697 421 l 701 420 q 820 492 779 431 q 861 664 861 554 l 861 987 l 1059 987 l 1154 987 l 1154 868 l 1059 848 l 1059 664 q 961 382 1059 488 q 697 260 864 277 l 697 139 l 802 119 l 802 0 l 394 0 l 394 119 l 499 139 l 499 259 q 231 379 330 274 q 132 664 132 485 l 132 848 l 37 868 l 37 987 l 132 987 l 330 987 l 330 664 q 373 495 330 557 q 495 420 416 433 l 499 422 l 499 848 l 404 868 l 404 987 l 499 987 l 792 987 l 792 868 z "},"Ω":{"ha":911,"x_min":52,"x_max":859,"o":"m 493 166 q 602 280 562 189 q 641 536 641 372 l 641 568 q 592 776 641 705 q 454 847 543 847 q 319 775 368 847 q 271 568 271 704 l 271 536 q 310 279 271 370 q 422 166 350 189 l 422 0 l 80 0 l 80 154 l 254 154 q 107 318 163 216 q 52 536 52 420 l 52 567 q 163 880 52 758 q 454 1002 275 1002 q 746 880 633 1002 q 859 567 859 758 l 859 536 q 803 318 859 420 q 659 154 747 216 l 836 154 l 836 0 l 493 0 l 493 166 z "},"α":{"ha":824,"x_min":66,"x_max":796,"o":"m 717 733 l 717 234 q 729 163 717 183 q 765 142 741 142 q 773 143 769 142 q 779 145 777 144 l 796 3 q 756 -11 775 -7 q 711 -14 736 -14 q 606 13 649 -14 q 541 97 562 41 q 461 14 508 43 q 353 -14 415 -14 q 142 85 217 -14 q 66 347 66 184 l 66 361 q 142 641 66 534 q 354 747 217 747 q 455 721 411 747 q 530 647 498 695 l 545 733 l 717 733 m 265 347 q 297 194 265 250 q 402 138 330 138 q 472 155 443 138 q 519 206 500 173 q 519 218 519 212 q 519 234 519 224 l 519 522 q 471 576 500 557 q 404 595 443 595 q 298 530 332 595 q 265 361 265 465 l 265 347 z "},"β":{"ha":813,"x_min":85,"x_max":776,"o":"m 405 1002 q 635 929 547 1002 q 723 734 723 856 q 690 613 723 668 q 600 526 658 559 q 730 433 684 496 q 776 281 776 370 q 695 63 776 141 q 473 -14 614 -14 q 374 -2 424 -14 q 283 37 325 11 l 283 -273 l 85 -273 l 85 703 q 178 918 85 834 q 405 1002 271 1002 m 402 583 q 496 618 466 583 q 526 721 526 654 q 494 812 526 774 q 405 849 463 849 q 317 809 351 849 q 283 703 283 768 l 283 179 q 347 148 310 159 q 429 138 383 138 q 538 179 497 138 q 578 283 578 220 q 541 400 578 357 q 433 443 503 443 l 368 443 l 368 583 l 402 583 z "},"γ":{"ha":755,"x_min":18,"x_max":743,"o":"m 743 614 l 682 605 l 480 9 l 480 -283 l 282 -283 l 282 38 l 123 533 q 101 570 115 560 q 59 581 86 581 q 44 579 53 581 q 33 578 35 578 l 18 728 q 65 737 35 733 q 121 741 96 741 q 220 720 192 741 q 270 633 249 698 l 379 273 l 386 232 l 390 232 l 399 273 l 484 600 l 410 614 l 410 734 l 743 734 l 743 614 z "},"δ":{"ha":784,"x_min":46,"x_max":744,"o":"m 130 848 q 207 1008 130 950 q 419 1065 283 1065 q 520 1051 469 1065 q 626 1009 571 1036 l 596 884 q 515 909 559 898 q 427 920 471 920 q 347 902 376 920 q 318 853 318 884 q 340 804 318 828 q 424 757 362 779 q 664 605 583 701 q 744 368 744 509 l 744 354 q 650 90 744 193 q 396 -14 557 -14 q 140 87 233 -14 q 46 346 46 188 l 46 359 q 106 553 46 471 q 254 659 165 636 l 257 667 q 163 742 197 696 q 130 848 130 788 m 243 362 q 282 201 243 264 q 396 138 320 138 q 508 201 470 138 q 547 362 547 264 l 547 376 q 505 515 547 450 q 396 595 463 581 q 282 532 321 595 q 243 376 243 469 l 243 362 z "},"ε":{"ha":751,"x_min":59,"x_max":721,"o":"m 391 311 q 291 289 326 311 q 256 220 256 267 q 292 156 256 183 q 390 130 327 130 q 489 155 454 130 q 525 217 525 180 l 716 217 l 718 213 q 626 45 721 103 q 401 -14 531 -14 q 155 46 251 -14 q 59 208 59 105 q 95 312 59 269 q 198 378 130 355 q 105 443 138 402 q 72 533 72 484 q 162 691 72 635 q 401 747 252 747 q 620 686 532 747 q 705 527 709 625 l 704 523 l 513 523 q 479 581 513 559 q 391 603 444 603 q 300 578 330 603 q 270 519 270 553 q 301 460 270 481 q 391 439 332 439 l 518 439 l 518 311 l 391 311 z "},"ζ":{"ha":695,"x_min":51,"x_max":656,"o":"m 656 987 l 656 878 l 412 589 q 307 436 338 501 q 276 286 276 372 q 302 197 276 226 q 385 153 328 168 l 438 137 q 590 73 544 106 q 635 -37 636 39 q 586 -157 635 -91 q 477 -263 537 -223 l 377 -189 q 424 -126 408 -156 q 439 -75 439 -96 q 423 -35 440 -51 q 363 -7 406 -18 l 313 5 q 135 97 191 37 q 79 259 79 157 q 124 458 79 363 q 263 668 169 553 l 402 832 l 401 836 l 51 836 l 51 987 l 656 987 z "},"η":{"ha":845,"x_min":-1,"x_max":751,"o":"m 113 0 l 113 528 q 101 571 113 559 q 65 583 89 583 q 44 582 52 583 q 19 576 36 580 l -1 710 q 66 733 24 724 q 149 743 107 743 q 254 715 214 743 q 306 631 294 688 q 396 717 342 686 q 515 747 450 747 q 689 677 627 747 q 751 450 751 606 l 751 -281 l 553 -281 l 553 449 q 525 561 553 528 q 443 595 497 595 q 366 579 399 595 q 311 534 332 563 l 311 0 l 113 0 z "},"θ":{"ha":803,"x_min":77,"x_max":745,"o":"m 745 385 q 655 87 745 189 q 412 -14 566 -14 q 168 87 258 -14 q 77 385 77 189 l 77 602 q 167 900 77 798 q 411 1002 257 1002 q 655 900 564 1002 q 745 602 745 798 l 745 385 m 548 422 l 275 422 l 275 366 q 310 192 275 246 q 412 138 345 138 q 513 192 479 138 q 548 366 548 246 l 548 422 m 275 570 l 548 570 l 548 623 q 513 794 548 740 q 411 849 477 849 q 309 795 344 849 q 275 623 275 741 l 275 570 z "},"ι":{"ha":478,"x_min":14,"x_max":466,"o":"m 318 218 q 333 157 318 174 q 380 140 348 140 q 411 142 399 140 q 446 152 422 144 l 466 9 q 406 -9 434 -4 q 340 -14 377 -14 q 177 44 233 -14 q 120 220 120 102 l 120 594 l 14 614 l 14 734 l 318 734 l 318 218 z "},"λ":{"ha":762,"x_min":5,"x_max":757,"o":"m 218 0 l 5 0 l 264 716 l 216 823 q 180 869 202 854 q 128 885 158 885 q 107 885 116 885 q 88 883 98 884 l 84 1024 q 137 1034 104 1030 q 198 1038 170 1038 q 311 1009 269 1038 q 377 924 354 980 l 661 213 q 691 160 675 178 q 732 142 707 142 q 745 142 740 142 q 755 142 750 142 l 757 -7 q 724 -11 742 -9 q 682 -12 705 -12 q 552 23 600 -12 q 478 137 505 59 l 361 463 l 357 463 l 349 422 l 218 0 z "},"ξ":{"ha":738,"x_min":70,"x_max":695,"o":"m 626 821 q 538 840 568 835 q 473 846 509 846 q 362 819 399 846 q 326 747 326 791 q 363 669 326 698 q 479 641 400 641 l 581 641 l 581 484 l 484 484 q 322 439 378 484 q 267 309 267 395 q 312 203 267 241 q 431 148 356 165 l 497 133 q 647 73 598 109 q 695 -40 695 37 q 646 -161 694 -95 q 537 -267 597 -227 l 436 -193 q 484 -130 469 -159 q 498 -77 499 -101 q 483 -36 500 -51 q 423 -11 465 -20 l 399 -4 q 151 95 231 29 q 70 304 70 161 q 123 464 70 399 q 275 562 176 530 q 166 633 204 587 q 127 743 127 680 q 215 932 127 863 q 452 1002 303 1002 q 561 994 515 1002 q 657 968 607 985 l 626 821 z "},"π":{"ha":885,"x_min":39,"x_max":871,"o":"m 723 734 l 816 734 l 816 589 l 723 589 l 723 218 q 738 157 723 174 q 785 140 753 140 q 816 143 804 140 q 850 153 827 145 l 871 10 q 810 -8 839 -3 q 745 -14 782 -14 q 582 44 638 -14 q 525 221 525 102 l 525 589 l 340 589 l 340 0 l 142 0 l 142 589 l 39 589 l 39 734 l 419 734 l 419 734 l 723 734 l 723 734 z "},"ρ":{"ha":798,"x_min":79,"x_max":741,"o":"m 741 347 q 666 85 741 184 q 456 -14 591 -14 q 354 6 399 -14 q 277 66 310 27 l 277 -282 l 79 -282 l 79 391 q 170 649 79 551 q 415 747 260 747 q 655 641 570 747 q 741 361 741 535 l 741 347 m 543 361 q 509 530 543 465 q 405 595 476 595 q 309 532 340 595 q 277 376 277 470 l 277 375 l 277 375 l 277 201 q 327 154 296 170 q 404 138 358 138 q 510 194 477 138 q 543 347 543 250 l 543 361 z "},"ς":{"ha":726,"x_min":55,"x_max":693,"o":"m 393 747 q 611 672 529 747 q 690 467 693 596 l 689 463 l 509 463 q 479 557 509 520 q 393 595 450 595 q 285 533 318 595 q 252 376 252 471 l 252 356 q 293 222 252 268 q 423 149 333 176 q 582 85 537 117 q 630 -26 627 53 q 582 -147 630 -81 q 475 -254 534 -213 l 372 -178 q 419 -116 404 -144 q 434 -63 434 -87 q 416 -21 434 -37 q 363 3 399 -6 q 130 126 205 43 q 55 356 55 210 l 55 376 q 144 643 55 538 q 393 747 233 747 z "},"σ":{"ha":842,"x_min":53,"x_max":788,"o":"m 788 581 l 613 581 q 701 474 667 536 q 735 346 735 413 l 735 332 q 646 84 735 182 q 400 -14 556 -14 q 145 90 237 -14 q 53 359 53 194 l 53 374 q 145 633 53 532 q 399 734 237 734 l 788 734 l 788 581 m 251 359 q 286 198 251 259 q 400 138 321 138 q 505 199 471 138 q 538 359 538 260 l 538 374 q 504 523 538 465 q 399 581 471 581 q 287 523 322 581 q 251 374 251 465 l 251 359 z "},"τ":{"ha":669,"x_min":25,"x_max":633,"o":"m 633 734 l 633 583 l 424 583 l 424 218 q 439 157 424 174 q 486 140 454 140 q 517 142 505 140 q 551 152 528 144 l 572 9 q 511 -9 540 -4 q 446 -14 483 -14 q 282 44 339 -14 q 226 220 226 102 l 226 583 l 25 583 l 26 734 l 633 734 z "},"υ":{"ha":818,"x_min":12,"x_max":756,"o":"m 324 283 q 347 172 324 206 q 409 138 370 138 q 518 212 477 138 q 559 384 559 287 q 539 557 557 470 q 490 734 521 645 l 678 734 q 734 575 713 663 q 756 384 756 488 q 671 96 756 207 q 416 -14 586 -14 q 203 60 279 -14 q 127 284 127 134 l 127 532 q 115 575 127 563 q 79 587 103 587 q 57 586 66 587 q 33 580 49 584 l 12 714 q 80 737 38 728 q 163 747 121 747 q 282 707 240 747 q 325 588 325 668 l 324 283 z "},"φ":{"ha":1051,"x_min":60,"x_max":1017,"o":"m 438 -8 q 151 128 241 16 q 60 401 60 240 q 102 597 60 507 q 213 742 144 687 l 349 639 q 282 529 305 592 q 258 401 260 465 q 299 238 258 303 q 434 154 340 172 l 438 155 l 438 541 q 500 684 438 625 q 650 743 562 743 q 921 634 825 743 q 1017 378 1017 525 q 925 119 1017 227 q 636 -9 834 12 l 636 -324 l 438 -324 l 438 -8 m 636 153 l 640 151 q 776 229 734 168 q 819 378 819 290 q 779 531 817 471 q 673 590 741 590 q 643 578 650 590 q 636 547 636 566 l 636 153 z "},"χ":{"ha":808,"x_min":22,"x_max":788,"o":"m 22 119 l 90 130 l 288 368 l 97 603 l 28 614 l 28 734 l 225 733 l 410 475 l 512 611 l 444 619 l 444 734 l 775 734 l 775 614 l 709 603 l 520 372 l 719 130 l 788 119 l 788 0 l 595 0 l 397 265 l 290 121 l 349 114 l 349 0 l 22 0 l 22 119 z "},"ψ":{"ha":1126,"x_min":20,"x_max":1078,"o":"m 332 398 q 374 232 332 292 q 489 157 416 173 l 493 158 l 493 734 l 691 734 l 691 153 l 695 152 q 836 235 791 169 q 880 401 880 302 q 860 563 879 481 q 807 734 840 645 l 991 734 q 1054 583 1029 667 q 1078 401 1078 500 q 986 124 1078 237 q 691 -9 893 11 l 691 -324 l 493 -324 l 493 -7 q 228 117 321 16 q 134 400 134 217 l 134 533 q 122 575 134 563 q 86 588 111 588 q 68 587 74 588 q 40 580 63 585 l 20 715 q 87 738 45 728 q 170 747 129 747 q 290 708 248 747 q 332 589 332 669 l 332 398 z "},"ω":{"ha":1149,"x_min":68,"x_max":1099,"o":"m 359 734 q 293 558 317 646 q 267 384 269 471 q 291 207 267 277 q 372 138 316 138 q 450 184 420 138 q 480 332 480 231 l 480 567 l 688 567 l 688 332 q 718 184 688 231 q 796 138 747 138 q 877 207 852 138 q 902 384 902 277 q 875 558 899 471 q 809 734 851 646 l 998 734 q 1071 575 1043 663 q 1099 384 1099 488 q 1030 94 1099 201 q 803 -14 960 -14 q 672 22 728 -14 q 584 128 616 58 q 495 22 551 58 q 366 -14 439 -14 q 138 94 208 -14 q 68 384 68 202 q 96 575 68 488 q 170 734 124 663 l 359 734 z "},"ϑ":{"ha":937,"x_min":74,"x_max":876,"o":"m 479 144 q 615 204 565 144 q 667 370 665 264 q 449 459 536 379 q 361 656 361 539 l 361 726 q 434 927 361 852 q 624 1002 507 1002 q 808 928 740 1002 q 876 726 876 854 l 876 377 q 766 93 876 200 q 479 -14 657 -14 q 186 97 298 -14 q 74 377 74 208 l 74 849 l 283 850 l 283 377 q 335 209 283 274 q 479 144 388 144 m 549 655 q 580 560 549 599 q 663 516 610 522 l 667 517 l 667 745 q 653 811 667 789 q 613 833 640 833 q 567 811 584 833 q 549 745 549 788 l 549 655 z "},"ϒ":{"ha":867,"x_min":25,"x_max":859,"o":"m 557 816 q 649 962 598 920 q 789 1004 701 1004 q 827 1001 810 1004 q 859 991 844 998 l 842 840 q 828 842 840 841 q 808 844 816 844 q 764 826 783 844 q 732 779 745 808 l 538 323 l 538 0 l 340 0 l 340 334 l 151 779 q 119 826 138 808 q 75 844 100 844 q 55 842 67 844 q 41 840 43 841 l 25 991 q 56 1001 39 998 q 95 1004 73 1004 q 235 964 184 1004 q 326 821 286 924 l 427 559 l 439 498 l 444 498 l 456 559 l 557 816 z "},"ϖ":{"ha":1209,"x_min":59,"x_max":1192,"o":"m 1192 597 l 1105 597 q 1131 495 1121 548 q 1140 384 1140 441 q 1073 94 1140 201 q 852 -14 1005 -14 q 714 23 773 -14 q 623 132 656 60 q 529 23 588 60 q 393 -14 471 -14 q 172 94 239 -14 q 104 384 104 202 q 114 495 104 442 q 140 597 123 549 l 59 597 l 59 734 l 1192 734 l 1192 597 m 943 384 q 931 490 941 436 q 905 597 922 543 l 340 597 q 313 490 322 544 q 302 384 303 437 q 325 207 302 276 q 400 138 347 138 q 486 184 453 138 q 519 332 519 231 l 519 471 l 726 471 l 726 332 q 759 184 726 231 q 844 138 791 138 q 920 207 897 138 q 943 384 943 276 z "},"Ђ":{"ha":1086,"x_min":32,"x_max":1053,"o":"m 875 737 l 723 737 l 715 835 l 522 835 l 522 583 q 609 600 568 594 q 688 606 650 606 q 955 527 857 606 q 1053 299 1053 448 q 966 77 1053 164 q 694 -8 880 -10 l 690 -7 l 690 132 q 822 176 787 132 q 856 290 856 220 q 812 409 855 366 q 688 452 768 452 q 603 448 643 452 q 522 436 562 444 l 522 139 l 608 119 l 608 0 l 218 0 l 218 119 l 323 139 l 323 835 l 191 835 l 183 737 l 32 737 l 32 987 l 875 987 l 875 737 z "},"Є":{"ha":882,"x_min":12,"x_max":823,"o":"m 823 655 l 676 655 l 656 787 q 582 833 627 816 q 477 850 538 850 q 295 774 363 850 q 216 576 227 699 l 218 572 l 576 572 l 576 419 l 218 419 l 216 415 q 293 214 226 290 q 474 138 361 138 q 581 155 532 138 q 656 201 629 172 l 676 333 l 823 333 l 823 138 q 671 27 764 68 q 464 -14 578 -14 q 138 124 265 -14 q 12 477 12 262 l 12 511 q 138 864 12 726 q 464 1002 264 1002 q 671 961 578 1002 q 823 850 763 919 l 823 655 z "},"Љ":{"ha":1472,"x_min":31,"x_max":1432,"o":"m 997 987 l 997 868 l 892 848 l 892 642 l 1061 642 q 1331 552 1231 642 q 1432 321 1432 463 q 1331 90 1432 179 q 1061 0 1231 0 l 694 0 l 694 835 l 432 835 l 432 538 q 340 126 432 252 q 60 0 248 0 l 31 0 l 31 152 l 58 152 q 197 236 160 152 q 234 538 234 319 l 234 848 l 128 868 l 128 987 l 892 987 l 997 987 m 892 490 l 892 152 l 1061 152 q 1189 201 1144 152 q 1234 323 1234 251 q 1189 441 1234 392 q 1061 490 1144 490 l 892 490 z "},"Њ":{"ha":1523,"x_min":44,"x_max":1488,"o":"m 44 119 l 149 139 l 149 848 l 44 868 l 44 987 l 453 987 l 453 868 l 347 848 l 347 570 l 749 570 l 749 848 l 644 868 l 644 987 l 749 987 l 947 987 l 1053 987 l 1053 868 l 947 848 l 947 630 l 1117 630 q 1388 543 1287 630 q 1488 316 1488 455 q 1387 88 1488 176 q 1117 0 1286 0 l 644 0 l 644 119 l 749 139 l 749 418 l 347 418 l 347 139 l 453 119 l 453 0 l 44 0 l 44 119 m 947 477 l 947 155 l 1117 155 q 1245 201 1200 155 q 1290 317 1290 248 q 1245 431 1290 385 q 1117 477 1200 477 l 947 477 z "},"Ћ":{"ha":1181,"x_min":35,"x_max":1158,"o":"m 858 737 l 707 737 l 699 835 l 518 835 l 518 616 q 599 626 558 622 q 672 629 640 629 q 953 550 853 629 q 1053 307 1053 471 l 1053 140 l 1158 119 l 1158 0 l 749 0 l 749 119 l 854 140 l 854 307 q 811 439 854 402 q 672 477 768 477 q 598 473 640 477 q 518 463 556 469 l 518 139 l 623 119 l 623 0 l 214 0 l 214 119 l 320 139 l 320 835 l 194 835 l 186 737 l 35 737 l 35 987 l 858 987 l 858 737 z "},"Џ":{"ha":1086,"x_min":44,"x_max":1053,"o":"m 1053 868 l 948 848 l 948 139 l 1053 119 l 1053 0 l 656 0 l 656 -244 l 458 -244 l 458 0 l 44 0 l 44 119 l 149 139 l 149 848 l 44 868 l 44 987 l 347 987 l 452 987 l 452 868 l 347 848 l 347 152 l 749 152 l 749 848 l 644 868 l 644 987 l 1053 987 l 1053 868 z "},"Б":{"ha":928,"x_min":43,"x_max":890,"o":"m 43 119 l 149 139 l 149 848 l 43 868 l 43 987 l 792 987 l 792 737 l 640 737 l 632 835 l 349 835 l 349 622 l 519 622 q 790 538 690 622 q 890 315 890 454 q 789 86 890 173 q 519 0 689 0 l 43 0 l 43 119 m 349 469 l 349 152 l 519 152 q 647 198 602 152 q 692 316 692 245 q 648 427 692 384 q 519 469 603 469 l 349 469 z "},"Д":{"ha":1068,"x_min":28,"x_max":1029,"o":"m 1011 -243 l 831 -243 l 831 0 l 226 0 l 226 -243 l 43 -243 l 28 152 l 104 152 q 197 295 157 197 q 243 583 236 393 l 261 849 l 165 868 l 165 987 l 1018 987 l 1018 868 l 913 848 l 913 152 l 1029 152 l 1011 -243 m 441 583 q 406 329 435 433 q 329 152 376 224 l 715 152 l 715 835 l 458 835 l 441 583 z "},"Ж":{"ha":1458,"x_min":26,"x_max":1434,"o":"m 511 404 l 361 126 l 399 119 l 399 0 l 26 0 l 26 119 l 125 133 l 359 536 l 234 739 q 177 804 201 787 q 125 822 153 822 q 99 820 110 822 q 74 814 87 817 l 45 962 q 99 987 68 978 q 166 997 130 997 q 284 965 239 997 q 378 850 329 932 l 531 584 l 633 584 l 633 848 l 528 868 l 528 987 l 831 987 l 937 987 l 937 868 l 831 848 l 831 584 l 933 584 l 1084 850 q 1175 965 1131 932 q 1294 997 1220 997 q 1360 987 1329 997 q 1416 962 1390 978 l 1388 814 q 1362 820 1374 817 q 1337 822 1351 822 q 1284 804 1308 822 q 1229 739 1261 787 l 1103 534 l 1332 133 l 1434 119 l 1434 0 l 1057 0 l 1057 119 l 1096 126 l 949 404 l 831 404 l 831 139 l 937 119 l 937 0 l 528 0 l 528 119 l 633 139 l 633 404 l 511 404 z "},"З":{"ha":828,"x_min":36,"x_max":781,"o":"m 412 578 q 530 614 492 578 q 568 717 568 651 q 523 812 568 774 q 388 849 478 849 q 285 832 330 849 q 214 786 241 814 l 194 663 l 47 663 l 47 850 q 197 960 104 918 q 401 1002 289 1002 q 667 928 570 1002 q 765 720 765 855 q 724 595 765 652 q 612 507 684 539 q 737 419 694 478 q 781 277 781 361 q 675 63 781 140 q 401 -14 570 -14 q 144 58 253 -14 q 39 270 36 131 l 41 274 l 233 274 q 280 177 233 216 q 401 138 328 138 q 534 177 485 138 q 583 279 583 217 q 540 393 583 357 q 412 429 497 429 l 292 429 l 292 578 l 412 578 z "},"И":{"ha":1088,"x_min":47,"x_max":1056,"o":"m 456 987 l 456 868 l 350 848 l 350 391 l 354 389 l 752 793 l 752 848 l 647 868 l 647 987 l 752 987 l 951 987 l 1056 987 l 1056 868 l 951 848 l 951 139 l 1056 119 l 1056 0 l 647 0 l 647 119 l 752 139 l 752 585 l 748 587 l 350 182 l 350 139 l 456 119 l 456 0 l 47 0 l 47 119 l 153 139 l 153 848 l 47 868 l 47 987 l 153 987 l 350 987 l 456 987 z "},"К":{"ha":993,"x_min":38,"x_max":977,"o":"m 38 119 l 143 139 l 143 848 l 38 868 l 38 987 l 441 987 l 441 868 l 341 848 l 341 584 l 430 584 l 615 850 q 720 965 674 933 q 840 997 765 997 q 905 987 875 997 q 960 962 935 978 l 926 814 q 897 820 905 819 q 876 822 889 822 q 818 804 844 822 q 754 739 791 787 l 600 527 l 873 136 l 977 119 l 977 0 l 585 0 l 585 119 l 642 127 l 457 404 l 341 404 l 341 139 l 441 119 l 441 0 l 38 0 l 38 119 z "},"Л":{"ha":1035,"x_min":33,"x_max":998,"o":"m 417 835 l 414 538 q 331 125 411 250 q 81 0 250 0 l 33 0 l 33 152 l 59 152 q 182 239 151 159 q 216 538 214 319 l 220 848 l 116 868 l 116 987 l 892 987 l 998 987 l 998 868 l 892 848 l 892 139 l 998 119 l 998 0 l 589 0 l 589 119 l 695 139 l 695 835 l 417 835 z "},"У":{"ha":954,"x_min":27,"x_max":940,"o":"m 940 868 l 844 855 l 562 187 q 460 38 519 90 q 294 -14 402 -14 q 255 -13 277 -14 q 223 -11 234 -12 l 222 140 q 248 138 229 139 q 275 138 266 138 q 356 161 329 138 q 401 233 382 185 l 416 271 l 132 854 l 27 868 l 27 987 l 390 987 l 390 868 l 340 859 l 484 549 l 499 496 l 503 496 l 640 857 l 581 868 l 581 987 l 940 987 l 940 868 z "},"Ф":{"ha":1107,"x_min":42,"x_max":1082,"o":"m 359 52 l 465 72 l 465 122 l 460 122 q 158 222 274 122 q 42 488 42 322 q 158 759 42 656 q 460 863 275 863 l 465 863 l 465 916 l 359 936 l 359 1046 l 465 1046 l 662 1046 l 768 1046 l 768 936 l 662 916 l 662 863 l 664 863 q 966 760 849 863 q 1082 489 1082 657 q 965 223 1082 323 q 664 122 848 122 l 662 122 l 662 72 l 768 52 l 768 -58 l 359 -58 l 359 52 m 460 726 q 296 664 355 726 q 236 488 236 602 q 296 317 236 376 q 460 258 355 258 l 465 258 l 465 726 l 460 726 m 662 726 l 662 258 l 665 258 q 829 318 769 258 q 888 489 888 378 q 829 665 888 604 q 665 726 769 726 l 662 726 z "},"Ц":{"ha":1108,"x_min":44,"x_max":1086,"o":"m 1053 868 l 948 848 l 948 151 l 1086 151 l 1076 -238 l 889 -238 l 889 0 l 44 0 l 44 119 l 149 139 l 149 848 l 44 868 l 44 987 l 149 987 l 347 987 l 452 987 l 452 868 l 347 848 l 347 152 l 749 152 l 749 848 l 644 868 l 644 987 l 1053 987 l 1053 868 z "},"Ч":{"ha":1053,"x_min":30,"x_max":1020,"o":"m 611 119 l 716 139 l 716 380 q 615 364 671 370 q 516 358 559 358 q 235 437 334 358 q 136 680 136 515 l 136 848 l 30 868 l 30 987 l 333 987 l 439 987 l 439 868 l 333 848 l 333 680 q 376 547 333 584 q 516 511 420 511 q 615 516 558 511 q 716 533 671 522 l 716 848 l 611 868 l 611 987 l 716 987 l 914 987 l 1020 987 l 1020 868 l 914 848 l 914 139 l 1020 119 l 1020 0 l 611 0 l 611 119 z "},"Ш":{"ha":1434,"x_min":47,"x_max":1407,"o":"m 47 119 l 153 139 l 153 848 l 47 868 l 47 987 l 351 987 l 456 987 l 456 868 l 351 848 l 351 152 l 630 152 l 630 848 l 524 868 l 524 987 l 932 987 l 932 868 l 827 848 l 827 152 l 1104 152 l 1104 848 l 998 868 l 998 987 l 1104 987 l 1301 987 l 1407 987 l 1407 868 l 1301 848 l 1301 139 l 1407 119 l 1407 0 l 47 0 l 47 119 z "},"Щ":{"ha":1445,"x_min":47,"x_max":1428,"o":"m 1407 987 l 1407 868 l 1301 848 l 1301 152 l 1428 152 l 1415 -237 l 1231 -237 l 1231 0 l 47 0 l 47 119 l 153 139 l 153 848 l 47 868 l 47 987 l 153 987 l 351 987 l 456 987 l 456 868 l 351 848 l 351 152 l 630 152 l 630 848 l 524 868 l 524 987 l 630 987 l 932 987 l 932 868 l 827 848 l 827 152 l 1104 152 l 1104 848 l 998 868 l 998 987 l 1104 987 l 1301 987 l 1407 987 z "},"Ъ":{"ha":1178,"x_min":37,"x_max":1194,"o":"m 653 987 l 759 987 l 759 868 l 653 848 l 653 622 l 823 622 q 1094 538 994 622 q 1194 315 1194 454 q 1093 86 1194 173 q 823 0 993 0 l 349 0 l 349 119 l 455 139 l 455 835 l 195 835 l 188 738 l 37 738 l 37 987 l 653 987 m 653 469 l 653 152 l 823 152 q 951 198 906 152 q 996 316 996 245 q 951 427 996 384 q 823 469 907 469 l 653 469 z "},"Ы":{"ha":1316,"x_min":33,"x_max":1285,"o":"m 336 987 l 336 622 l 506 622 q 777 538 677 622 q 877 315 877 454 q 777 86 877 173 q 506 0 676 0 l 33 0 l 33 119 l 138 139 l 138 848 l 33 868 l 33 987 l 138 987 l 336 987 m 876 119 l 982 139 l 982 848 l 876 868 l 876 987 l 1285 987 l 1285 868 l 1179 848 l 1179 139 l 1285 119 l 1285 0 l 876 0 l 876 119 m 336 469 l 336 152 l 506 152 q 634 198 589 152 q 680 316 680 245 q 635 427 680 384 q 506 469 590 469 l 336 469 m 442 987 l 442 868 l 336 848 l 336 987 l 442 987 z "},"Ь":{"ha":922,"x_min":45,"x_max":890,"o":"m 349 987 l 349 622 l 519 622 q 790 538 690 622 q 890 315 890 454 q 789 86 890 173 q 519 0 689 0 l 45 0 l 45 119 l 151 139 l 151 848 l 45 868 l 45 987 l 151 987 l 349 987 m 349 469 l 349 152 l 519 152 q 647 198 602 152 q 692 316 692 245 q 648 427 692 384 q 519 469 603 469 l 349 469 m 455 987 l 455 868 l 349 848 l 349 987 l 455 987 z "},"Э":{"ha":860,"x_min":32,"x_max":835,"o":"m 32 850 q 184 960 92 919 q 392 1002 277 1002 q 712 864 590 1002 q 835 510 835 727 l 835 477 q 712 123 835 260 q 392 -14 589 -14 q 184 27 277 -14 q 32 137 92 68 l 32 332 l 179 332 l 199 201 q 274 155 225 172 q 382 138 322 138 q 557 213 492 138 q 631 413 621 288 l 630 416 l 285 416 l 285 570 l 630 570 l 631 573 q 557 774 621 699 q 378 849 492 849 q 272 832 317 849 q 199 786 228 815 l 179 655 l 32 655 l 32 850 z "},"Ю":{"ha":1342,"x_min":13,"x_max":1303,"o":"m 13 868 l 13 987 l 422 987 l 422 868 l 316 848 l 316 549 l 410 549 q 545 874 425 747 q 854 1001 666 1001 q 1179 859 1055 1001 q 1303 500 1303 716 l 1303 486 q 1179 127 1303 269 q 854 -15 1055 -15 q 557 99 676 -15 q 414 397 439 214 l 316 397 l 316 139 l 422 119 l 422 0 l 13 0 l 13 119 l 119 139 l 119 848 l 13 868 m 1106 502 q 1042 751 1106 655 q 854 846 979 846 q 668 751 729 846 q 606 502 606 656 l 606 486 q 668 234 606 330 q 854 139 730 139 q 1043 234 980 139 q 1106 486 1106 330 l 1106 502 z "},"Я":{"ha":934,"x_min":45,"x_max":905,"o":"m 905 987 l 905 868 l 800 848 l 800 139 l 905 119 l 905 0 l 602 0 l 602 371 l 471 371 l 379 157 q 289 36 342 79 q 162 -6 235 -6 q 98 3 127 -6 q 45 27 68 12 l 71 176 q 94 170 84 172 q 117 168 104 168 q 171 185 146 168 q 221 247 195 201 l 298 410 q 145 515 196 449 q 94 684 94 582 q 191 909 94 830 q 457 987 287 987 l 800 987 l 905 987 m 292 676 q 334 558 292 600 q 457 515 376 515 l 602 515 l 602 835 l 457 835 q 333 794 375 835 q 292 676 292 753 m 496 0 l 496 119 l 602 139 l 602 0 l 496 0 z "},"б":{"ha":795,"x_min":60,"x_max":753,"o":"m 423 693 q 665 598 578 693 q 753 351 753 503 l 753 337 q 661 83 753 181 q 407 -14 569 -14 q 152 85 244 -14 q 60 341 60 185 l 60 435 q 155 808 61 677 q 399 968 248 939 q 497 997 465 979 q 528 1056 528 1015 l 682 1056 l 684 1052 q 623 878 686 920 q 408 811 560 835 q 287 751 332 798 q 229 621 242 705 l 232 618 q 319 672 269 651 q 423 693 369 693 m 406 541 q 294 488 329 541 q 258 351 258 435 l 258 341 q 294 194 258 250 q 407 138 329 138 q 519 192 484 138 q 555 337 555 247 l 555 351 q 519 488 555 435 q 406 541 483 541 z "},"в":{"ha":869,"x_min":62,"x_max":822,"o":"m 474 734 q 702 682 621 734 q 784 529 784 631 q 750 437 784 477 q 652 376 715 397 q 779 315 736 360 q 822 210 822 270 q 744 53 822 106 q 522 0 667 0 l 62 0 l 62 119 l 168 139 l 168 594 l 62 614 l 62 734 l 168 734 l 474 734 m 365 306 l 365 151 l 522 151 q 599 170 574 151 q 624 227 624 189 q 600 286 624 265 q 522 306 576 306 l 365 306 m 365 435 l 485 435 q 562 453 537 435 q 586 505 586 471 q 558 564 586 545 q 474 583 530 583 l 365 583 l 365 435 z "},"г":{"ha":738,"x_min":41,"x_max":684,"o":"m 146 594 l 41 614 l 41 734 l 684 734 l 684 475 l 559 475 l 551 581 l 344 581 l 344 139 l 449 119 l 449 0 l 41 0 l 41 119 l 146 139 l 146 594 z "},"д":{"ha":914,"x_min":33,"x_max":866,"o":"m 97 153 q 189 292 165 224 q 215 486 212 360 l 216 594 l 113 614 l 113 734 l 760 734 l 865 734 l 865 614 l 760 594 l 760 152 l 866 152 l 852 -220 l 668 -220 l 668 0 l 235 0 l 235 -220 l 50 -220 l 33 153 l 97 153 m 413 486 q 385 295 408 377 q 323 153 361 212 l 563 153 l 563 576 l 414 576 l 413 486 z "},"ж":{"ha":1255,"x_min":27,"x_max":1228,"o":"m 444 119 l 528 139 l 528 275 l 442 275 l 301 0 l 27 0 l 27 119 l 127 134 l 283 393 l 197 526 q 159 566 181 551 q 116 581 136 581 q 96 579 102 581 q 71 573 90 578 l 38 710 q 92 736 64 726 q 153 745 119 745 q 267 713 221 745 q 353 617 313 681 l 451 454 l 528 454 l 528 594 l 444 614 l 444 734 l 811 734 l 811 614 l 726 594 l 726 454 l 805 454 l 903 617 q 988 713 942 681 q 1103 745 1034 745 q 1164 736 1137 745 q 1218 710 1191 726 l 1185 573 q 1160 579 1166 578 q 1140 581 1154 581 q 1097 566 1119 581 q 1059 526 1074 551 l 973 393 l 1127 134 l 1228 119 l 1228 0 l 954 0 l 814 275 l 726 275 l 726 139 l 811 119 l 811 0 l 444 0 l 444 119 z "},"з":{"ha":720,"x_min":45,"x_max":667,"o":"m 359 438 q 433 459 410 438 q 457 519 457 480 q 434 578 457 554 q 360 603 412 603 q 282 581 312 603 q 253 523 253 559 l 61 523 l 60 527 q 140 686 56 625 q 350 747 224 747 q 573 691 491 747 q 654 533 654 635 q 625 443 654 484 q 542 378 595 401 q 635 313 603 356 q 667 208 667 270 q 579 45 667 104 q 350 -14 492 -14 q 135 45 224 -14 q 49 213 45 103 l 50 217 l 241 217 q 273 154 241 179 q 361 129 304 129 q 443 155 416 129 q 470 220 470 182 q 443 290 470 268 q 359 312 416 312 l 254 312 l 254 438 l 359 438 z "},"и":{"ha":961,"x_min":58,"x_max":907,"o":"m 456 734 l 456 614 l 361 594 l 361 288 l 366 288 l 604 734 l 802 734 l 907 734 l 907 614 l 802 594 l 802 139 l 907 119 l 907 0 l 509 0 l 509 119 l 604 139 l 604 446 l 600 447 l 361 0 l 58 0 l 58 119 l 163 139 l 163 594 l 58 614 l 58 734 l 361 734 l 456 734 z "},"к":{"ha":902,"x_min":62,"x_max":873,"o":"m 62 614 l 62 734 l 455 734 l 455 614 l 365 594 l 365 454 l 433 454 l 543 617 q 629 713 584 681 q 743 745 675 745 q 804 736 777 745 q 857 710 831 726 l 824 573 q 799 580 804 578 q 780 581 793 581 q 737 566 760 581 q 698 526 714 550 l 603 388 l 773 135 l 873 119 l 873 0 l 601 0 l 441 275 l 365 275 l 365 139 l 455 119 l 455 0 l 62 0 l 62 119 l 168 139 l 168 594 l 62 614 z "},"л":{"ha":905,"x_min":50,"x_max":857,"o":"m 448 119 l 554 139 l 554 581 l 378 581 l 378 421 q 311 102 378 204 q 83 0 244 0 l 52 0 l 50 156 l 71 157 q 159 212 139 157 q 180 421 180 268 l 180 594 l 74 614 l 74 734 l 751 734 l 857 734 l 857 614 l 751 594 l 751 139 l 857 119 l 857 0 l 448 0 l 448 119 z "},"м":{"ha":1196,"x_min":62,"x_max":1145,"o":"m 600 231 l 604 231 l 792 734 l 1040 734 l 1145 734 l 1145 614 l 1040 594 l 1040 139 l 1145 119 l 1145 0 l 768 0 l 768 119 l 842 139 l 842 437 l 838 437 l 668 0 l 535 0 l 369 429 l 365 429 l 365 139 l 440 119 l 440 0 l 62 0 l 62 119 l 168 139 l 168 594 l 62 614 l 62 734 l 168 734 l 412 734 l 600 231 z "},"н":{"ha":960,"x_min":58,"x_max":906,"o":"m 58 614 l 58 734 l 446 734 l 446 614 l 361 594 l 361 437 l 602 437 l 602 594 l 517 614 l 517 734 l 602 734 l 800 734 l 906 734 l 906 614 l 800 594 l 800 139 l 906 119 l 906 0 l 517 0 l 517 119 l 602 139 l 602 285 l 361 285 l 361 139 l 446 119 l 446 0 l 58 0 l 58 119 l 163 139 l 163 594 l 58 614 z "},"п":{"ha":961,"x_min":58,"x_max":907,"o":"m 58 119 l 163 139 l 163 594 l 58 614 l 58 734 l 907 734 l 907 614 l 802 594 l 802 139 l 907 119 l 907 0 l 519 0 l 519 119 l 604 139 l 604 581 l 361 581 l 361 139 l 446 119 l 446 0 l 58 0 l 58 119 z "},"т":{"ha":843,"x_min":37,"x_max":804,"o":"m 804 734 l 804 484 l 652 484 l 644 583 l 518 583 l 518 139 l 623 119 l 623 0 l 214 0 l 214 119 l 319 139 l 319 583 l 197 583 l 189 484 l 37 484 l 37 734 l 804 734 z "},"ф":{"ha":1012,"x_min":50,"x_max":973,"o":"m 609 1058 l 609 728 q 652 742 629 737 q 702 747 675 747 q 902 641 831 747 q 973 361 973 534 l 973 347 q 902 85 973 184 q 703 -14 831 -14 q 653 -9 677 -14 q 609 3 630 -5 l 609 -142 l 714 -163 l 714 -282 l 306 -282 l 306 -163 l 411 -142 l 411 3 q 368 -10 391 -5 q 320 -14 345 -14 q 121 85 191 -14 q 50 347 50 184 l 50 361 q 121 641 50 534 q 321 747 192 747 q 369 743 347 747 q 411 730 391 738 l 411 918 l 306 939 l 306 1058 l 411 1058 l 609 1058 m 775 361 q 745 530 775 465 q 650 595 714 595 q 628 593 638 595 q 609 590 618 592 l 609 142 q 629 139 618 140 q 652 138 640 138 q 746 194 716 138 q 775 347 775 250 l 775 361 m 248 347 q 276 194 248 250 q 370 138 304 138 q 391 138 380 138 q 411 141 401 139 l 411 591 q 392 594 401 593 q 372 595 382 595 q 277 530 307 595 q 248 361 248 466 l 248 347 z "},"ц":{"ha":941,"x_min":34,"x_max":889,"o":"m 779 734 l 779 151 l 889 151 l 876 -218 l 692 -218 l 692 0 l 34 0 l 34 119 l 140 139 l 140 594 l 34 614 l 34 734 l 140 734 l 337 734 l 427 734 l 427 614 l 337 594 l 337 152 l 580 152 l 580 594 l 490 614 l 490 734 l 580 734 l 779 734 m 884 734 l 884 614 l 779 594 l 779 734 l 884 734 z "},"ч":{"ha":932,"x_min":33,"x_max":880,"o":"m 421 734 l 421 615 l 336 595 l 336 503 q 368 403 336 431 q 476 375 400 375 q 526 378 501 375 q 576 386 551 380 l 576 594 l 491 614 l 491 734 l 880 734 l 880 614 l 774 594 l 774 139 l 880 119 l 880 0 l 471 0 l 471 119 l 576 139 l 576 233 q 525 225 551 227 q 476 222 499 222 q 226 292 314 222 q 138 503 138 361 l 138 595 l 33 615 l 33 734 l 336 734 l 421 734 z "},"ш":{"ha":1307,"x_min":58,"x_max":1262,"o":"m 58 614 l 58 734 l 361 734 l 467 734 l 467 614 l 361 594 l 361 152 l 561 152 l 561 734 l 759 734 l 759 152 l 959 152 l 959 594 l 853 614 l 853 734 l 1156 734 l 1262 734 l 1262 614 l 1156 594 l 1156 139 l 1262 119 l 1262 0 l 58 0 l 58 119 l 163 139 l 163 594 l 58 614 z "},"щ":{"ha":1317,"x_min":56,"x_max":1270,"o":"m 1260 614 l 1154 594 l 1154 152 l 1270 152 l 1256 -218 l 1072 -218 l 1072 0 l 56 0 l 56 119 l 161 139 l 161 594 l 56 614 l 56 734 l 161 734 l 359 734 l 465 734 l 465 614 l 359 594 l 359 152 l 559 152 l 559 734 l 757 734 l 757 152 l 957 152 l 957 594 l 851 614 l 851 734 l 1260 734 l 1260 614 z "},"ъ":{"ha":969,"x_min":26,"x_max":972,"o":"m 186 581 l 178 484 l 26 484 l 26 734 l 623 734 l 623 614 l 517 594 l 517 497 l 654 497 q 888 430 804 497 q 972 252 972 363 q 888 69 972 138 q 654 0 803 0 l 213 0 l 213 119 l 319 139 l 319 581 l 186 581 m 517 354 l 517 151 l 654 151 q 745 179 715 151 q 775 251 775 206 q 746 326 775 297 q 654 354 716 354 l 517 354 z "},"ы":{"ha":1238,"x_min":62,"x_max":1222,"o":"m 366 734 l 366 497 l 503 497 q 737 430 652 497 q 821 252 821 363 q 736 69 821 138 q 503 0 652 0 l 62 0 l 62 119 l 168 139 l 168 594 l 62 614 l 62 734 l 168 734 l 366 734 m 823 614 l 823 734 l 1127 734 l 1127 139 l 1222 119 l 1222 0 l 833 0 l 833 119 l 929 139 l 929 594 l 823 614 m 366 354 l 366 151 l 503 151 q 594 179 564 151 q 624 251 624 206 q 594 326 624 297 q 503 354 565 354 l 366 354 m 471 734 l 471 614 l 366 594 l 366 734 l 471 734 z "},"ь":{"ha":850,"x_min":62,"x_max":821,"o":"m 366 734 l 366 497 l 503 497 q 737 430 652 497 q 821 252 821 363 q 736 69 821 138 q 503 0 652 0 l 62 0 l 62 119 l 168 139 l 168 594 l 62 614 l 62 734 l 168 734 l 366 734 m 366 354 l 366 151 l 503 151 q 594 179 564 151 q 624 251 624 206 q 594 326 624 297 q 503 354 565 354 l 366 354 m 471 734 l 471 614 l 366 594 l 366 734 l 471 734 z "},"э":{"ha":731,"x_min":45,"x_max":688,"o":"m 346 138 q 448 184 415 138 q 486 307 481 231 l 484 311 l 297 311 l 297 429 l 483 429 l 484 433 q 443 550 478 505 q 337 595 408 595 q 280 586 307 595 q 240 565 254 577 l 218 463 l 58 463 l 60 646 q 177 720 102 692 q 337 747 251 747 q 596 643 505 747 q 688 376 688 538 l 688 356 q 599 90 688 193 q 346 -14 510 -14 q 131 61 218 -14 q 48 247 45 136 l 50 251 l 230 251 q 261 169 230 199 q 346 138 292 138 z "},"ю":{"ha":1187,"x_min":48,"x_max":1140,"o":"m 58 119 l 154 139 l 154 594 l 48 614 l 48 734 l 352 734 l 352 450 l 453 450 q 562 666 473 584 q 793 747 651 747 q 1048 643 956 747 q 1140 374 1140 538 l 1140 359 q 1048 90 1140 194 q 795 -14 956 -14 q 558 71 648 -14 q 451 297 468 156 l 352 297 l 352 139 l 447 119 l 447 0 l 58 0 l 58 119 m 646 359 q 681 198 646 259 q 795 138 716 138 q 907 199 871 138 q 943 359 943 260 l 943 374 q 907 533 943 471 q 793 595 871 595 q 681 533 716 595 q 646 374 646 471 l 646 359 z "},"я":{"ha":890,"x_min":62,"x_max":844,"o":"m 446 119 l 541 139 l 541 257 l 422 257 l 279 0 l 62 0 l 62 119 l 152 132 l 240 290 q 137 372 173 319 q 101 490 101 424 q 186 666 101 597 q 415 734 271 734 l 739 734 l 844 734 l 844 614 l 739 594 l 739 139 l 844 119 l 844 0 l 446 0 l 446 119 m 298 485 q 328 419 298 447 q 412 391 357 391 l 541 391 l 541 583 l 415 583 q 329 553 359 583 q 298 485 298 523 z "},"ђ":{"ha":884,"x_min":-10,"x_max":768,"o":"m 459 791 l 327 791 l 327 641 q 412 719 361 691 q 523 747 462 747 q 703 671 637 747 q 768 435 768 595 l 768 -27 q 700 -226 768 -156 q 510 -296 631 -296 q 459 -294 482 -296 q 412 -285 436 -291 l 421 -135 q 454 -141 437 -139 q 489 -144 471 -144 q 549 -114 528 -144 q 570 -27 570 -83 l 570 437 q 540 558 570 522 q 450 593 510 593 q 378 579 410 593 q 327 538 347 564 l 327 139 l 412 119 l 412 0 l 34 0 l 34 119 l 129 139 l 129 791 l -10 791 l -10 885 l 129 885 l 129 932 l 24 952 l 24 1058 l 327 1058 l 327 885 l 459 885 l 459 791 z "},"є":{"ha":751,"x_min":56,"x_max":698,"o":"m 397 138 q 482 169 450 138 q 514 251 514 199 l 693 251 l 695 247 q 612 61 698 136 q 397 -14 526 -14 q 144 90 233 -14 q 56 356 56 193 l 56 376 q 147 643 56 538 q 407 747 238 747 q 566 721 496 747 q 684 646 637 694 l 686 450 l 526 450 l 493 565 q 456 586 478 578 q 407 595 435 595 q 297 547 332 595 q 258 422 262 498 l 260 418 l 457 418 l 457 300 l 261 300 l 260 296 q 297 181 264 224 q 397 138 330 138 z "},"љ":{"ha":1222,"x_min":41,"x_max":1192,"o":"m 381 581 l 381 421 q 309 103 381 207 q 75 0 237 0 l 44 0 l 41 154 l 62 154 q 153 219 123 154 q 183 421 183 284 l 183 594 l 78 614 l 78 734 l 737 734 l 842 734 l 842 614 l 737 594 l 737 488 l 875 488 q 1107 421 1023 488 q 1192 245 1192 355 q 1107 67 1192 134 q 875 0 1023 0 l 433 0 l 433 119 l 538 139 l 538 581 l 381 581 m 737 336 l 737 151 l 875 151 q 965 177 936 151 q 995 246 995 203 q 965 311 995 287 q 875 336 936 336 l 737 336 z "},"њ":{"ha":1288,"x_min":58,"x_max":1256,"o":"m 58 119 l 163 139 l 163 594 l 58 614 l 58 734 l 446 734 l 446 614 l 361 594 l 361 451 l 602 451 l 602 594 l 517 614 l 517 734 l 602 734 l 800 734 l 906 734 l 906 614 l 800 594 l 800 488 l 939 488 q 1172 421 1087 488 q 1256 245 1256 355 q 1171 67 1256 134 q 939 0 1086 0 l 517 0 l 517 119 l 602 139 l 602 299 l 361 299 l 361 139 l 446 119 l 446 0 l 58 0 l 58 119 m 800 336 l 800 151 l 939 151 q 1029 177 1000 151 q 1059 246 1059 203 q 1029 311 1059 287 q 939 336 1000 336 l 800 336 z "},"ћ":{"ha":883,"x_min":-1,"x_max":862,"o":"m 32 119 l 127 139 l 127 768 l -1 768 l -1 873 l 127 873 l 127 918 l 22 939 l 22 1058 l 325 1058 l 325 873 l 475 873 l 475 768 l 325 768 l 325 640 q 410 719 359 691 q 521 747 460 747 q 702 671 636 747 q 767 435 767 595 l 767 139 l 862 119 l 862 0 l 484 0 l 484 119 l 569 139 l 569 437 q 539 558 569 522 q 449 593 509 593 q 377 578 408 593 q 325 536 346 564 l 325 139 l 410 119 l 410 0 l 32 0 l 32 119 z "},"џ":{"ha":961,"x_min":58,"x_max":908,"o":"m 582 -243 l 385 -243 l 385 0 l 58 0 l 58 119 l 163 139 l 163 594 l 58 614 l 58 734 l 361 734 l 446 734 l 446 614 l 361 594 l 361 152 l 604 152 l 604 594 l 519 614 l 519 734 l 604 734 l 802 734 l 908 734 l 908 614 l 802 594 l 802 139 l 908 119 l 908 0 l 582 0 l 582 -243 z "},"Ѡ":{"ha":1278,"x_min":85,"x_max":1221,"o":"m 1221 987 l 1221 304 q 1129 68 1221 151 q 888 -14 1037 -14 q 752 13 813 -14 q 653 93 692 40 q 552 13 613 40 q 416 -14 490 -14 q 177 69 268 -14 q 85 304 85 152 l 85 987 l 284 987 l 284 304 q 319 179 284 220 q 416 138 354 138 q 517 179 481 138 q 553 304 553 220 l 553 987 l 753 987 l 753 304 q 789 179 753 220 q 888 138 825 138 q 987 179 952 138 q 1023 304 1023 220 l 1023 987 l 1221 987 z "},"ѡ":{"ha":1160,"x_min":86,"x_max":1107,"o":"m 1107 734 l 1107 295 q 1024 66 1107 146 q 806 -14 942 -14 q 686 9 739 -14 q 597 81 633 33 q 506 9 561 33 q 385 -14 452 -14 q 168 66 250 -14 q 86 295 86 146 l 86 734 l 284 734 l 284 295 q 310 176 284 215 q 385 138 336 138 q 470 176 440 138 q 500 295 500 215 l 500 734 l 699 734 l 699 295 q 725 176 699 214 q 806 138 752 138 q 883 176 857 138 q 909 295 909 215 l 909 734 l 1107 734 z "},"ѣ":{"ha":843,"x_min":60,"x_max":819,"o":"m 364 855 l 537 855 l 537 733 l 364 733 l 364 533 l 502 533 q 734 460 650 533 q 819 268 819 387 q 734 74 819 148 q 502 0 649 0 l 60 0 l 60 119 l 165 139 l 165 733 l 60 733 l 60 855 l 165 855 l 165 919 l 60 939 l 60 1059 l 364 1059 l 364 855 m 364 381 l 364 151 l 502 151 q 592 183 562 151 q 622 267 622 216 q 592 348 622 315 q 502 381 562 381 l 364 381 z "},"Ѥ":{"ha":1297,"x_min":38,"x_max":1249,"o":"m 1249 655 l 1101 655 l 1081 787 q 1007 833 1052 816 q 903 850 963 850 q 719 773 787 850 q 641 572 650 697 l 643 568 l 975 568 l 975 441 l 641 441 l 640 438 q 713 221 645 304 q 899 138 781 138 q 1006 155 958 138 q 1081 201 1055 172 l 1101 333 l 1249 333 l 1249 138 q 1096 27 1189 68 q 889 -14 1004 -14 q 574 113 699 -14 q 437 441 448 240 l 341 441 l 341 139 l 447 119 l 447 0 l 38 0 l 38 119 l 144 139 l 144 848 l 38 868 l 38 987 l 144 987 l 341 987 l 447 987 l 447 868 l 341 848 l 341 568 l 439 568 q 580 882 456 762 q 889 1002 703 1002 q 1096 961 1004 1002 q 1249 850 1188 919 l 1249 655 z "},"ѥ":{"ha":1115,"x_min":45,"x_max":1086,"o":"m 349 429 l 446 429 q 550 659 460 570 q 795 747 640 747 q 954 721 884 747 q 1072 646 1025 694 l 1074 450 l 913 450 l 881 565 q 844 586 866 578 q 795 595 823 595 q 688 549 723 595 q 648 432 652 504 l 649 429 l 817 429 l 817 307 l 648 307 l 647 303 q 683 183 650 229 q 785 138 716 138 q 870 169 838 138 q 902 251 902 199 l 1081 251 l 1083 247 q 1000 61 1086 136 q 785 -14 913 -14 q 547 74 634 -14 q 446 307 459 163 l 349 307 l 349 139 l 444 119 l 444 0 l 55 0 l 55 119 l 151 139 l 151 594 l 45 614 l 45 734 l 151 734 l 349 734 l 349 429 z "},"Ѧ":{"ha":1013,"x_min":35,"x_max":995,"o":"m 35 119 l 111 129 l 414 987 l 618 987 l 919 129 l 995 119 l 995 0 l 652 0 l 652 119 l 713 130 l 655 309 l 594 309 l 594 0 l 428 0 l 428 309 l 374 309 l 316 130 l 378 119 l 378 0 l 35 0 l 35 119 m 420 445 l 610 445 l 517 726 l 513 726 l 420 445 z "},"ѧ":{"ha":848,"x_min":37,"x_max":812,"o":"m 528 216 l 486 216 l 486 0 l 357 0 l 357 216 l 320 216 l 248 0 l 37 0 l 37 119 l 94 128 l 323 734 l 526 734 l 755 128 l 812 119 l 812 0 l 602 0 l 528 216 m 359 332 l 488 332 l 444 459 l 426 536 l 422 536 l 403 459 l 359 332 z "},"Ѩ":{"ha":1408,"x_min":12,"x_max":1411,"o":"m 420 987 l 420 868 l 315 848 l 315 446 l 640 446 l 831 987 l 1034 987 l 1335 129 l 1411 119 l 1411 0 l 1068 0 l 1068 119 l 1130 130 l 1072 309 l 1010 309 l 1010 0 l 844 0 l 844 309 l 791 309 l 732 130 l 795 119 l 795 0 l 452 0 l 452 119 l 528 129 l 591 308 l 315 308 l 315 139 l 420 119 l 420 0 l 12 0 l 12 119 l 117 139 l 117 848 l 12 868 l 12 987 l 117 987 l 315 987 l 420 987 m 836 445 l 1026 445 l 933 726 l 929 726 l 836 445 z "},"ѩ":{"ha":1275,"x_min":21,"x_max":1227,"o":"m 325 332 l 586 332 l 738 734 l 941 734 l 1170 128 l 1227 119 l 1227 0 l 1017 0 l 943 216 l 901 216 l 901 0 l 772 0 l 772 216 l 735 216 l 663 0 l 452 0 l 452 119 l 509 128 l 542 216 l 325 216 l 325 139 l 420 119 l 420 0 l 31 0 l 31 119 l 127 139 l 127 594 l 21 614 l 21 734 l 127 734 l 325 734 l 325 332 m 774 332 l 903 332 l 859 459 l 841 536 l 837 536 l 818 459 l 774 332 z "},"Ѫ":{"ha":1310,"x_min":39,"x_max":1286,"o":"m 488 119 l 573 139 l 573 391 l 498 391 q 371 357 410 391 q 332 233 332 322 l 332 139 l 418 119 l 418 0 l 39 0 l 39 119 l 135 139 l 135 233 q 226 471 135 397 q 494 546 317 545 l 317 852 l 199 868 l 199 987 l 1150 987 l 1150 868 l 1031 852 l 855 545 q 1105 466 1020 540 q 1191 233 1191 392 l 1191 139 l 1286 119 l 1286 0 l 908 0 l 908 119 l 994 139 l 994 233 q 954 357 994 322 q 828 391 915 391 l 770 391 l 770 139 l 856 119 l 856 0 l 488 0 l 488 119 m 674 570 l 811 833 l 538 833 l 674 570 z "},"ѫ":{"ha":1126,"x_min":48,"x_max":1084,"o":"m 456 270 q 359 237 389 270 q 329 121 329 205 l 329 0 l 48 0 l 48 119 l 132 139 l 132 127 l 136 125 q 199 332 132 262 q 397 413 267 401 l 289 599 l 169 614 l 169 734 l 973 734 l 973 614 l 854 599 l 745 412 q 935 329 869 398 q 997 125 1000 259 l 1001 127 l 1001 139 l 1084 119 l 1084 0 l 803 0 l 803 121 q 773 237 803 205 q 676 270 743 270 l 668 270 l 668 139 l 753 119 l 753 0 l 385 0 l 385 119 l 471 139 l 471 270 l 456 270 m 569 430 l 573 430 l 657 606 l 486 606 l 569 430 z "},"Ѭ":{"ha":1729,"x_min":27,"x_max":1709,"o":"m 27 119 l 133 139 l 133 848 l 27 868 l 27 987 l 436 987 l 436 868 l 330 848 l 330 547 l 916 547 l 739 852 l 621 868 l 621 987 l 1573 987 l 1573 868 l 1454 852 l 1278 545 q 1528 466 1442 540 q 1613 233 1613 392 l 1613 139 l 1709 119 l 1709 0 l 1331 0 l 1331 119 l 1416 139 l 1416 233 q 1377 357 1416 322 q 1251 391 1337 391 l 1193 391 l 1193 139 l 1278 119 l 1278 0 l 910 0 l 910 119 l 996 139 l 996 391 l 920 391 q 794 357 833 391 q 755 233 755 322 l 755 139 l 840 119 l 840 0 l 462 0 l 462 119 l 557 139 l 557 233 q 565 320 557 281 q 588 392 572 359 l 330 392 l 330 139 l 436 119 l 436 0 l 27 0 l 27 119 m 1097 570 l 1234 833 l 960 833 l 1097 570 z "},"ѭ":{"ha":1540,"x_min":16,"x_max":1492,"o":"m 26 119 l 121 139 l 121 594 l 16 614 l 16 734 l 319 734 l 319 415 l 804 415 l 696 599 l 576 614 l 576 734 l 1381 734 l 1381 614 l 1261 599 l 1153 412 q 1342 329 1277 398 q 1404 125 1407 259 l 1409 127 l 1409 139 l 1492 119 l 1492 0 l 1211 0 l 1211 121 q 1180 237 1211 205 q 1084 270 1150 270 l 1076 270 l 1076 139 l 1161 119 l 1161 0 l 793 0 l 793 119 l 878 139 l 878 270 l 864 270 q 766 237 796 270 q 736 121 736 205 l 736 0 l 456 0 l 456 119 l 539 139 l 539 144 l 543 143 q 546 208 540 172 q 568 274 553 243 l 319 274 l 319 139 l 414 119 l 414 0 l 26 0 l 26 119 m 977 430 l 981 430 l 1065 606 l 893 606 l 977 430 z "},"Ѯ":{"ha":766,"x_min":35,"x_max":720,"o":"m 341 583 q 454 618 418 583 q 491 713 491 653 q 455 803 491 768 q 347 842 420 838 q 258 831 298 842 q 197 804 218 821 l 180 694 l 35 694 l 35 872 q 167 962 87 930 q 347 994 248 994 q 597 926 505 994 q 690 729 690 858 q 649 592 690 649 q 534 505 608 536 q 672 419 624 477 q 720 277 720 361 q 627 63 720 140 q 377 -14 533 -14 l 338 -14 q 280 -32 298 -14 q 262 -79 262 -49 q 290 -145 262 -120 q 359 -188 319 -170 l 304 -304 q 139 -215 196 -279 q 81 -54 82 -150 q 145 93 81 43 q 323 143 209 143 l 366 143 q 480 179 438 143 q 522 274 522 216 q 475 387 522 349 q 336 425 427 425 l 244 425 l 244 583 l 341 583 m 382 1204 l 472 1299 l 640 1299 l 640 1287 l 450 1114 l 315 1114 l 124 1288 l 124 1299 l 293 1299 l 382 1204 z "},"ѯ":{"ha":678,"x_min":28,"x_max":650,"o":"m 299 421 q 392 447 361 421 q 422 515 422 473 q 391 574 422 552 q 296 597 360 597 q 233 588 264 597 q 185 568 202 579 l 168 468 l 28 468 l 28 636 q 142 710 73 684 q 296 736 211 736 q 533 684 446 736 q 619 531 619 632 q 587 432 619 474 q 497 364 555 389 q 611 301 571 342 q 650 203 650 260 q 565 43 650 100 q 335 -14 479 -14 l 302 -14 q 236 -32 256 -14 q 215 -79 215 -49 q 240 -145 215 -120 q 302 -188 266 -170 l 246 -294 q 101 -202 157 -266 q 44 -54 45 -139 q 103 80 44 35 q 266 125 161 125 l 304 125 q 413 148 373 125 q 452 210 452 171 q 412 278 452 255 q 294 301 372 301 l 222 301 l 222 421 l 299 421 m 328 945 l 417 1040 l 585 1040 l 585 1028 l 395 855 l 260 855 l 69 1029 l 69 1040 l 238 1040 l 328 945 z "},"Ѳ":{"ha":949,"x_min":49,"x_max":944,"o":"m 944 486 q 820 127 944 269 q 495 -14 696 -14 q 172 127 295 -14 q 49 486 49 269 l 49 501 q 172 859 49 717 q 494 1002 294 1002 q 820 859 695 1002 q 944 501 944 717 l 944 486 m 495 140 q 671 219 609 140 q 741 431 733 299 l 740 434 l 254 434 l 252 431 q 320 219 259 299 q 495 140 382 140 m 494 847 q 320 768 381 847 q 252 559 260 689 l 254 556 l 740 556 l 741 559 q 670 768 733 688 q 494 847 607 847 z "},"ѳ":{"ha":808,"x_min":53,"x_max":745,"o":"m 53 374 q 145 643 53 538 q 399 747 237 747 q 653 643 562 747 q 745 374 745 538 l 745 359 q 653 90 745 194 q 400 -14 562 -14 q 145 90 237 -14 q 53 359 53 194 l 53 374 m 399 595 q 297 549 332 595 q 257 430 262 503 l 258 427 l 541 427 l 542 430 q 500 549 536 503 q 399 595 465 595 m 400 138 q 500 182 465 138 q 541 301 535 227 l 540 304 l 258 304 l 257 301 q 298 182 262 227 q 400 138 333 138 z "},"Ѵ":{"ha":956,"x_min":26,"x_max":930,"o":"m 382 868 l 315 855 l 486 268 l 498 213 l 502 213 l 513 266 l 656 770 q 750 943 692 886 q 903 1000 808 1000 l 930 1000 l 929 840 l 910 840 q 860 818 881 840 q 829 758 840 796 l 602 0 l 399 0 l 111 857 l 26 868 l 26 987 l 382 987 l 382 868 z "},"ѵ":{"ha":806,"x_min":32,"x_max":782,"o":"m 386 614 l 311 600 l 389 273 l 401 214 l 405 214 l 416 273 l 478 527 q 568 692 511 637 q 712 747 625 747 q 751 745 734 747 q 782 734 768 742 l 766 585 q 751 586 763 585 q 731 587 740 587 q 685 567 705 587 q 656 518 664 547 l 498 0 l 309 0 l 115 604 l 32 614 l 32 734 l 386 734 l 386 614 z "},"Ѻ":{"ha":983,"x_min":45,"x_max":941,"o":"m 559 762 l 427 762 l 427 1069 l 559 1069 l 559 762 m 561 -92 l 429 -92 l 429 222 l 561 222 l 561 -92 m 941 486 q 817 127 941 269 q 492 -14 692 -14 q 169 127 292 -14 q 45 486 45 269 l 45 501 q 168 859 45 717 q 491 1002 291 1002 q 816 859 692 1002 q 941 501 941 717 l 941 486 m 743 503 q 680 751 743 656 q 491 847 616 847 q 305 752 366 847 q 243 503 243 657 l 243 486 q 306 235 243 330 q 492 140 368 140 q 680 235 617 140 q 743 486 743 330 l 743 503 z "},"ѻ":{"ha":782,"x_min":45,"x_max":738,"o":"m 444 517 l 342 517 l 342 817 l 444 817 l 444 517 m 440 -83 l 338 -83 l 338 224 l 440 224 l 440 -83 m 45 374 q 137 643 45 538 q 391 747 229 747 q 646 643 554 747 q 738 374 738 538 l 738 359 q 646 90 738 194 q 393 -14 554 -14 q 137 90 229 -14 q 45 359 45 194 l 45 374 m 243 359 q 279 198 243 259 q 393 138 314 138 q 505 199 469 138 q 541 359 541 260 l 541 374 q 505 533 541 471 q 391 595 469 595 q 279 533 314 595 q 243 374 243 471 l 243 359 z "},"Ѽ":{"ha":1246,"x_min":77,"x_max":1201,"o":"m 871 982 l 875 983 q 1110 901 1019 986 q 1201 659 1201 815 l 1201 314 q 1109 71 1201 157 q 871 -14 1018 -14 q 738 11 798 -14 q 638 87 677 37 q 538 11 598 37 q 407 -14 479 -14 q 168 71 259 -14 q 77 314 77 157 l 77 659 q 168 901 77 815 q 403 983 258 986 l 407 982 l 407 835 q 310 791 345 835 q 275 659 275 747 l 275 314 q 310 181 275 225 q 407 138 345 138 q 508 179 472 138 q 545 304 545 220 l 545 553 l 733 553 l 733 304 q 769 179 733 220 q 871 138 805 138 q 967 181 932 138 q 1002 314 1002 225 l 1002 659 q 967 791 1002 747 q 871 835 932 835 l 871 982 m 945 1167 l 945 1076 l 930 1076 q 735 1117 842 1076 q 601 1158 629 1158 q 549 1140 568 1158 q 531 1088 531 1123 l 531 1076 l 441 1076 l 441 1101 q 482 1212 441 1175 q 599 1249 523 1249 q 751 1208 646 1249 q 930 1167 855 1167 l 945 1167 m 607 876 l 552 913 l 591 987 l 591 1086 l 714 1086 l 714 999 l 607 876 z "},"ѽ":{"ha":1069,"x_min":58,"x_max":1032,"o":"m 719 739 l 723 741 q 946 663 859 743 q 1032 435 1032 583 l 1032 296 q 951 66 1032 147 q 739 -14 870 -14 q 628 10 677 -14 q 545 83 578 35 q 461 10 511 35 q 351 -14 412 -14 q 138 66 219 -14 q 58 296 58 147 l 58 435 q 144 663 58 583 q 367 741 230 743 l 371 739 l 371 592 q 286 553 317 592 q 256 435 256 513 l 256 296 q 281 177 256 216 q 351 138 306 138 q 424 177 397 138 q 451 295 451 216 l 451 410 l 639 410 l 639 295 q 665 177 639 216 q 739 138 692 138 q 809 177 783 138 q 834 296 834 216 l 834 435 q 803 553 834 513 q 719 592 772 592 l 719 739 m 858 932 l 858 841 l 842 841 q 648 882 755 841 q 513 922 541 922 q 462 905 481 922 q 444 853 444 888 l 444 841 l 353 841 l 353 866 q 394 977 353 940 q 511 1013 435 1013 q 664 972 559 1013 q 844 932 768 932 l 858 932 m 627 773 l 520 650 l 465 687 l 505 761 l 504 851 l 627 851 l 627 773 z "},"Ѿ":{"ha":1278,"x_min":85,"x_max":1221,"o":"m 351 1144 l 351 1220 l 952 1220 l 953 1144 l 707 1144 l 707 1058 l 585 1058 l 585 1144 l 351 1144 m 1023 987 l 1023 304 q 987 179 1023 220 q 888 138 952 138 q 789 179 825 138 q 753 304 753 220 l 753 987 l 553 987 l 553 304 q 517 179 553 220 q 416 138 481 138 q 319 179 354 138 q 284 304 284 220 l 284 987 l 85 987 l 85 304 q 177 69 85 152 q 416 -14 268 -14 q 552 13 490 -14 q 653 93 613 40 q 752 13 692 40 q 888 -14 813 -14 q 1129 68 1037 -14 q 1221 304 1221 151 l 1221 987 l 1023 987 z "},"ѿ":{"ha":1153,"x_min":86,"x_max":1107,"o":"m 330 912 l 330 988 l 889 988 l 893 912 l 665 912 l 665 826 l 543 826 l 543 912 l 330 912 m 909 734 l 909 295 q 883 176 909 215 q 806 138 857 138 q 725 176 752 138 q 699 295 699 214 l 699 734 l 500 734 l 500 295 q 470 176 500 215 q 385 138 440 138 q 310 176 336 138 q 284 295 284 215 l 284 734 l 86 734 l 86 295 q 168 66 86 146 q 385 -14 250 -14 q 506 9 452 -14 q 597 81 561 33 q 686 9 633 33 q 806 -14 739 -14 q 1024 66 942 -14 q 1107 295 1107 146 l 1107 734 l 909 734 z "},"Ҁ":{"ha":846,"x_min":69,"x_max":818,"o":"m 578 -248 l 380 -248 l 380 -8 q 153 124 237 14 q 69 395 69 234 l 69 591 q 174 887 69 772 q 450 1002 278 1002 q 722 914 625 1002 q 815 665 818 826 l 814 661 l 621 661 q 580 803 621 757 q 450 849 539 849 q 315 778 362 849 q 267 593 267 707 l 267 395 q 315 209 267 281 q 450 138 362 138 l 578 138 l 578 -248 z "},"ҁ":{"ha":722,"x_min":59,"x_max":697,"o":"m 527 -249 l 330 -249 l 330 -8 q 129 113 199 14 q 59 356 59 213 l 59 376 q 148 642 59 537 q 398 747 237 747 q 615 670 532 747 q 694 467 697 593 l 693 463 l 513 463 q 482 557 513 519 q 398 595 452 595 q 290 533 322 595 q 257 376 257 471 l 257 356 q 290 198 257 259 q 399 138 322 138 l 527 138 l 527 -249 z "},"҂":{"ha":746,"x_min":12,"x_max":732,"o":"m 347 304 l 543 188 l 494 101 l 297 216 l 174 0 l 56 0 l 208 270 l 12 386 l 60 473 l 259 357 l 396 601 l 199 717 l 249 805 l 446 689 l 572 910 l 688 910 l 534 635 l 732 519 l 681 433 l 486 549 l 347 304 z "},"҃":{"ha":665,"x_min":94,"x_max":584,"o":"m 214 890 l 214 804 l 94 805 l 94 966 l 465 966 l 464 1040 l 584 1039 l 584 890 l 214 890 z "},"҄":{"ha":701,"x_min":88,"x_max":605,"o":"m 103 975 q 287 1015 180 975 q 444 1056 394 1056 q 563 1019 520 1056 q 605 909 605 983 l 605 884 l 513 884 l 513 896 q 493 948 513 930 q 441 965 473 965 q 302 924 412 965 q 104 884 193 884 l 88 884 l 88 975 l 103 975 z "},"҅":{"ha":315,"x_min":70,"x_max":237,"o":"m 70 1017 l 70 1113 l 199 1113 l 198 1005 l 237 931 l 182 885 l 70 1017 z "},"҆":{"ha":315,"x_min":74,"x_max":241,"o":"m 130 885 l 74 931 l 114 1005 l 113 1113 l 241 1113 l 241 1017 l 130 885 z "},"҈":{"ha":1347,"x_min":19,"x_max":1338,"o":"m 532 859 l 530 863 q 565 952 527 917 q 669 987 603 987 q 772 952 734 987 q 808 863 810 917 l 806 859 l 736 859 q 719 908 736 888 q 669 928 703 928 q 619 908 635 928 q 603 859 603 888 l 532 859 m 932 671 l 931 675 q 966 764 928 728 q 1069 799 1004 799 q 1173 764 1135 799 q 1209 675 1212 729 l 1208 671 l 1137 671 q 1120 721 1137 701 q 1069 740 1104 740 q 1020 720 1036 740 q 1004 671 1004 701 l 932 671 m 1059 330 l 1058 334 q 1093 422 1055 387 q 1196 458 1131 458 q 1300 423 1261 458 q 1335 334 1338 388 l 1334 330 l 1263 330 q 1247 379 1263 360 q 1196 399 1231 399 q 1146 379 1162 399 q 1131 330 1131 359 l 1059 330 m 926 -22 l 924 -18 q 959 71 921 35 q 1063 106 998 106 q 1166 71 1128 106 q 1202 -18 1204 36 l 1200 -22 l 1130 -22 q 1114 27 1130 8 q 1063 47 1097 47 q 1013 27 1029 47 q 997 -22 997 7 l 926 -22 m 535 -214 l 534 -210 q 568 -121 530 -156 q 672 -87 606 -87 q 775 -121 737 -87 q 811 -210 814 -156 l 810 -214 l 739 -214 q 723 -165 739 -184 q 672 -146 706 -146 q 622 -165 638 -146 q 606 -214 606 -184 l 535 -214 m 143 671 l 142 675 q 177 764 138 729 q 281 799 215 799 q 384 764 346 799 q 420 675 422 729 l 418 671 l 348 671 q 331 720 348 701 q 281 740 315 740 q 231 720 247 740 q 215 671 215 701 l 143 671 m 24 330 l 22 334 q 57 422 19 387 q 161 458 96 458 q 264 423 226 458 q 300 334 302 388 l 298 330 l 228 330 q 212 379 228 360 q 161 399 195 399 q 111 379 127 399 q 95 330 95 359 l 24 330 m 136 -22 l 135 -18 q 170 71 132 35 q 273 106 208 106 q 377 71 338 106 q 413 -18 416 36 l 412 -22 l 340 -22 q 324 27 340 8 q 273 47 308 47 q 224 27 239 47 q 208 -22 208 7 l 136 -22 z "},"҉":{"ha":1299,"x_min":19,"x_max":1278,"o":"m 715 -41 l 723 -50 l 640 -280 l 575 -280 l 623 -41 l 715 -41 m 583 764 l 575 773 l 658 1002 l 723 1002 l 675 764 l 583 764 m 1043 428 l 1052 436 l 1278 352 l 1278 286 l 1043 334 l 1043 428 m 254 294 l 245 286 l 19 370 l 19 436 l 254 388 l 254 294 m 880 680 l 882 690 l 1099 794 l 1145 748 q 946 612 1120 732 l 880 680 m 416 14 l 415 3 l 198 -101 l 151 -54 l 351 81 l 416 14 m 321 583 l 310 585 l 210 806 l 254 852 l 388 650 l 321 583 m 974 109 l 985 108 l 1086 -113 l 1042 -161 l 908 42 l 974 109 z "},"ҍ":{"ha":836,"x_min":30,"x_max":810,"o":"m 354 914 l 507 914 l 507 791 l 354 791 l 354 533 l 492 533 q 725 460 640 533 q 810 268 810 387 q 725 74 810 148 q 492 0 640 0 l 51 0 l 51 119 l 156 139 l 156 791 l 30 791 l 30 914 l 156 914 l 156 959 l 51 979 l 51 1098 l 354 1098 l 354 914 m 354 381 l 354 151 l 492 151 q 583 183 553 151 q 612 267 612 216 q 583 348 612 315 q 492 381 553 381 l 354 381 z "},"Ҏ":{"ha":921,"x_min":12,"x_max":848,"o":"m 840 358 l 771 296 l 474 621 l 543 684 l 840 358 m 482 987 q 750 900 652 987 q 848 672 848 813 q 750 444 848 530 q 482 358 652 358 l 315 358 l 315 139 l 421 119 l 421 0 l 12 0 l 12 119 l 117 139 l 117 848 l 12 868 l 12 987 l 117 987 l 482 987 m 315 511 l 482 511 q 607 556 565 511 q 650 671 650 601 q 607 788 650 742 q 482 835 565 835 l 315 835 l 315 511 z "},"ҏ":{"ha":863,"x_min":-8,"x_max":760,"o":"m 739 19 l 668 -43 l 408 264 l 477 326 l 739 19 m -8 614 l -8 734 l 279 734 l 289 648 q 367 722 321 696 q 473 747 412 747 q 684 641 609 747 q 760 361 760 534 l 760 347 q 684 85 760 184 q 474 -14 609 -14 q 372 7 416 -14 q 295 70 327 28 l 295 -142 l 391 -163 l 391 -282 l 2 -282 l 2 -163 l 98 -142 l 98 594 l -8 614 m 562 361 q 527 529 562 465 q 421 593 492 593 q 345 575 376 593 q 295 523 313 557 l 295 201 q 345 154 313 170 q 422 138 376 138 q 528 194 494 138 q 562 347 562 250 l 562 361 z "},"Ґ":{"ha":827,"x_min":41,"x_max":790,"o":"m 640 1237 l 790 1237 l 790 835 l 345 835 l 345 139 l 450 119 l 450 0 l 41 0 l 41 119 l 146 139 l 146 848 l 41 868 l 41 987 l 610 987 l 640 1237 z "},"ґ":{"ha":737,"x_min":39,"x_max":678,"o":"m 519 734 l 538 884 l 678 884 l 678 581 l 342 581 l 342 139 l 448 119 l 448 0 l 39 0 l 39 119 l 144 139 l 144 594 l 39 614 l 39 734 l 144 734 l 519 734 z "},"ғ":{"ha":738,"x_min":41,"x_max":684,"o":"m 449 0 l 146 0 l 146 309 l 43 309 l 43 413 l 146 413 l 146 594 l 41 614 l 41 734 l 684 734 l 684 475 l 559 475 l 551 581 l 344 581 l 344 413 l 488 413 l 488 309 l 344 309 l 344 139 l 449 119 l 449 0 m 146 0 l 41 0 l 41 119 l 146 139 l 146 0 z "},"Ҕ":{"ha":897,"x_min":44,"x_max":867,"o":"m 44 119 l 149 139 l 149 848 l 44 868 l 44 987 l 793 987 l 793 737 l 641 737 l 633 835 l 347 835 l 347 567 l 458 567 q 756 465 646 567 q 867 170 867 363 q 778 -113 867 0 q 501 -223 689 -226 l 497 -222 l 497 -82 q 634 -12 599 -82 q 669 161 669 58 q 615 349 669 286 q 458 412 561 412 l 347 412 l 347 139 l 453 119 l 453 0 l 44 0 l 44 119 z "},"ҕ":{"ha":800,"x_min":39,"x_max":773,"o":"m 682 475 l 558 475 l 550 581 l 342 581 l 342 435 l 388 435 q 667 350 562 435 q 772 105 772 264 q 708 -77 773 15 q 519 -209 643 -168 l 437 -81 q 539 -5 505 -50 q 574 105 574 39 q 525 235 574 191 q 388 280 475 280 l 342 280 l 342 139 l 448 119 l 448 0 l 39 0 l 39 119 l 144 139 l 144 594 l 39 614 l 39 734 l 144 734 l 682 734 l 682 475 z "},"Ҝ":{"ha":1046,"x_min":45,"x_max":1015,"o":"m 45 119 l 151 139 l 151 848 l 45 868 l 45 987 l 349 987 l 445 987 l 445 868 l 349 848 l 349 584 l 406 584 l 406 755 l 519 755 l 519 584 l 541 584 l 680 850 q 773 965 727 932 q 894 997 819 997 q 960 987 929 997 q 1015 962 990 978 l 981 814 q 956 820 967 817 q 931 822 945 822 q 878 805 901 822 q 821 739 854 787 l 706 542 l 924 132 l 1009 119 l 1009 0 l 741 0 l 557 404 l 519 404 l 519 254 l 406 254 l 406 404 l 349 404 l 349 139 l 445 119 l 445 0 l 45 0 l 45 119 z "},"ҝ":{"ha":980,"x_min":57,"x_max":937,"o":"m 57 119 l 162 139 l 162 594 l 57 614 l 57 734 l 360 734 l 440 734 l 440 628 l 360 608 l 360 454 l 433 454 l 433 571 l 516 571 l 516 454 l 539 454 l 624 617 q 706 713 659 680 q 822 745 753 745 q 884 736 857 745 q 937 711 911 727 l 903 573 q 878 580 883 578 q 859 581 873 581 q 817 568 838 581 q 779 526 796 554 l 701 392 l 841 132 l 928 119 l 928 0 l 659 0 l 547 275 l 516 275 l 516 172 l 433 172 l 433 275 l 360 275 l 360 125 l 440 105 l 440 0 l 57 0 l 57 119 z "},"Ҡ":{"ha":1298,"x_min":24,"x_max":1233,"o":"m 182 834 l 175 738 l 24 738 l 24 987 l 597 987 l 698 987 l 698 868 l 597 848 l 597 584 l 686 584 l 871 850 q 976 965 930 933 q 1097 997 1021 997 q 1161 987 1131 997 q 1216 962 1191 978 l 1183 814 q 1153 820 1161 819 q 1132 822 1145 822 q 1074 804 1101 822 q 1010 739 1048 787 l 856 527 l 1129 136 l 1233 119 l 1233 0 l 842 0 l 842 119 l 898 127 l 713 404 l 597 404 l 597 139 l 698 119 l 698 0 l 294 0 l 294 119 l 399 139 l 399 834 l 182 834 z "},"ҡ":{"ha":1137,"x_min":48,"x_max":1092,"o":"m 207 581 l 199 484 l 48 484 l 48 734 l 584 734 l 674 734 l 674 614 l 584 594 l 584 454 l 652 454 l 762 617 q 848 713 803 681 q 962 745 894 745 q 1023 736 996 745 q 1076 710 1050 726 l 1043 573 q 1018 580 1023 578 q 999 581 1013 581 q 956 566 979 581 q 917 526 933 550 l 822 388 l 992 135 l 1092 119 l 1092 0 l 820 0 l 660 275 l 584 275 l 584 139 l 674 119 l 674 0 l 281 0 l 281 119 l 387 139 l 387 581 l 207 581 z "},"Ҥ":{"ha":1397,"x_min":31,"x_max":1340,"o":"m 439 987 l 439 868 l 334 848 l 334 563 l 736 563 l 736 848 l 631 868 l 631 987 l 1340 987 l 1340 738 l 1188 738 l 1180 835 l 934 835 l 934 139 l 1040 119 l 1040 0 l 631 0 l 631 119 l 736 139 l 736 410 l 334 410 l 334 139 l 439 119 l 439 0 l 31 0 l 31 119 l 136 139 l 136 848 l 31 868 l 31 987 l 136 987 l 334 987 l 439 987 z "},"ҥ":{"ha":1080,"x_min":31,"x_max":1044,"o":"m 419 734 l 419 614 l 334 594 l 334 437 l 575 437 l 575 594 l 490 614 l 490 734 l 1044 734 l 1044 484 l 893 484 l 885 581 l 773 581 l 773 139 l 879 119 l 879 0 l 490 0 l 490 119 l 575 139 l 575 285 l 334 285 l 334 139 l 419 119 l 419 0 l 31 0 l 31 119 l 136 139 l 136 594 l 31 614 l 31 734 l 136 734 l 334 734 l 419 734 z "},"Ҧ":{"ha":1470,"x_min":44,"x_max":1425,"o":"m 44 868 l 44 987 l 1053 987 l 1053 868 l 948 848 l 948 566 l 1016 566 q 1315 464 1204 566 q 1425 168 1425 361 q 1336 -114 1425 -1 q 1059 -224 1247 -227 l 1055 -223 l 1055 -83 q 1192 -14 1157 -83 q 1227 159 1227 56 q 1173 347 1227 284 q 1016 410 1119 410 l 948 410 l 948 139 l 1053 119 l 1053 0 l 645 0 l 645 119 l 750 139 l 750 835 l 347 835 l 347 139 l 453 119 l 453 0 l 44 0 l 44 119 l 149 139 l 149 848 l 44 868 z "},"ҧ":{"ha":1284,"x_min":56,"x_max":1227,"o":"m 905 734 l 905 614 l 800 594 l 800 454 l 829 454 q 1118 370 1009 454 q 1226 125 1226 285 q 1162 -58 1227 34 q 975 -190 1097 -149 l 891 -62 q 993 14 958 -31 q 1029 125 1028 59 q 976 255 1029 210 q 829 300 923 300 l 800 300 l 800 139 l 905 119 l 905 0 l 517 0 l 517 119 l 602 139 l 602 581 l 359 581 l 359 139 l 444 119 l 444 0 l 56 0 l 56 119 l 161 139 l 161 594 l 56 614 l 56 734 l 161 734 l 800 734 l 905 734 z "},"Ҩ":{"ha":1088,"x_min":60,"x_max":1040,"o":"m 1040 -12 q 893 0 963 -12 q 762 35 823 12 q 652 -2 711 11 q 530 -14 593 -14 q 191 118 321 -14 q 60 450 60 251 l 60 586 q 157 882 60 764 q 406 997 254 1000 l 410 996 l 410 842 q 307 771 345 842 q 269 587 269 699 l 269 450 q 339 230 269 315 q 530 144 409 144 q 555 145 543 144 q 578 148 567 146 q 470 301 508 214 q 433 492 433 389 l 433 629 q 513 895 433 788 q 722 1001 593 1001 q 946 889 861 1001 q 1032 602 1032 778 l 1032 477 q 1001 298 1032 382 q 913 149 970 214 q 974 139 942 142 q 1040 136 1005 136 l 1040 -12 m 620 491 q 650 342 620 410 q 738 231 680 275 l 742 231 q 810 337 785 273 q 834 477 834 401 l 834 621 q 806 790 834 737 q 722 842 777 842 q 646 789 673 842 q 620 630 620 736 l 620 491 z "},"ҩ":{"ha":913,"x_min":64,"x_max":867,"o":"m 867 -16 q 740 -7 799 -16 q 632 19 682 1 q 545 -6 591 3 q 450 -14 499 -14 q 171 93 279 -14 q 64 362 64 199 l 64 425 q 144 655 64 564 q 351 743 224 746 l 355 742 l 355 589 q 295 541 317 585 q 273 427 273 496 l 273 362 q 319 207 273 267 q 442 153 366 147 l 446 155 q 395 246 412 192 q 378 363 378 300 l 378 465 q 443 667 378 587 q 611 747 507 747 q 786 659 719 747 q 853 435 853 570 l 853 338 q 829 211 853 271 q 762 105 806 151 q 812 98 785 100 q 867 96 838 96 l 867 -16 m 656 348 l 656 446 q 638 548 656 507 q 592 585 620 588 l 588 585 q 542 551 559 588 q 524 458 524 515 l 524 355 q 540 266 524 307 q 587 196 556 225 l 591 196 q 638 260 621 220 q 656 348 656 300 l 656 348 z "},"Ҵ":{"ha":1238,"x_min":19,"x_max":1256,"o":"m 758 987 l 758 738 l 606 738 l 598 834 l 517 834 l 517 152 l 919 152 l 919 848 l 814 868 l 814 987 l 1118 987 l 1223 987 l 1223 868 l 1118 848 l 1118 151 l 1256 151 l 1246 -238 l 1059 -238 l 1059 0 l 214 0 l 214 119 l 319 139 l 319 834 l 178 834 l 170 738 l 19 738 l 19 987 l 758 987 z "},"ҵ":{"ha":1160,"x_min":16,"x_max":1080,"o":"m 690 734 l 690 484 l 559 484 l 551 581 l 463 581 l 463 152 l 771 152 l 771 734 l 1075 734 l 1075 614 l 970 594 l 970 151 l 1080 151 l 1067 -218 l 883 -218 l 883 0 l 159 0 l 159 119 l 264 139 l 264 581 l 175 581 l 168 484 l 16 484 l 16 734 l 690 734 z "},"Ҹ":{"ha":1054,"x_min":30,"x_max":1020,"o":"m 551 197 l 438 197 l 438 710 l 551 710 l 551 197 m 611 119 l 716 139 l 716 380 q 615 364 671 370 q 516 358 559 358 q 235 437 334 358 q 136 680 136 515 l 136 848 l 30 868 l 30 987 l 333 987 l 439 987 l 439 868 l 333 848 l 333 680 q 376 547 333 584 q 516 511 420 511 q 615 516 558 511 q 716 533 671 522 l 716 848 l 611 868 l 611 987 l 716 987 l 914 987 l 1020 987 l 1020 868 l 914 848 l 914 139 l 1020 119 l 1020 0 l 611 0 l 611 119 z "},"ҹ":{"ha":932,"x_min":44,"x_max":891,"o":"m 518 162 l 405 162 l 405 514 l 518 514 l 518 162 m 432 734 l 432 615 l 347 595 l 347 503 q 379 403 347 431 q 487 375 411 375 q 537 378 512 375 q 587 386 562 380 l 587 594 l 502 614 l 502 734 l 891 734 l 891 614 l 785 594 l 785 139 l 891 119 l 891 0 l 481 0 l 481 119 l 587 139 l 587 233 q 536 225 562 227 q 487 222 510 222 q 237 292 325 222 q 149 503 149 361 l 149 595 l 44 615 l 44 734 l 347 734 l 432 734 z "},"Һ":{"ha":1065,"x_min":36,"x_max":1026,"o":"m 445 987 l 445 869 l 340 848 l 340 607 q 440 623 385 616 q 540 629 496 629 q 821 550 721 629 q 920 307 920 471 l 920 140 l 1026 119 l 1026 0 l 617 0 l 617 119 l 723 140 l 723 307 q 679 440 723 403 q 540 477 635 477 q 441 470 498 477 q 340 454 385 464 l 340 140 l 445 119 l 445 0 l 36 0 l 36 119 l 142 140 l 142 848 l 36 869 l 36 987 l 340 987 l 445 987 z "},"Ҽ":{"ha":1067,"x_min":29,"x_max":1032,"o":"m 697 -16 q 364 101 480 -16 q 248 412 248 218 l 248 450 q 86 541 142 467 q 29 734 29 616 l 163 734 q 184 640 163 677 q 248 587 205 602 q 363 884 248 768 q 649 1000 478 1001 q 933 877 834 1000 q 1032 538 1032 753 l 1032 436 l 446 436 l 446 412 q 505 220 446 292 q 697 148 565 148 q 833 161 773 148 q 943 193 894 174 l 977 40 q 869 3 942 21 q 697 -16 796 -16 m 649 836 q 498 766 551 836 q 448 589 446 695 l 450 585 l 834 585 l 834 606 q 790 773 834 710 q 649 836 745 836 z "},"ҽ":{"ha":913,"x_min":-9,"x_max":798,"o":"m 503 -14 q 253 83 348 -14 q 154 331 159 180 q 33 423 75 357 q -9 587 -9 489 l 115 587 q 127 517 115 547 q 163 468 139 487 q 272 671 187 595 q 485 747 357 747 q 715 658 633 747 q 798 416 798 568 l 798 308 l 359 308 l 358 304 q 407 184 363 231 q 524 138 450 138 q 633 151 589 138 q 728 193 676 164 l 781 71 q 664 10 736 35 q 503 -14 591 -14 m 485 595 q 398 553 430 595 q 359 442 366 511 l 361 439 l 604 439 l 604 456 q 574 557 604 519 q 485 595 545 595 z "},"Ӄ":{"ha":990,"x_min":46,"x_max":936,"o":"m 46 868 l 46 987 l 455 987 l 455 868 l 350 848 l 350 585 l 419 585 l 671 987 l 931 987 l 931 868 l 818 850 l 612 559 q 849 438 763 538 q 936 168 936 338 q 847 -114 936 -1 q 570 -224 758 -227 l 566 -223 l 566 -84 q 703 -14 667 -84 q 738 159 738 56 q 684 347 738 283 q 527 410 629 410 l 350 410 l 350 139 l 455 119 l 455 0 l 46 0 l 46 119 l 152 139 l 152 848 l 46 868 z "},"ӄ":{"ha":833,"x_min":26,"x_max":802,"o":"m 26 119 l 132 139 l 132 594 l 26 614 l 26 734 l 430 734 l 430 614 l 330 594 l 330 454 l 389 454 l 551 734 l 791 734 l 791 614 l 691 598 l 568 409 q 739 302 677 378 q 801 107 801 226 q 738 -72 802 18 q 549 -201 673 -161 l 467 -73 q 568 0 534 -43 q 604 107 603 43 q 551 233 604 192 q 404 275 499 275 l 330 275 l 330 139 l 435 119 l 435 0 l 26 0 l 26 119 z "},"Ӈ":{"ha":1074,"x_min":44,"x_max":1053,"o":"m 44 119 l 149 139 l 149 848 l 44 868 l 44 987 l 347 987 l 453 987 l 453 868 l 347 848 l 347 563 l 750 563 l 750 848 l 644 868 l 644 987 l 750 987 l 1053 987 l 1053 868 l 947 848 l 947 -27 q 879 -226 947 -156 q 688 -296 810 -296 q 638 -294 661 -296 q 591 -285 615 -291 l 600 -135 q 633 -141 616 -139 q 668 -144 650 -144 q 728 -113 707 -144 q 750 -27 750 -83 l 750 410 l 347 410 l 347 139 l 453 119 l 453 0 l 44 0 l 44 119 z "},"ӈ":{"ha":937,"x_min":57,"x_max":905,"o":"m 57 119 l 162 139 l 162 594 l 57 614 l 57 734 l 360 734 l 455 734 l 455 614 l 360 594 l 360 437 l 601 437 l 601 594 l 506 614 l 506 734 l 800 734 l 905 734 l 905 614 l 800 594 l 800 -27 q 731 -226 800 -156 q 541 -296 663 -296 q 490 -294 513 -296 q 443 -285 467 -291 l 452 -135 q 485 -141 468 -139 q 519 -144 501 -144 q 579 -114 558 -144 q 601 -27 601 -83 l 601 285 l 360 285 l 360 139 l 465 119 l 465 0 l 57 0 l 57 119 z "},"Ә":{"ha":949,"x_min":47,"x_max":892,"o":"m 416 1002 q 769 877 646 1002 q 892 547 892 753 l 892 437 q 772 112 892 239 q 474 -14 652 -15 q 157 109 267 -14 q 47 448 47 232 l 47 549 l 690 549 l 692 553 q 627 759 694 680 q 416 838 561 838 q 272 824 336 838 q 156 793 208 811 l 123 945 q 236 983 160 964 q 416 1002 311 1002 m 474 149 q 627 218 571 149 q 690 397 684 288 l 688 400 l 245 400 l 245 379 q 299 212 245 275 q 474 149 354 149 z "},"Ӡ":{"ha":785,"x_min":41,"x_max":745,"o":"m 724 987 l 724 863 l 477 586 q 675 486 606 565 q 745 277 745 406 q 645 63 745 140 q 384 -14 545 -14 q 142 58 243 -14 q 45 270 41 131 l 46 274 l 239 274 q 278 177 239 216 q 384 138 318 138 q 503 177 459 138 q 547 279 547 217 q 500 420 547 376 q 357 464 452 464 l 266 464 l 266 587 l 494 831 l 492 835 l 241 835 l 234 737 l 83 737 l 83 987 l 724 987 z "},"ӡ":{"ha":787,"x_min":40,"x_max":743,"o":"m 489 577 l 488 581 l 235 581 l 228 484 l 76 484 l 76 734 l 722 734 l 723 609 l 479 332 q 674 231 606 311 q 743 22 743 151 q 643 -190 743 -113 q 382 -268 543 -268 q 141 -195 242 -268 q 43 16 40 -122 l 45 20 l 237 20 q 277 -76 237 -37 q 382 -115 317 -115 q 502 -76 458 -115 q 546 24 546 -36 q 498 166 546 121 q 356 210 451 210 l 264 210 l 264 333 l 489 577 z "},"Ӻ":{"ha":877,"x_min":81,"x_max":853,"o":"m 81 0 m 104 119 l 210 139 l 210 848 l 104 868 l 104 987 l 853 987 l 853 737 l 701 737 l 693 835 l 408 835 l 408 139 l 513 119 l 513 0 l 104 0 l 104 119 m 556 463 l 81 463 l 81 568 l 556 568 l 556 463 m 513 77 l 513 -42 q 451 -218 513 -156 q 278 -279 389 -279 q 228 -277 251 -279 q 181 -268 205 -274 l 191 -117 q 222 -123 205 -121 q 258 -125 239 -125 q 300 -104 285 -125 q 315 -42 315 -83 l 315 77 l 513 77 z "},"ӻ":{"ha":771,"x_min":66,"x_max":739,"o":"m 201 595 l 96 615 l 96 734 l 739 734 l 739 476 l 614 476 l 606 581 l 399 581 l 399 139 l 504 119 l 504 0 l 96 0 l 96 119 l 201 139 l 201 595 m 542 343 l 66 343 l 66 448 l 542 448 l 542 343 m 512 98 l 512 -21 q 450 -197 512 -135 q 277 -258 388 -258 q 227 -256 250 -258 q 180 -247 204 -253 l 189 -96 q 220 -102 203 -100 q 256 -104 237 -104 q 299 -83 283 -104 q 314 -21 314 -62 l 314 98 l 512 98 z "},"Ԁ":{"ha":920,"x_min":37,"x_max":880,"o":"m 407 0 q 137 90 237 0 q 37 321 37 179 q 137 551 37 463 q 407 640 237 640 l 577 640 l 577 848 l 472 868 l 472 987 l 775 987 l 880 987 l 880 868 l 775 848 l 775 139 l 880 119 l 880 0 l 407 0 m 577 152 l 577 488 l 407 488 q 279 440 323 488 q 235 323 235 392 q 279 201 235 251 q 407 152 323 152 l 577 152 z "},"Ԃ":{"ha":1181,"x_min":39,"x_max":1155,"o":"m 409 0 q 139 90 239 0 q 39 321 39 179 q 139 551 39 463 q 409 640 239 640 l 579 640 l 579 848 l 474 868 l 474 987 l 579 987 l 882 987 l 882 868 l 777 848 l 777 153 l 824 153 q 919 189 886 153 q 956 288 953 224 q 945 395 956 339 q 915 505 935 452 l 1108 505 q 1143 387 1131 438 q 1154 288 1155 336 q 1056 75 1151 149 q 824 0 961 0 l 409 0 m 579 152 l 579 488 l 409 488 q 281 440 326 488 q 237 323 237 392 q 281 201 237 251 q 409 152 326 152 l 579 152 z "},"ԃ":{"ha":1167,"x_min":49,"x_max":1121,"o":"m 699 1058 l 699 252 q 721 171 699 202 q 780 140 743 140 q 883 198 846 140 q 922 359 920 256 q 912 493 923 425 q 881 632 901 562 l 1074 632 q 1109 483 1097 546 q 1120 359 1121 420 q 1020 82 1117 178 q 780 -14 923 -14 q 629 14 690 -16 q 535 108 567 43 q 451 17 500 49 q 334 -14 401 -14 q 124 85 199 -14 q 49 347 49 184 l 49 361 q 124 641 49 534 q 336 747 199 747 q 428 727 387 747 q 502 669 469 707 l 502 918 l 396 939 l 396 1058 l 502 1058 l 699 1058 m 502 535 q 452 578 481 563 q 386 593 423 593 q 280 529 313 593 q 247 361 247 465 l 247 347 q 279 195 247 250 q 385 140 311 140 q 456 155 425 140 q 507 201 486 171 q 503 225 505 212 q 502 252 502 237 l 502 535 z "},"Ԅ":{"ha":1104,"x_min":16,"x_max":1063,"o":"m 478 259 q 440 367 478 326 q 339 408 403 408 l 199 408 l 199 562 l 300 562 q 439 597 396 562 q 481 707 481 633 q 445 806 481 770 q 331 844 408 842 q 241 831 281 844 q 178 796 200 818 l 161 687 l 16 687 l 16 865 q 150 962 68 928 q 331 996 231 996 q 589 921 500 996 q 679 705 679 847 q 631 570 679 627 q 494 481 584 514 q 633 401 591 457 q 676 260 676 345 l 676 214 q 691 161 675 182 q 732 140 706 140 q 827 198 793 140 q 865 359 861 256 q 862 430 865 394 q 853 503 859 467 l 782 513 l 782 632 l 1017 632 q 1051 480 1040 541 q 1062 359 1063 420 q 962 82 1059 178 q 722 -14 865 -14 q 546 39 609 -16 q 478 214 484 94 l 478 259 z "},"ԅ":{"ha":985,"x_min":-11,"x_max":934,"o":"m 886 500 q 922 382 909 431 q 932 284 934 332 q 848 60 930 138 q 648 -18 767 -18 q 461 18 523 -20 q 393 145 400 57 l 393 196 q 374 249 393 230 q 319 268 355 268 l 144 268 l 143 404 l 247 404 q 341 430 311 404 q 372 505 372 457 q 349 570 372 545 q 279 595 326 594 q 205 571 235 595 q 175 509 175 547 l -6 509 l -7 513 q 71 681 -11 615 q 274 747 153 747 q 493 690 416 747 q 570 528 570 632 q 542 429 570 471 q 458 361 513 387 q 560 303 529 344 q 591 205 591 263 l 591 172 q 601 125 591 142 q 637 109 612 109 q 707 155 682 109 q 734 284 732 201 q 733 327 734 304 q 728 371 732 349 l 652 381 l 652 500 l 886 500 l 886 500 z "},"Ԇ":{"ha":798,"x_min":-10,"x_max":792,"o":"m 152 404 l 152 558 l 275 558 q 413 593 370 558 q 455 703 455 629 q 418 802 455 766 q 304 840 382 838 q 214 829 255 840 q 151 801 174 819 l 135 692 l -10 692 l -10 869 q 123 960 42 928 q 304 991 204 991 q 563 917 473 991 q 652 701 652 843 q 608 569 652 625 q 479 481 564 513 q 595 394 559 453 q 631 250 631 336 l 631 168 q 642 81 631 127 q 681 15 654 36 l 681 0 l 476 0 q 441 72 449 22 q 433 169 433 122 l 433 248 q 393 363 433 321 q 279 404 353 404 l 152 404 m 791 29 q 752 -117 791 -40 q 657 -244 713 -195 l 559 -191 q 600 -93 586 -144 q 614 20 614 -43 l 614 168 l 792 168 l 791 29 z "},"ԇ":{"ha":787,"x_min":3,"x_max":755,"o":"m 159 265 l 158 401 l 282 401 q 361 428 335 401 q 387 498 387 455 q 364 565 387 539 q 294 591 340 591 q 219 568 250 591 q 189 506 189 544 l 8 506 l 7 510 q 85 678 3 612 q 289 744 167 744 q 507 685 429 744 q 585 521 585 625 q 552 418 585 462 q 456 349 519 375 q 588 283 548 332 q 628 159 628 235 l 628 107 q 634 53 628 85 q 653 9 640 22 l 653 0 l 449 0 q 434 44 437 12 q 431 108 431 77 l 431 159 q 399 238 431 210 q 307 265 367 265 l 159 265 m 754 7 q 715 -139 754 -62 q 620 -266 676 -216 l 522 -213 q 563 -115 549 -165 q 577 -2 577 -64 l 577 146 l 755 146 l 754 7 z "},"Ԉ":{"ha":1337,"x_min":31,"x_max":1293,"o":"m 673 833 l 415 833 l 415 521 q 335 125 415 251 q 67 0 254 0 l 31 0 l 31 154 l 59 154 q 180 240 142 154 q 217 521 217 326 l 217 848 l 112 868 l 112 987 l 871 987 l 977 987 l 977 868 l 871 848 l 871 252 q 893 171 871 202 q 952 140 915 140 q 1055 198 1019 140 q 1094 359 1091 256 q 1091 430 1094 393 q 1083 503 1088 466 l 1012 513 l 1012 632 l 1246 632 q 1281 483 1270 546 q 1292 359 1293 420 q 1192 82 1289 178 q 952 -14 1095 -14 q 751 48 823 -16 q 673 252 680 113 l 673 833 z "},"ԉ":{"ha":1174,"x_min":45,"x_max":1124,"o":"m 525 578 l 387 578 l 387 422 q 319 103 387 206 q 94 0 252 0 l 45 0 l 47 164 l 75 165 q 162 224 136 165 q 189 422 189 284 l 189 594 l 83 614 l 83 734 l 722 734 l 828 734 l 828 614 l 722 594 l 722 252 q 746 171 722 202 q 814 140 771 140 q 893 191 865 140 q 924 331 922 241 q 922 395 924 362 q 915 460 920 427 l 842 470 l 842 589 l 1076 589 q 1112 448 1099 506 q 1122 331 1124 389 q 1031 75 1120 164 q 814 -14 943 -14 q 606 48 680 -16 q 525 252 532 113 l 525 578 z "},"Ԋ":{"ha":1412,"x_min":46,"x_max":1369,"o":"m 46 868 l 46 987 l 350 987 l 455 987 l 455 868 l 350 848 l 350 563 l 750 563 l 750 848 l 644 868 l 644 987 l 750 987 l 947 987 l 1053 987 l 1053 868 l 947 848 l 947 252 q 969 171 947 202 q 1028 140 991 140 q 1131 198 1095 140 q 1171 359 1168 256 q 1168 430 1171 394 q 1159 503 1165 467 l 1088 513 l 1088 632 l 1322 632 q 1357 483 1345 546 q 1368 359 1369 420 q 1268 82 1365 178 q 1028 -14 1171 -14 q 828 48 899 -16 q 750 252 757 113 l 750 410 l 350 410 l 350 139 l 455 119 l 455 0 l 46 0 l 46 119 l 152 139 l 152 848 l 46 868 z "},"ԋ":{"ha":1255,"x_min":57,"x_max":1208,"o":"m 57 614 l 57 734 l 450 734 l 450 614 l 360 594 l 360 445 l 609 445 l 609 594 l 519 614 l 519 734 l 609 734 l 913 734 l 913 614 l 807 594 l 807 252 q 831 171 806 202 q 899 140 856 140 q 978 191 950 140 q 1009 331 1006 241 q 999 458 1010 393 q 968 589 989 524 l 1161 589 q 1196 448 1184 506 q 1207 331 1208 389 q 1116 75 1204 164 q 899 -14 1028 -14 q 690 48 764 -16 q 609 252 616 113 l 609 291 l 360 291 l 360 139 l 450 119 l 450 0 l 57 0 l 57 119 l 162 139 l 162 594 l 57 614 z "},"Ԍ":{"ha":873,"x_min":65,"x_max":850,"o":"m 811 533 q 844 384 837 420 q 850 297 850 348 q 744 66 847 146 q 490 -14 642 -14 q 183 104 301 -14 q 65 405 65 222 l 65 583 q 183 883 65 764 q 490 1002 301 1002 q 627 986 566 1002 q 733 941 687 971 l 691 801 q 596 835 646 823 q 490 847 547 847 q 325 771 386 847 q 264 584 264 695 l 264 405 q 325 216 264 292 q 490 140 386 140 q 608 182 566 140 q 652 297 649 223 q 650 350 652 323 q 644 405 648 376 l 577 414 l 577 533 l 811 533 l 811 533 z "},"ԍ":{"ha":742,"x_min":59,"x_max":711,"o":"m 692 364 q 706 288 701 323 q 711 222 711 253 q 630 46 708 106 q 427 -14 552 -14 q 158 92 256 -14 q 59 353 59 199 l 59 381 q 154 641 59 534 q 413 747 249 747 q 525 735 476 747 q 604 703 573 724 l 573 553 q 500 583 541 572 q 413 593 460 593 q 296 529 336 593 q 257 381 257 466 l 257 353 q 299 203 257 266 q 427 140 342 140 q 492 160 473 140 q 513 222 511 180 l 513 237 l 459 245 l 459 364 l 692 364 l 692 364 z "},"Ԏ":{"ha":1013,"x_min":28,"x_max":967,"o":"m 865 987 l 865 737 l 713 737 l 706 833 l 545 833 l 545 252 q 567 171 545 202 q 626 140 589 140 q 729 198 692 140 q 768 359 765 256 q 765 430 768 394 q 756 503 762 467 l 686 513 l 686 632 l 920 632 q 955 485 943 549 q 966 359 967 421 q 866 82 963 178 q 626 -14 769 -14 q 425 48 496 -16 q 347 252 354 113 l 347 833 l 187 833 l 180 737 l 28 737 l 28 987 l 865 987 z "},"ԏ":{"ha":922,"x_min":35,"x_max":861,"o":"m 772 734 l 772 484 l 620 484 l 612 581 l 477 581 l 477 252 q 501 171 477 202 q 568 140 526 140 q 636 168 612 140 q 663 248 660 196 q 662 269 663 260 q 662 286 662 277 l 589 295 l 589 414 l 839 414 q 856 322 850 361 q 861 248 861 284 q 774 53 858 121 q 568 -14 690 -14 q 360 48 434 -16 q 279 252 286 113 l 279 581 l 193 581 l 186 484 l 35 484 l 35 734 l 772 734 z "},"Ԑ":{"ha":872,"x_min":56,"x_max":844,"o":"m 451 429 q 303 393 353 429 q 254 279 254 357 q 310 177 254 217 q 463 138 366 138 q 595 177 543 138 q 648 274 648 216 l 840 274 l 840 270 q 730 58 844 131 q 463 -14 617 -14 q 169 63 281 -14 q 56 277 56 140 q 102 419 56 361 q 237 507 149 478 q 115 595 159 539 q 71 720 71 652 q 176 928 71 855 q 463 1002 281 1002 q 724 925 617 1002 q 827 726 830 849 l 826 722 l 634 722 q 585 813 634 778 q 463 849 535 849 q 318 811 367 849 q 269 717 269 774 q 313 614 269 651 q 451 578 357 578 l 585 578 l 585 429 l 451 429 z "}," ":{"ha":177,"x_min":0,"x_max":0,"o":""}," ":{"ha":354,"x_min":0,"x_max":0,"o":""}," ":{"ha":177,"x_min":0,"x_max":0,"o":""}," ":{"ha":354,"x_min":0,"x_max":0,"o":""}," ":{"ha":118,"x_min":0,"x_max":0,"o":""}," ":{"ha":88,"x_min":0,"x_max":0,"o":""}," ":{"ha":59,"x_min":0,"x_max":0,"o":""}," ":{"ha":195,"x_min":0,"x_max":0,"o":""}," ":{"ha":95,"x_min":0,"x_max":0,"o":""}," ":{"ha":71,"x_min":0,"x_max":0,"o":""}," ":{"ha":35,"x_min":0,"x_max":0,"o":""},"​":{"ha":0,"x_min":0,"x_max":0,"o":""},"–":{"ha":930,"x_min":112,"x_max":848,"o":"m 112 408 m 847 408 l 112 408 l 112 562 l 847 562 l 847 408 z "},"—":{"ha":1082,"x_min":113,"x_max":1018,"o":"m 113 408 m 1018 408 l 113 408 l 113 562 l 1018 562 l 1018 408 z "},"‗":{"ha":753,"x_min":62,"x_max":680,"o":"m 62 0 m 680 -303 l 62 -303 l 62 -177 l 680 -177 l 680 -303 m 680 -126 l 62 -126 l 62 0 l 680 0 l 680 -126 z "},"‘":{"ha":326,"x_min":65,"x_max":287,"o":"m 65 815 q 101 957 65 882 q 189 1080 136 1031 l 287 1027 q 246 929 260 979 q 232 815 232 878 l 232 684 l 65 684 l 65 815 z "},"’":{"ha":319,"x_min":40,"x_max":261,"o":"m 261 928 q 225 786 261 861 q 138 663 189 711 l 40 717 q 81 814 66 764 q 95 928 95 865 l 95 1058 l 261 1058 l 261 928 z "},"‚":{"ha":346,"x_min":45,"x_max":267,"o":"m 267 45 q 231 -97 267 -22 q 143 -219 195 -172 l 45 -166 q 86 -68 72 -119 q 100 45 100 -18 l 100 195 l 267 195 l 267 45 z "},"‛":{"ha":355,"x_min":55,"x_max":276,"o":"m 55 663 m 55 928 q 91 786 55 861 q 178 663 127 711 l 276 717 q 235 814 250 764 q 221 928 221 865 l 221 1058 l 55 1058 l 55 928 z "},"“":{"ha":565,"x_min":68,"x_max":519,"o":"m 68 684 m 68 815 q 104 957 68 882 q 193 1080 140 1031 l 290 1027 q 249 929 263 979 q 235 815 235 878 l 235 684 l 68 684 l 68 815 m 297 815 q 333 957 297 882 q 421 1080 368 1031 l 519 1027 q 478 929 492 979 q 464 815 464 878 l 464 684 l 297 684 l 297 815 z "},"”":{"ha":570,"x_min":50,"x_max":501,"o":"m 50 663 m 271 928 q 235 786 271 861 q 147 663 199 711 l 50 717 q 90 814 76 764 q 104 928 104 865 l 104 1058 l 271 1058 l 271 928 m 501 928 q 465 786 501 861 q 378 663 429 711 l 280 717 q 321 814 307 764 q 335 928 335 865 l 335 1058 l 501 1058 l 501 928 z "},"„":{"ha":561,"x_min":45,"x_max":496,"o":"m 267 45 q 231 -97 267 -22 q 143 -219 195 -172 l 45 -166 q 86 -68 72 -119 q 100 45 100 -18 l 100 195 l 267 195 l 267 45 m 495 45 q 459 -97 495 -22 q 372 -219 423 -172 l 274 -166 q 315 -68 300 -119 q 329 45 329 -18 l 329 195 l 496 195 l 495 45 z "},"†":{"ha":744,"x_min":33,"x_max":704,"o":"m 704 576 l 466 576 l 466 0 l 268 0 l 268 576 l 33 576 l 33 734 l 268 734 l 268 987 l 466 987 l 466 734 l 704 734 l 704 576 z "},"‡":{"ha":770,"x_min":47,"x_max":718,"o":"m 718 0 l 479 0 l 479 -282 l 281 -282 l 281 0 l 47 0 l 47 152 l 281 152 l 281 581 l 47 581 l 47 734 l 281 734 l 281 987 l 479 987 l 479 734 l 718 734 l 718 581 l 479 581 l 479 152 l 718 152 l 718 0 z "},"•":{"ha":477,"x_min":81,"x_max":404,"o":"m 81 547 q 125 658 81 614 q 242 701 169 701 q 360 658 317 701 q 404 547 404 615 l 404 486 q 360 375 404 417 q 243 333 317 333 q 125 375 169 333 q 81 486 81 417 l 81 547 z "},"‥":{"ha":680,"x_min":93,"x_max":611,"o":"m 93 0 m 290 0 l 93 0 l 93 174 l 290 174 l 290 0 m 611 0 l 414 0 l 414 174 l 611 174 l 611 0 z "},"…":{"ha":991,"x_min":93,"x_max":926,"o":"m 93 0 m 290 0 l 93 0 l 93 174 l 290 174 l 290 0 m 611 0 l 414 0 l 414 174 l 611 174 l 611 0 m 926 0 l 729 0 l 729 174 l 926 174 l 926 0 z "},"‰":{"ha":1303,"x_min":39,"x_max":1268,"o":"m 530 242 q 589 387 530 328 q 745 446 648 446 q 834 427 795 446 q 899 374 873 408 q 964 427 924 408 q 1053 446 1003 446 q 1210 387 1151 446 q 1268 242 1268 328 l 1268 190 q 1210 45 1268 103 q 1055 -14 1152 -14 q 964 5 1004 -14 q 899 58 924 24 q 834 5 873 24 q 746 -14 795 -14 q 589 45 648 -14 q 530 190 530 103 l 530 242 m 39 798 q 94 943 39 884 q 243 1002 150 1002 q 399 943 341 1002 q 458 798 458 884 l 458 745 q 399 601 458 659 q 244 543 341 543 q 95 601 151 543 q 39 745 39 659 l 39 798 m 661 190 q 685 124 661 151 q 746 96 708 96 q 809 122 790 96 q 828 190 828 147 l 828 242 q 806 308 828 281 q 745 336 785 336 q 683 308 704 336 q 661 242 661 281 l 661 190 m 970 190 q 993 124 970 151 q 1055 96 1017 96 q 1118 122 1099 96 q 1137 190 1137 147 l 1137 242 q 1115 308 1137 281 q 1053 336 1093 336 q 991 308 1013 336 q 970 242 970 281 l 970 190 m 160 745 q 182 679 160 706 q 244 652 203 652 q 305 679 283 652 q 327 745 327 706 l 327 798 q 305 864 327 837 q 243 892 283 892 q 181 864 202 892 q 160 798 160 837 l 160 745 m 323 74 l 227 125 l 709 897 l 805 846 l 323 74 z "},"‹":{"ha":387,"x_min":30,"x_max":347,"o":"m 184 373 l 347 102 l 220 102 l 30 367 l 30 380 l 220 644 l 347 644 l 184 373 z "},"›":{"ha":391,"x_min":48,"x_max":365,"o":"m 175 644 l 365 380 l 365 367 l 175 102 l 48 102 l 210 373 l 48 644 l 175 644 z "},"⁄":{"ha":598,"x_min":14,"x_max":593,"o":"m 111 74 l 14 125 l 496 897 l 593 846 l 111 74 z "},"⁴":{"ha":621,"x_min":33,"x_max":578,"o":"m 503 610 l 578 610 l 578 495 l 503 495 l 503 380 l 354 380 l 354 495 l 36 495 l 33 579 l 351 1002 l 503 1002 l 503 610 m 354 610 l 354 812 l 350 814 l 196 610 l 354 610 z "},"ⁿ":{"ha":642,"x_min":94,"x_max":559,"o":"m 208 986 l 230 903 q 293 970 254 946 q 381 994 331 994 q 513 943 467 994 q 559 786 559 892 l 559 443 l 415 443 l 415 744 q 393 842 415 812 q 329 872 372 872 q 273 858 296 872 q 239 818 250 844 l 239 443 l 94 443 l 94 986 l 208 986 z "},"₤":{"ha":814,"x_min":50,"x_max":771,"o":"m 363 311 l 363 309 q 351 221 363 260 q 315 152 339 182 l 612 152 l 620 250 l 771 250 l 771 0 l 95 0 l 95 152 l 102 152 q 150 207 134 161 q 165 309 165 253 l 165 311 l 52 311 l 52 427 l 161 427 l 158 507 l 50 507 l 50 624 l 154 624 l 152 696 q 234 920 152 839 q 452 1002 315 1002 q 679 926 598 1002 q 756 726 759 850 l 755 722 l 562 722 q 530 818 562 787 q 452 849 499 849 q 376 809 404 849 q 349 696 349 769 l 352 624 l 594 624 l 594 507 l 356 507 l 359 427 l 597 427 l 597 311 l 363 311 z "},"₧":{"ha":1207,"x_min":44,"x_max":1169,"o":"m 421 987 q 690 900 593 987 q 786 675 786 813 q 690 442 786 531 q 421 353 593 353 l 357 353 l 357 139 l 463 119 l 463 0 l 44 0 l 44 119 l 150 139 l 150 848 l 44 869 l 44 987 l 150 987 l 421 987 m 357 517 l 421 517 q 539 562 500 517 q 578 673 578 608 q 539 780 578 736 q 421 824 500 824 l 357 824 l 357 517 m 1017 913 l 1017 734 l 1146 734 l 1146 595 l 1017 595 l 1017 221 q 1035 160 1017 178 q 1082 142 1053 142 q 1118 143 1103 142 q 1152 149 1133 145 l 1169 6 q 1103 -9 1136 -4 q 1033 -14 1071 -14 q 875 42 930 -14 q 820 220 820 98 l 820 595 l 712 595 l 712 734 l 820 734 l 820 913 l 1017 913 z "},"€":{"ha":721,"x_min":39,"x_max":673,"o":"m 627 329 l 336 329 l 336 323 q 382 186 336 234 q 509 138 428 138 q 586 143 549 138 q 659 161 624 149 l 673 7 q 593 -9 634 -3 q 509 -14 551 -14 q 241 77 343 -14 q 138 323 138 169 l 138 329 l 39 329 l 39 433 l 138 433 l 138 534 l 39 534 l 39 638 l 138 638 l 138 647 q 240 905 138 808 q 508 1002 342 1002 q 588 996 549 1002 q 673 981 627 991 l 659 825 q 584 843 623 836 q 508 849 546 849 q 382 795 428 849 q 336 648 336 742 l 336 638 l 627 638 l 627 534 l 336 534 l 336 433 l 627 433 l 627 329 z "},"℅":{"ha":968,"x_min":39,"x_max":937,"o":"m 435 722 l 436 718 q 387 594 439 645 q 241 543 335 543 q 92 600 145 543 q 39 745 39 658 l 39 798 q 92 943 39 885 q 239 1002 144 1002 q 387 950 334 1002 q 436 825 439 899 l 435 821 l 309 821 q 291 870 309 849 q 239 892 273 892 q 188 864 205 892 q 170 798 170 837 l 170 745 q 188 679 170 706 q 241 652 206 652 q 291 673 273 652 q 309 722 309 694 l 435 722 m 507 190 q 564 44 507 102 q 723 -14 621 -14 q 880 44 824 -14 q 937 190 937 102 l 937 242 q 880 388 937 330 q 722 446 823 446 q 564 387 621 446 q 507 242 507 329 l 507 190 m 638 242 q 660 308 638 281 q 722 336 681 336 q 783 308 762 336 q 805 242 805 281 l 805 190 q 786 122 805 147 q 723 96 768 96 q 662 124 685 96 q 638 190 638 151 l 638 242 m 785 846 l 689 897 l 207 125 l 303 74 l 785 846 z "},"ℓ":{"ha":671,"x_min":31,"x_max":653,"o":"m 519 -9 l 515 -11 q 255 68 342 -13 q 167 292 167 149 l 167 294 q 100 286 134 289 q 31 283 66 283 l 31 410 q 102 413 68 410 q 167 422 136 416 l 167 699 q 235 921 167 840 q 422 1002 303 1002 q 588 938 524 1002 q 653 768 653 875 l 653 740 q 579 536 653 642 q 375 363 505 431 l 375 328 q 408 204 375 245 q 519 163 440 163 l 519 -9 m 475 739 l 475 768 q 461 822 475 802 q 427 842 448 842 q 389 813 402 842 q 375 726 375 783 l 375 531 l 379 530 q 451 625 426 569 q 475 739 475 680 l 475 739 z "},"№":{"ha":1560,"x_min":6,"x_max":1518,"o":"m 1478 271 l 1083 271 l 1083 371 l 1478 371 l 1478 271 m 1048 771 q 1112 935 1048 871 q 1282 998 1175 998 q 1454 935 1390 998 q 1518 771 1518 871 l 1518 692 q 1454 528 1518 591 q 1284 465 1390 465 q 1112 528 1176 465 q 1048 692 1048 591 l 1048 771 m 1166 692 q 1196 599 1166 634 q 1284 564 1226 564 q 1369 599 1339 564 q 1399 692 1399 634 l 1399 771 q 1369 863 1399 827 q 1282 898 1339 898 q 1196 863 1225 898 q 1166 771 1166 827 l 1166 692 m 1015 987 l 1015 868 l 909 848 l 909 0 l 712 0 l 313 665 l 309 664 l 309 139 l 415 119 l 415 0 l 6 0 l 6 119 l 111 139 l 111 848 l 6 868 l 6 987 l 111 987 l 309 987 l 708 323 l 712 323 l 712 848 l 606 868 l 606 987 l 909 987 l 1015 987 z "},"™":{"ha":840,"x_min":52,"x_max":748,"o":"m 661 812 l 656 812 l 585 621 l 536 621 l 461 823 l 457 822 l 457 621 l 370 621 l 370 987 l 477 987 l 558 742 l 562 742 l 644 987 l 748 987 l 748 621 l 661 621 l 661 812 m 321 916 l 235 916 l 235 622 l 137 622 l 137 916 l 52 916 l 52 987 l 321 987 l 321 916 z "},"℮":{"ha":789,"x_min":54,"x_max":745,"o":"m 660 64 q 537 6 601 26 q 409 -14 473 -14 q 157 98 261 -14 q 54 367 54 210 q 163 634 54 520 q 409 747 273 747 q 647 642 549 747 q 745 380 745 537 l 745 349 l 224 349 l 224 126 q 309 71 261 90 q 409 52 357 52 q 536 72 473 52 q 659 134 600 92 l 660 64 m 409 684 q 311 662 359 684 q 224 601 263 640 l 224 413 l 590 413 l 590 607 q 506 663 553 642 q 409 684 459 684 z "},"⅛":{"ha":1110,"x_min":67,"x_max":1116,"o":"m 67 0 m 296 438 l 153 438 l 153 865 l 67 865 l 67 973 l 296 989 l 296 438 m 296 74 l 200 125 l 682 897 l 779 846 l 296 74 m 1099 401 q 1073 331 1099 362 q 1004 282 1047 300 q 1085 230 1055 263 q 1116 153 1116 196 q 1050 35 1116 77 q 885 -7 985 -7 q 713 35 781 -7 q 645 153 645 77 q 676 229 645 195 q 761 282 707 263 q 688 331 714 300 q 661 401 661 362 q 724 512 661 473 q 884 551 787 551 q 1038 512 977 551 q 1099 401 1099 473 m 973 161 q 947 210 973 191 q 884 229 921 229 q 815 210 843 229 q 787 161 787 191 q 815 115 787 132 q 885 98 843 98 q 948 115 922 98 q 973 161 973 132 m 956 391 q 935 431 956 416 q 884 446 914 446 q 828 431 850 446 q 805 391 805 417 q 828 350 805 366 q 885 334 851 334 q 935 349 914 334 q 956 391 956 365 z "},"⅜":{"ha":1204,"x_min":64,"x_max":1219,"o":"m 64 0 m 281 768 q 343 785 323 768 q 363 833 363 802 q 344 876 363 859 q 287 893 325 893 q 233 878 252 893 q 214 842 214 863 l 79 842 l 77 846 q 133 957 73 915 q 283 998 193 998 q 446 958 386 998 q 506 843 506 918 q 482 775 506 806 q 416 727 458 744 q 490 679 465 711 q 515 600 515 646 q 455 482 515 524 q 290 440 394 440 q 128 483 192 440 q 68 602 64 525 l 70 606 l 205 606 q 227 561 205 577 q 289 545 248 545 q 350 562 327 545 q 373 608 373 578 q 349 660 373 642 q 281 678 326 678 l 205 678 l 205 768 l 281 768 m 422 74 l 326 125 l 808 897 l 904 846 l 422 74 m 1202 401 q 1176 331 1202 362 q 1107 282 1150 300 q 1188 230 1158 263 q 1219 153 1219 196 q 1153 35 1219 77 q 988 -7 1088 -7 q 816 35 884 -7 q 748 153 748 77 q 779 229 748 195 q 864 282 810 263 q 791 331 817 300 q 764 401 764 362 q 827 512 764 473 q 987 551 890 551 q 1141 512 1080 551 q 1202 401 1202 473 m 1076 161 q 1050 210 1076 191 q 987 229 1024 229 q 918 210 946 229 q 890 161 890 191 q 918 115 890 132 q 988 98 946 98 q 1051 115 1025 98 q 1076 161 1076 132 m 1059 391 q 1038 431 1059 416 q 987 446 1017 446 q 931 431 954 446 q 908 391 908 417 q 931 350 908 366 q 988 334 954 334 q 1038 349 1017 334 q 1059 391 1059 365 z "},"⅝":{"ha":1244,"x_min":68,"x_max":1251,"o":"m 68 0 m 89 678 l 124 987 l 495 987 l 495 882 l 250 882 l 238 772 q 282 791 256 783 q 338 799 307 798 q 479 753 428 800 q 530 623 530 706 q 473 486 530 536 q 300 436 416 436 q 134 475 200 436 q 72 591 68 514 l 73 594 l 209 602 q 234 557 209 572 q 300 541 258 541 q 366 562 344 541 q 388 618 388 582 q 366 681 388 657 q 308 705 343 705 q 248 696 269 705 q 217 672 227 686 l 89 678 m 460 74 l 363 125 l 846 897 l 942 846 l 460 74 m 1234 401 q 1208 331 1234 362 q 1139 282 1183 300 q 1221 230 1190 263 q 1251 153 1251 196 q 1186 35 1251 77 q 1021 -7 1120 -7 q 849 35 917 -7 q 781 153 781 77 q 812 229 781 195 q 897 282 843 263 q 823 331 850 300 q 797 401 797 362 q 860 512 797 473 q 1020 551 923 551 q 1174 512 1113 551 q 1234 401 1234 473 m 1109 161 q 1083 210 1109 191 q 1020 229 1057 229 q 951 210 979 229 q 923 161 923 191 q 951 115 923 132 q 1021 98 979 98 q 1083 115 1058 98 q 1109 161 1109 132 m 1091 391 q 1070 431 1091 416 q 1020 446 1050 446 q 963 431 986 446 q 941 391 941 417 q 964 350 941 366 q 1021 334 987 334 q 1070 349 1050 334 q 1091 391 1091 365 z "},"⅞":{"ha":1133,"x_min":72,"x_max":1146,"o":"m 72 0 m 477 881 q 356 713 391 778 q 320 530 320 648 l 320 444 l 178 444 l 178 530 q 231 738 178 647 q 342 881 283 828 l 72 881 l 72 987 l 477 987 l 477 881 m 338 74 l 241 125 l 724 897 l 820 846 l 338 74 m 1129 401 q 1103 331 1129 362 q 1034 282 1078 300 q 1116 230 1085 263 q 1146 153 1146 196 q 1081 35 1146 77 q 916 -7 1015 -7 q 744 35 812 -7 q 675 153 675 77 q 707 229 675 195 q 791 282 738 263 q 718 331 745 300 q 692 401 692 362 q 755 512 692 473 q 915 551 818 551 q 1068 512 1008 551 q 1129 401 1129 473 m 1004 161 q 978 210 1004 191 q 915 229 951 229 q 846 210 873 229 q 818 161 818 191 q 846 115 818 132 q 916 98 873 98 q 978 115 953 98 q 1004 161 1004 132 m 986 391 q 965 431 986 416 q 915 446 945 446 q 858 431 881 446 q 836 391 836 417 q 859 350 836 366 q 916 334 882 334 q 965 349 945 334 q 986 391 986 365 z "},"∂":{"ha":822,"x_min":37,"x_max":764,"o":"m 315 1046 q 646 852 528 1008 q 764 459 764 695 l 764 380 q 657 96 764 206 q 391 -14 551 -14 q 136 81 235 -14 q 37 317 37 176 q 123 564 37 471 q 361 656 209 656 q 464 641 416 656 q 544 598 512 625 l 546 602 q 449 784 524 715 q 253 882 374 853 l 315 1046 m 394 138 q 516 207 467 138 q 566 380 566 277 l 566 446 q 498 493 543 475 q 393 512 454 512 q 275 459 315 512 q 235 317 235 406 q 278 190 235 241 q 394 138 321 138 z "},"∏":{"ha":1025,"x_min":32,"x_max":988,"o":"m 988 868 l 883 848 l 883 -168 l 726 -168 l 726 838 l 294 838 l 294 -168 l 137 -168 l 137 848 l 32 868 l 32 987 l 988 987 l 988 868 z "},"∑":{"ha":858,"x_min":32,"x_max":832,"o":"m 809 737 l 658 737 l 650 835 l 300 835 l 625 416 l 625 394 l 298 -30 l 673 -30 l 682 66 l 832 66 l 832 -182 l 32 -182 l 32 -80 l 418 406 l 32 885 l 32 987 l 809 987 l 809 737 z "},"−":{"ha":759,"x_min":98,"x_max":664,"o":"m 664 408 l 98 408 l 98 562 l 664 562 l 664 408 z "},"√":{"ha":783,"x_min":33,"x_max":753,"o":"m 357 278 l 385 159 l 389 159 l 412 278 l 607 987 l 753 987 l 470 0 l 312 0 l 184 362 l 33 362 l 33 517 l 292 517 l 357 278 z "},"∞":{"ha":1434,"x_min":60,"x_max":1381,"o":"m 1381 348 q 1284 87 1381 189 q 1026 -14 1187 -14 q 846 45 922 -14 q 720 199 770 105 q 592 45 668 104 q 413 -14 515 -14 q 156 87 252 -14 q 60 348 60 189 l 60 385 q 156 645 60 543 q 412 747 252 747 q 592 689 515 747 q 720 540 668 631 q 846 689 770 631 q 1027 747 923 747 q 1284 645 1187 747 q 1381 385 1381 543 l 1381 348 m 1183 385 q 1143 536 1183 478 q 1027 595 1103 595 q 885 516 941 595 q 819 381 829 437 l 819 361 q 885 220 828 303 q 1026 138 941 138 q 1142 195 1102 138 q 1183 348 1183 252 l 1183 385 m 257 348 q 296 195 257 252 q 413 138 336 138 q 554 220 497 138 q 621 361 611 303 l 621 381 q 553 516 609 437 q 412 595 498 595 q 297 536 336 595 q 257 385 257 478 l 257 348 z "},"∫":{"ha":481,"x_min":-65,"x_max":473,"o":"m 291 -27 q 223 -227 291 -157 q 33 -296 155 -296 q -17 -294 5 -296 q -65 -285 -40 -291 l -55 -135 q -22 -141 -39 -139 q 12 -144 -5 -144 q 72 -113 50 -144 q 94 -27 94 -83 l 94 815 q 165 1005 94 939 q 365 1072 236 1072 q 415 1068 390 1072 q 473 1058 441 1065 l 456 912 q 425 918 439 916 q 391 920 410 920 q 317 892 342 920 q 291 815 291 865 l 291 -27 l 291 -27 z "},"≈":{"ha":812,"x_min":79,"x_max":740,"o":"m 86 595 q 160 667 118 641 q 246 694 202 694 q 325 684 294 694 q 415 644 357 673 q 496 608 465 618 q 573 597 528 597 q 659 624 616 597 q 733 696 701 650 l 740 552 q 665 479 707 505 q 580 453 623 453 q 503 464 534 453 q 422 500 472 474 q 332 539 363 528 q 253 549 300 550 q 167 523 209 549 q 93 450 125 496 l 86 595 m 79 303 q 153 376 111 349 q 239 402 195 402 q 318 392 287 403 q 408 353 350 381 q 490 316 458 327 q 566 306 521 306 q 652 332 610 306 q 726 405 694 358 l 733 260 q 659 188 701 214 q 573 161 616 161 q 496 172 528 161 q 415 208 465 182 q 325 248 357 237 q 246 258 294 258 q 160 231 202 258 q 86 159 118 205 l 79 303 z "},"≠":{"ha":747,"x_min":83,"x_max":691,"o":"m 571 673 l 691 673 l 691 517 l 484 517 l 408 380 l 691 380 l 691 225 l 322 225 l 234 66 l 157 113 l 220 225 l 83 225 l 83 380 l 306 380 l 382 517 l 83 517 l 83 673 l 469 673 l 543 807 l 620 761 l 571 673 z "},"≤":{"ha":692,"x_min":54,"x_max":642,"o":"m 54 24 m 248 488 l 248 484 l 638 360 l 638 194 l 54 418 l 54 557 l 638 780 l 638 614 l 248 488 m 642 24 l 76 24 l 76 179 l 642 179 l 642 24 z "},"≥":{"ha":701,"x_min":74,"x_max":665,"o":"m 74 24 m 471 495 l 471 499 l 74 625 l 74 789 l 665 565 l 665 427 l 74 203 l 74 368 l 471 495 m 642 24 l 76 24 l 76 179 l 642 179 l 642 24 z "},"◊":{"ha":721,"x_min":24,"x_max":713,"o":"m 273 987 l 463 987 l 713 493 l 463 0 l 274 0 l 24 493 l 273 987 m 505 493 l 382 801 l 370 847 l 366 847 l 352 801 l 231 493 l 354 186 l 367 140 l 371 140 l 385 186 l 505 493 z "},"":{"ha":337,"x_min":55,"x_max":254,"o":"m 254 103 q 225 -42 254 32 q 153 -165 197 -117 l 55 -113 q 96 -17 82 -64 q 110 94 110 31 l 110 184 l 254 184 l 254 103 z "},"ﬁ":{"ha":907,"x_min":23,"x_max":880,"o":"m 23 595 l 23 734 l 132 734 l 132 784 q 217 997 132 922 q 454 1072 301 1072 q 559 1062 507 1072 q 678 1031 610 1051 l 650 876 q 560 899 600 890 q 467 907 519 907 q 365 876 399 907 q 330 784 330 844 l 330 734 l 775 734 l 775 139 l 880 119 l 880 0 l 481 0 l 481 119 l 577 139 l 577 595 l 330 595 l 330 139 l 426 119 l 426 0 l 26 0 l 26 119 l 132 139 l 132 595 l 23 595 z "},"ﬂ":{"ha":964,"x_min":26,"x_max":931,"o":"m 637 898 q 564 911 600 906 q 484 916 527 916 q 369 878 408 916 q 330 766 330 840 l 330 734 l 493 734 l 493 595 l 330 595 l 330 139 l 426 119 l 426 0 l 26 0 l 26 119 l 132 139 l 132 595 l 40 595 l 40 734 l 132 734 l 132 766 q 221 992 132 913 q 471 1072 310 1072 q 587 1062 530 1072 q 719 1031 644 1051 l 836 1031 l 836 139 l 931 119 l 931 0 l 542 0 l 542 119 l 637 139 l 637 898 l 637 898 z "},"﻿":{"ha":0,"x_min":0,"x_max":0,"o":""},"￼":{"ha":1487,"x_min":85,"x_max":1400,"o":"m 583 393 q 539 500 583 458 q 427 542 496 542 q 314 500 357 542 q 271 393 271 458 l 271 317 q 314 210 271 251 q 428 169 357 169 q 540 210 496 169 q 583 317 583 251 l 583 393 m 779 171 q 877 198 841 171 q 912 276 912 224 q 894 330 912 307 q 843 363 876 354 q 885 394 870 373 q 900 441 900 415 q 862 518 900 492 q 756 543 825 543 l 629 543 l 629 171 l 779 171 m 521 317 q 496 244 521 271 q 428 218 471 218 q 358 244 383 218 q 333 317 333 271 l 333 393 q 358 466 333 439 q 427 493 383 493 q 495 466 470 493 q 521 393 521 439 l 521 317 m 1168 288 q 1149 240 1168 258 q 1103 222 1131 222 q 1051 237 1069 222 q 1033 283 1033 252 l 976 283 l 975 279 q 1006 200 970 227 q 1103 172 1042 172 q 1194 203 1158 172 q 1230 288 1230 235 l 1230 545 l 1168 545 l 1168 288 m 85 -270 l 85 -56 l 162 -56 l 162 -193 l 295 -193 l 295 -270 l 85 -270 m 1190 -270 l 1190 -193 l 1325 -193 l 1325 -56 l 1400 -56 l 1400 -270 l 1190 -270 m 85 793 l 85 986 l 295 986 l 295 907 l 162 907 l 162 793 l 85 793 m 1190 907 l 1190 986 l 1400 986 l 1400 793 l 1325 793 l 1325 907 l 1190 907 m 779 336 l 782 336 q 831 319 814 335 q 848 278 848 304 q 830 236 848 251 q 779 222 812 222 l 693 222 l 693 336 l 779 336 m 920 907 l 920 986 l 1108 986 l 1108 907 l 920 907 m 649 907 l 649 986 l 837 986 l 837 907 l 649 907 m 378 907 l 378 986 l 566 986 l 566 907 l 378 907 m 920 -270 l 920 -193 l 1108 -193 l 1108 -270 l 920 -270 m 649 -270 l 649 -193 l 837 -193 l 837 -270 l 649 -270 m 378 -270 l 378 -193 l 566 -193 l 566 -270 l 378 -270 m 693 486 l 756 486 q 817 475 798 486 q 836 438 836 465 q 816 397 836 411 q 756 384 795 384 l 693 384 l 693 486 m 162 282 l 85 282 l 85 453 l 162 453 l 162 282 m 162 538 l 85 538 l 85 708 l 162 708 l 162 538 m 162 28 l 85 28 l 85 197 l 162 197 l 162 28 m 1400 282 l 1325 282 l 1325 453 l 1400 453 l 1400 282 m 1400 538 l 1325 538 l 1325 708 l 1400 708 l 1400 538 m 1400 28 l 1325 28 l 1325 197 l 1400 197 l 1400 28 z "},"�":{"ha":1314,"x_min":9,"x_max":1308,"o":"m 657 1097 l 1308 436 l 657 -225 l 9 436 l 657 1097 m 713 273 q 722 329 713 309 q 758 368 731 350 q 839 438 807 394 q 871 536 871 483 q 813 674 871 623 q 656 725 756 725 q 508 681 564 725 q 453 549 451 637 l 455 545 l 587 545 q 607 597 587 579 q 656 614 627 614 q 713 593 693 614 q 733 536 733 572 q 716 476 733 502 q 670 431 699 450 q 596 363 616 393 q 576 273 576 332 l 713 273 m 713 211 l 576 211 l 576 96 l 713 96 l 713 211 m 663 -374 l 665 -374 l 665 -376 l 663 -376 l 663 -374 m 661 1455 l 664 1455 l 664 1453 l 661 1453 l 661 1455 z "}," ":{"ha":340,"x_min":0,"x_max":0,"o":"z "},"­":{"ha":553,"x_min":89,"x_max":471,"o":"m 89 346 m 471 346 l 89 346 l 89 498 l 471 498 l 471 346 z "},"Đ":{"ha":977,"x_min":31,"x_max":918,"o":"m 503 987 q 801 872 684 987 q 918 575 918 756 l 918 412 q 801 115 918 230 q 503 0 684 0 l 58 0 l 58 119 l 163 139 l 163 451 l 31 451 l 31 556 l 163 556 l 163 848 l 58 868 l 58 987 l 503 987 m 507 451 l 361 451 l 361 152 l 492 152 q 659 224 599 152 q 720 412 720 296 l 720 576 q 659 763 720 691 q 492 835 599 835 l 361 835 l 361 556 l 507 556 l 507 451 z "},"Ð":{"ha":977,"x_min":31,"x_max":918,"o":"m 503 987 q 801 872 684 987 q 918 575 918 756 l 918 412 q 801 115 918 230 q 503 0 684 0 l 58 0 l 58 119 l 163 139 l 163 451 l 31 451 l 31 556 l 163 556 l 163 848 l 58 868 l 58 987 l 503 987 m 507 451 l 361 451 l 361 152 l 492 152 q 659 224 599 152 q 720 412 720 296 l 720 576 q 659 763 720 691 q 492 835 599 835 l 361 835 l 361 556 l 507 556 l 507 451 z "},"ħ":{"ha":903,"x_min":6,"x_max":882,"o":"m 52 119 l 148 139 l 148 760 l 6 760 l 6 865 l 148 865 l 148 918 l 42 939 l 42 1058 l 345 1058 l 345 865 l 481 865 l 481 760 l 345 760 l 345 640 q 430 719 380 691 q 541 747 480 747 q 722 671 656 747 q 787 435 787 595 l 787 139 l 882 119 l 882 0 l 504 0 l 504 119 l 589 139 l 589 437 q 559 558 589 522 q 469 593 529 593 q 397 578 428 593 q 345 536 366 564 l 345 139 l 431 119 l 431 0 l 52 0 l 52 119 z "},"Ŧ":{"ha":934,"x_min":27,"x_max":907,"o":"m 907 987 l 907 724 l 755 724 l 747 835 l 566 835 l 566 582 l 706 582 l 706 477 l 566 477 l 566 139 l 671 119 l 671 0 l 262 0 l 262 119 l 368 139 l 368 477 l 231 477 l 231 582 l 368 582 l 368 835 l 186 835 l 178 724 l 27 724 l 27 987 l 907 987 z "},"ŧ":{"ha":518,"x_min":1,"x_max":487,"o":"m 335 913 l 335 734 l 464 734 l 464 595 l 335 595 l 335 491 l 477 491 l 477 386 l 335 386 l 335 221 q 353 160 335 178 q 400 142 370 142 q 436 143 420 142 q 470 149 451 145 l 487 6 q 421 -9 454 -4 q 351 -14 389 -14 q 193 42 248 -14 q 138 220 138 98 l 138 386 l 1 386 l 1 491 l 138 491 l 138 595 l 30 595 l 30 734 l 138 734 l 138 913 l 335 913 z "},"À":{"ha":998,"x_min":28,"x_max":970,"o":"m 28 0 m 28 119 l 98 129 l 399 987 l 602 987 l 900 129 l 970 119 l 970 0 l 634 0 l 634 119 l 703 131 l 659 267 l 339 267 l 296 131 l 364 119 l 364 0 l 28 0 l 28 119 m 386 412 l 612 412 l 501 760 l 497 760 l 386 412 m 600 1063 l 439 1063 l 255 1240 l 256 1244 l 467 1244 l 600 1063 z "},"Á":{"ha":998,"x_min":28,"x_max":970,"o":"m 28 0 m 28 119 l 98 129 l 399 987 l 602 987 l 900 129 l 970 119 l 970 0 l 634 0 l 634 119 l 703 131 l 659 267 l 339 267 l 296 131 l 364 119 l 364 0 l 28 0 l 28 119 m 386 412 l 612 412 l 501 760 l 497 760 l 386 412 m 511 1238 l 721 1238 l 722 1234 l 535 1058 l 376 1058 l 511 1238 z "},"Â":{"ha":998,"x_min":28,"x_max":970,"o":"m 28 0 m 28 119 l 98 129 l 399 987 l 602 987 l 900 129 l 970 119 l 970 0 l 634 0 l 634 119 l 703 131 l 659 267 l 339 267 l 296 131 l 364 119 l 364 0 l 28 0 l 28 119 m 386 412 l 612 412 l 501 760 l 497 760 l 386 412 m 747 1088 l 747 1072 l 600 1072 l 495 1171 l 391 1072 l 247 1072 l 247 1090 l 438 1253 l 553 1253 l 747 1088 z "},"Ã":{"ha":998,"x_min":28,"x_max":970,"o":"m 28 0 m 28 119 l 98 129 l 399 987 l 602 987 l 900 129 l 970 119 l 970 0 l 634 0 l 634 119 l 703 131 l 659 267 l 339 267 l 296 131 l 364 119 l 364 0 l 28 0 l 28 119 m 386 412 l 612 412 l 501 760 l 497 760 l 386 412 m 743 1245 q 702 1134 743 1180 q 600 1088 662 1088 q 493 1118 553 1088 q 397 1147 433 1147 q 356 1125 373 1147 q 340 1073 340 1103 l 235 1101 q 275 1212 235 1165 q 376 1259 315 1259 q 479 1230 414 1259 q 579 1200 544 1200 q 620 1222 603 1200 q 637 1276 637 1244 l 743 1245 z "},"Ä":{"ha":998,"x_min":28,"x_max":970,"o":"m 28 0 m 28 119 l 98 129 l 399 987 l 602 987 l 900 129 l 970 119 l 970 0 l 634 0 l 634 119 l 703 131 l 659 267 l 339 267 l 296 131 l 364 119 l 364 0 l 28 0 l 28 119 m 386 412 l 612 412 l 501 760 l 497 760 l 386 412 m 747 1086 l 566 1086 l 566 1224 l 747 1224 l 747 1086 m 408 1086 l 227 1086 l 227 1224 l 408 1224 l 408 1086 z "},"Å":{"ha":998,"x_min":28,"x_max":970,"o":"m 28 0 m 28 119 l 98 129 l 399 987 l 602 987 l 900 129 l 970 119 l 970 0 l 634 0 l 634 119 l 703 131 l 659 267 l 339 267 l 296 131 l 364 119 l 364 0 l 28 0 l 28 119 m 386 412 l 612 412 l 501 760 l 497 760 l 386 412 m 352 1183 q 394 1278 352 1240 q 496 1316 435 1316 q 597 1278 556 1316 q 638 1183 638 1240 q 597 1090 638 1126 q 496 1053 556 1053 q 393 1090 435 1053 q 352 1183 352 1126 m 430 1183 q 449 1136 430 1154 q 496 1117 468 1117 q 542 1136 524 1117 q 559 1183 559 1154 q 542 1232 559 1213 q 496 1251 524 1251 q 449 1232 468 1251 q 430 1183 430 1213 z "},"Ǻ":{"ha":998,"x_min":28,"x_max":970,"o":"m 28 0 m 28 119 l 98 129 l 399 987 l 602 987 l 900 129 l 970 119 l 970 0 l 634 0 l 634 119 l 703 131 l 659 267 l 339 267 l 296 131 l 364 119 l 364 0 l 28 0 l 28 119 m 386 412 l 612 412 l 501 760 l 497 760 l 386 412 m 576 1366 l 749 1366 l 750 1362 l 572 1227 l 454 1227 l 452 1230 l 576 1366 m 361 1074 q 400 1163 361 1127 q 498 1199 440 1199 q 594 1163 555 1199 q 633 1074 633 1127 q 594 985 633 1020 q 498 951 555 951 q 400 986 440 951 q 361 1074 361 1021 m 437 1074 q 455 1031 437 1048 q 498 1015 472 1015 q 540 1031 524 1015 q 557 1074 557 1048 q 540 1118 557 1101 q 498 1135 524 1135 q 455 1118 472 1135 q 437 1074 437 1101 z "},"Ç":{"ha":900,"x_min":35,"x_max":847,"o":"m 35 0 m 847 654 l 700 654 l 680 786 q 606 832 650 815 q 501 849 562 849 q 303 755 372 849 q 233 511 233 662 l 233 477 q 302 232 233 326 q 498 138 372 138 q 605 155 556 138 q 680 201 653 172 l 700 332 l 847 332 l 847 137 q 695 27 787 68 q 488 -14 602 -14 q 162 123 289 -14 q 35 477 35 261 l 35 510 q 161 863 35 725 q 488 1002 288 1002 q 694 960 602 1002 q 847 850 787 918 l 847 654 m 549 3 l 541 -36 q 614 -71 585 -43 q 643 -153 643 -99 q 581 -269 643 -226 q 405 -313 519 -313 l 400 -203 q 455 -190 435 -203 q 475 -147 475 -176 q 454 -108 475 -119 q 379 -94 432 -97 l 400 3 l 549 3 z "},"È":{"ha":887,"x_min":38,"x_max":819,"o":"m 38 0 m 675 434 l 341 434 l 341 152 l 660 152 l 669 270 l 819 270 l 819 0 l 38 0 l 38 119 l 143 139 l 143 848 l 38 868 l 38 987 l 143 987 l 818 987 l 818 717 l 666 717 l 657 835 l 341 835 l 341 587 l 675 587 l 675 434 m 539 1063 l 379 1063 l 195 1240 l 196 1244 l 406 1244 l 539 1063 z "},"É":{"ha":887,"x_min":38,"x_max":819,"o":"m 38 0 m 675 434 l 341 434 l 341 152 l 660 152 l 669 270 l 819 270 l 819 0 l 38 0 l 38 119 l 143 139 l 143 848 l 38 868 l 38 987 l 143 987 l 818 987 l 818 717 l 666 717 l 657 835 l 341 835 l 341 587 l 675 587 l 675 434 m 451 1238 l 661 1238 l 662 1234 l 475 1058 l 316 1058 l 451 1238 z "},"Ê":{"ha":887,"x_min":38,"x_max":819,"o":"m 38 0 m 675 434 l 341 434 l 341 152 l 660 152 l 669 270 l 819 270 l 819 0 l 38 0 l 38 119 l 143 139 l 143 848 l 38 868 l 38 987 l 143 987 l 818 987 l 818 717 l 666 717 l 657 835 l 341 835 l 341 587 l 675 587 l 675 434 m 687 1088 l 687 1072 l 540 1072 l 435 1171 l 330 1072 l 186 1072 l 186 1090 l 378 1253 l 492 1253 l 687 1088 z "},"Ë":{"ha":887,"x_min":38,"x_max":819,"o":"m 38 0 m 675 434 l 341 434 l 341 152 l 660 152 l 669 270 l 819 270 l 819 0 l 38 0 l 38 119 l 143 139 l 143 848 l 38 868 l 38 987 l 143 987 l 818 987 l 818 717 l 666 717 l 657 835 l 341 835 l 341 587 l 675 587 l 675 434 m 686 1086 l 505 1086 l 505 1224 l 686 1224 l 686 1086 m 347 1086 l 166 1086 l 166 1224 l 347 1224 l 347 1086 z "},"Ì":{"ha":484,"x_min":-9,"x_max":446,"o":"m 0 0 m 37 868 l 37 987 l 446 987 l 446 868 l 340 848 l 340 139 l 446 119 l 446 0 l 37 0 l 37 119 l 143 139 l 143 848 l 37 868 m 335 1063 l 175 1063 l -9 1239 l -8 1243 l 202 1243 l 335 1063 z "},"Í":{"ha":484,"x_min":37,"x_max":457,"o":"m 37 0 m 37 868 l 37 987 l 446 987 l 446 868 l 340 848 l 340 139 l 446 119 l 446 0 l 37 0 l 37 119 l 143 139 l 143 848 l 37 868 m 246 1238 l 456 1238 l 457 1234 l 270 1057 l 111 1057 l 246 1238 z "},"Î":{"ha":484,"x_min":-18,"x_max":483,"o":"m 0 0 m 37 868 l 37 987 l 446 987 l 446 868 l 340 848 l 340 139 l 446 119 l 446 0 l 37 0 l 37 119 l 143 139 l 143 848 l 37 868 m 483 1087 l 483 1072 l 336 1072 l 231 1171 l 126 1072 l -18 1072 l -18 1089 l 174 1252 l 288 1252 l 483 1087 z "},"Ï":{"ha":484,"x_min":-38,"x_max":482,"o":"m 0 0 m 37 868 l 37 987 l 446 987 l 446 868 l 340 848 l 340 139 l 446 119 l 446 0 l 37 0 l 37 119 l 143 139 l 143 848 l 37 868 m 482 1085 l 301 1085 l 301 1223 l 482 1223 l 482 1085 m 143 1085 l -38 1085 l -38 1223 l 143 1223 l 143 1085 z "},"Ñ":{"ha":1073,"x_min":38,"x_max":1047,"o":"m 38 0 m 1047 987 l 1047 868 l 941 848 l 941 0 l 744 0 l 345 665 l 341 664 l 341 139 l 447 119 l 447 0 l 38 0 l 38 119 l 143 139 l 143 848 l 38 868 l 38 987 l 143 987 l 341 987 l 740 323 l 744 323 l 744 848 l 638 868 l 638 987 l 941 987 l 1047 987 m 780 1245 q 740 1134 780 1180 q 637 1088 699 1088 q 530 1118 590 1088 q 435 1147 470 1147 q 394 1125 410 1147 q 377 1073 377 1103 l 272 1101 q 312 1212 272 1165 q 414 1259 353 1259 q 516 1230 452 1259 q 616 1200 581 1200 q 657 1222 640 1200 q 675 1276 675 1244 l 780 1245 z "},"Ò":{"ha":982,"x_min":45,"x_max":941,"o":"m 45 0 m 941 486 q 817 127 941 269 q 492 -14 692 -14 q 169 127 292 -14 q 45 486 45 269 l 45 501 q 168 859 45 717 q 491 1002 291 1002 q 816 859 692 1002 q 941 501 941 717 l 941 486 m 743 503 q 680 751 743 656 q 491 847 616 847 q 305 752 366 847 q 243 503 243 657 l 243 486 q 306 235 243 330 q 492 140 368 140 q 680 235 617 140 q 743 486 743 330 l 743 503 m 597 1063 l 437 1063 l 252 1239 l 254 1243 l 464 1243 l 597 1063 z "},"Ó":{"ha":982,"x_min":45,"x_max":941,"o":"m 45 0 m 941 486 q 817 127 941 269 q 492 -14 692 -14 q 169 127 292 -14 q 45 486 45 269 l 45 501 q 168 859 45 717 q 491 1002 291 1002 q 816 859 692 1002 q 941 501 941 717 l 941 486 m 743 503 q 680 751 743 656 q 491 847 616 847 q 305 752 366 847 q 243 503 243 657 l 243 486 q 306 235 243 330 q 492 140 368 140 q 680 235 617 140 q 743 486 743 330 l 743 503 m 509 1238 l 718 1238 l 720 1234 l 532 1057 l 374 1057 l 509 1238 z "},"Ô":{"ha":982,"x_min":45,"x_max":941,"o":"m 45 0 m 941 486 q 817 127 941 269 q 492 -14 692 -14 q 169 127 292 -14 q 45 486 45 269 l 45 501 q 168 859 45 717 q 491 1002 291 1002 q 816 859 692 1002 q 941 501 941 717 l 941 486 m 743 503 q 680 751 743 656 q 491 847 616 847 q 305 752 366 847 q 243 503 243 657 l 243 486 q 306 235 243 330 q 492 140 368 140 q 680 235 617 140 q 743 486 743 330 l 743 503 m 745 1087 l 745 1072 l 597 1072 l 492 1171 l 388 1072 l 244 1072 l 244 1089 l 435 1252 l 550 1252 l 745 1087 z "},"Õ":{"ha":982,"x_min":45,"x_max":941,"o":"m 45 0 m 941 486 q 817 127 941 269 q 492 -14 692 -14 q 169 127 292 -14 q 45 486 45 269 l 45 501 q 168 859 45 717 q 491 1002 291 1002 q 816 859 692 1002 q 941 501 941 717 l 941 486 m 743 503 q 680 751 743 656 q 491 847 616 847 q 305 752 366 847 q 243 503 243 657 l 243 486 q 306 235 243 330 q 492 140 368 140 q 680 235 617 140 q 743 486 743 330 l 743 503 m 740 1244 q 700 1134 740 1179 q 597 1088 659 1088 q 490 1117 550 1088 q 395 1147 430 1147 q 354 1125 370 1147 q 337 1072 337 1103 l 232 1101 q 272 1212 232 1164 q 374 1259 313 1259 q 476 1229 412 1259 q 576 1200 541 1200 q 617 1221 600 1200 q 635 1275 635 1243 l 740 1244 z "},"Ö":{"ha":982,"x_min":45,"x_max":941,"o":"m 45 0 m 941 486 q 817 127 941 269 q 492 -14 692 -14 q 169 127 292 -14 q 45 486 45 269 l 45 501 q 168 859 45 717 q 491 1002 291 1002 q 816 859 692 1002 q 941 501 941 717 l 941 486 m 743 503 q 680 751 743 656 q 491 847 616 847 q 305 752 366 847 q 243 503 243 657 l 243 486 q 306 235 243 330 q 492 140 368 140 q 680 235 617 140 q 743 486 743 330 l 743 503 m 744 1085 l 563 1085 l 563 1223 l 744 1223 l 744 1085 m 405 1085 l 224 1085 l 224 1223 l 405 1223 l 405 1085 z "},"Ù":{"ha":1049,"x_min":26,"x_max":1029,"o":"m 26 0 m 435 987 l 435 868 l 330 848 l 330 332 q 382 186 330 235 q 526 138 435 138 q 672 186 619 138 q 725 332 725 234 l 725 848 l 620 868 l 620 987 l 1029 987 l 1029 868 l 923 848 l 923 332 q 813 76 923 166 q 526 -14 704 -14 q 240 76 349 -14 q 132 332 132 166 l 132 848 l 26 868 l 26 987 l 132 987 l 330 987 l 435 987 m 631 1063 l 471 1063 l 287 1240 l 288 1244 l 498 1244 l 631 1063 z "},"Ú":{"ha":1049,"x_min":26,"x_max":1029,"o":"m 26 0 m 435 987 l 435 868 l 330 848 l 330 332 q 382 186 330 235 q 526 138 435 138 q 672 186 619 138 q 725 332 725 234 l 725 848 l 620 868 l 620 987 l 1029 987 l 1029 868 l 923 848 l 923 332 q 813 76 923 166 q 526 -14 704 -14 q 240 76 349 -14 q 132 332 132 166 l 132 848 l 26 868 l 26 987 l 132 987 l 330 987 l 435 987 m 543 1238 l 753 1238 l 754 1234 l 567 1058 l 408 1058 l 543 1238 z "},"Û":{"ha":1049,"x_min":26,"x_max":1029,"o":"m 26 0 m 435 987 l 435 868 l 330 848 l 330 332 q 382 186 330 235 q 526 138 435 138 q 672 186 619 138 q 725 332 725 234 l 725 848 l 620 868 l 620 987 l 1029 987 l 1029 868 l 923 848 l 923 332 q 813 76 923 166 q 526 -14 704 -14 q 240 76 349 -14 q 132 332 132 166 l 132 848 l 26 868 l 26 987 l 132 987 l 330 987 l 435 987 m 779 1088 l 779 1072 l 632 1072 l 527 1171 l 422 1072 l 279 1072 l 279 1090 l 470 1253 l 585 1253 l 779 1088 z "},"Ü":{"ha":1049,"x_min":26,"x_max":1029,"o":"m 26 0 m 435 987 l 435 868 l 330 848 l 330 332 q 382 186 330 235 q 526 138 435 138 q 672 186 619 138 q 725 332 725 234 l 725 848 l 620 868 l 620 987 l 1029 987 l 1029 868 l 923 848 l 923 332 q 813 76 923 166 q 526 -14 704 -14 q 240 76 349 -14 q 132 332 132 166 l 132 848 l 26 868 l 26 987 l 132 987 l 330 987 l 435 987 m 779 1086 l 597 1086 l 597 1224 l 779 1224 l 779 1086 m 439 1086 l 258 1086 l 258 1224 l 439 1224 l 439 1086 z "},"Ý":{"ha":948,"x_min":24,"x_max":922,"o":"m 24 0 m 398 868 l 317 857 l 471 532 l 475 532 l 628 857 l 548 868 l 548 987 l 922 987 l 922 868 l 838 854 l 569 347 l 569 139 l 675 119 l 675 0 l 266 0 l 266 119 l 372 139 l 372 357 l 108 854 l 24 868 l 24 987 l 398 987 l 398 868 m 499 1238 l 709 1238 l 710 1234 l 523 1058 l 364 1058 l 499 1238 z "},"à":{"ha":763,"x_min":50,"x_max":739,"o":"m 50 0 m 510 0 q 496 38 502 18 q 486 77 490 57 q 400 11 451 36 q 285 -14 350 -14 q 114 44 177 -14 q 50 204 50 103 q 133 363 50 307 q 376 420 216 420 l 477 420 l 477 492 q 446 574 477 545 q 356 603 416 603 q 296 595 322 603 q 253 576 269 587 l 240 498 l 91 498 l 92 661 q 216 722 146 697 q 369 747 286 747 q 590 681 505 747 q 675 490 675 614 l 675 187 q 676 155 675 170 q 678 127 676 140 l 739 119 l 739 0 l 510 0 m 338 132 q 420 152 383 132 q 477 200 456 171 l 477 312 l 376 312 q 280 282 313 312 q 248 212 248 253 q 272 153 248 174 q 338 132 296 132 m 493 844 l 333 844 l 149 1020 l 150 1024 l 360 1024 l 493 844 z "},"á":{"ha":763,"x_min":50,"x_max":739,"o":"m 50 0 m 510 0 q 496 38 502 18 q 486 77 490 57 q 400 11 451 36 q 285 -14 350 -14 q 114 44 177 -14 q 50 204 50 103 q 133 363 50 307 q 376 420 216 420 l 477 420 l 477 492 q 446 574 477 545 q 356 603 416 603 q 296 595 322 603 q 253 576 269 587 l 240 498 l 91 498 l 92 661 q 216 722 146 697 q 369 747 286 747 q 590 681 505 747 q 675 490 675 614 l 675 187 q 676 155 675 170 q 678 127 676 140 l 739 119 l 739 0 l 510 0 m 338 132 q 420 152 383 132 q 477 200 456 171 l 477 312 l 376 312 q 280 282 313 312 q 248 212 248 253 q 272 153 248 174 q 338 132 296 132 m 405 1019 l 614 1019 l 616 1015 l 429 838 l 270 838 l 405 1019 z "},"â":{"ha":763,"x_min":50,"x_max":739,"o":"m 50 0 m 510 0 q 496 38 502 18 q 486 77 490 57 q 400 11 451 36 q 285 -14 350 -14 q 114 44 177 -14 q 50 204 50 103 q 133 363 50 307 q 376 420 216 420 l 477 420 l 477 492 q 446 574 477 545 q 356 603 416 603 q 296 595 322 603 q 253 576 269 587 l 240 498 l 91 498 l 92 661 q 216 722 146 697 q 369 747 286 747 q 590 681 505 747 q 675 490 675 614 l 675 187 q 676 155 675 170 q 678 127 676 140 l 739 119 l 739 0 l 510 0 m 338 132 q 420 152 383 132 q 477 200 456 171 l 477 312 l 376 312 q 280 282 313 312 q 248 212 248 253 q 272 153 248 174 q 338 132 296 132 m 641 868 l 641 852 l 494 852 l 389 951 l 284 852 l 140 852 l 140 870 l 332 1033 l 446 1033 l 641 868 z "},"ã":{"ha":763,"x_min":50,"x_max":739,"o":"m 50 0 m 510 0 q 496 38 502 18 q 486 77 490 57 q 400 11 451 36 q 285 -14 350 -14 q 114 44 177 -14 q 50 204 50 103 q 133 363 50 307 q 376 420 216 420 l 477 420 l 477 492 q 446 574 477 545 q 356 603 416 603 q 296 595 322 603 q 253 576 269 587 l 240 498 l 91 498 l 92 661 q 216 722 146 697 q 369 747 286 747 q 590 681 505 747 q 675 490 675 614 l 675 187 q 676 155 675 170 q 678 127 676 140 l 739 119 l 739 0 l 510 0 m 338 132 q 420 152 383 132 q 477 200 456 171 l 477 312 l 376 312 q 280 282 313 312 q 248 212 248 253 q 272 153 248 174 q 338 132 296 132 m 636 1025 q 596 915 636 960 q 494 869 555 869 q 386 898 446 869 q 291 928 326 928 q 250 906 267 928 q 233 853 233 884 l 128 882 q 169 992 128 945 q 270 1040 209 1040 q 373 1010 308 1040 q 473 981 437 981 q 514 1002 496 981 q 531 1056 531 1024 l 636 1025 z "},"ä":{"ha":763,"x_min":50,"x_max":739,"o":"m 50 0 m 510 0 q 496 38 502 18 q 486 77 490 57 q 400 11 451 36 q 285 -14 350 -14 q 114 44 177 -14 q 50 204 50 103 q 133 363 50 307 q 376 420 216 420 l 477 420 l 477 492 q 446 574 477 545 q 356 603 416 603 q 296 595 322 603 q 253 576 269 587 l 240 498 l 91 498 l 92 661 q 216 722 146 697 q 369 747 286 747 q 590 681 505 747 q 675 490 675 614 l 675 187 q 676 155 675 170 q 678 127 676 140 l 739 119 l 739 0 l 510 0 m 338 132 q 420 152 383 132 q 477 200 456 171 l 477 312 l 376 312 q 280 282 313 312 q 248 212 248 253 q 272 153 248 174 q 338 132 296 132 m 640 866 l 459 866 l 459 1004 l 640 1004 l 640 866 m 301 866 l 120 866 l 120 1004 l 301 1004 l 301 866 z "},"å":{"ha":763,"x_min":50,"x_max":739,"o":"m 50 0 m 510 0 q 496 38 502 18 q 486 77 490 57 q 400 11 451 36 q 285 -14 350 -14 q 114 44 177 -14 q 50 204 50 103 q 133 363 50 307 q 376 420 216 420 l 477 420 l 477 492 q 446 574 477 545 q 356 603 416 603 q 296 595 322 603 q 253 576 269 587 l 240 498 l 91 498 l 92 661 q 216 722 146 697 q 369 747 286 747 q 590 681 505 747 q 675 490 675 614 l 675 187 q 676 155 675 170 q 678 127 676 140 l 739 119 l 739 0 l 510 0 m 338 132 q 420 152 383 132 q 477 200 456 171 l 477 312 l 376 312 q 280 282 313 312 q 248 212 248 253 q 272 153 248 174 q 338 132 296 132 m 245 964 q 287 1058 245 1020 q 390 1097 329 1097 q 491 1058 450 1097 q 532 964 532 1020 q 491 870 532 907 q 390 833 450 833 q 287 870 328 833 q 245 964 245 907 m 323 964 q 342 916 323 935 q 390 897 361 897 q 435 916 418 897 q 453 964 453 935 q 435 1013 453 994 q 390 1031 418 1031 q 342 1012 361 1031 q 323 964 323 993 z "},"ǻ":{"ha":763,"x_min":50,"x_max":739,"o":"m 50 0 m 510 0 q 496 38 502 18 q 486 77 490 57 q 400 11 451 36 q 285 -14 350 -14 q 114 44 177 -14 q 50 204 50 103 q 133 363 50 307 q 376 420 216 420 l 477 420 l 477 492 q 446 574 477 545 q 356 603 416 603 q 296 595 322 603 q 253 576 269 587 l 240 498 l 91 498 l 92 661 q 216 722 146 697 q 369 747 286 747 q 590 681 505 747 q 675 490 675 614 l 675 187 q 676 155 675 170 q 678 127 676 140 l 739 119 l 739 0 l 510 0 m 338 132 q 420 152 383 132 q 477 200 456 171 l 477 312 l 376 312 q 280 282 313 312 q 248 212 248 253 q 272 153 248 174 q 338 132 296 132 m 470 1147 l 642 1147 l 644 1143 l 465 1008 l 347 1008 l 346 1011 l 470 1147 m 254 855 q 294 944 254 908 q 392 980 334 980 q 488 944 449 980 q 527 855 527 908 q 488 766 527 801 q 392 732 449 732 q 294 767 334 732 q 254 855 254 802 m 331 855 q 348 812 331 829 q 392 795 366 795 q 434 812 417 795 q 450 855 450 829 q 434 899 450 882 q 392 916 417 916 q 348 899 366 916 q 331 855 331 882 z "},"ç":{"ha":732,"x_min":45,"x_max":688,"o":"m 45 0 m 387 138 q 472 169 440 138 q 504 251 504 199 l 683 251 l 685 247 q 602 61 688 136 q 387 -14 515 -14 q 134 90 223 -14 q 45 356 45 193 l 45 376 q 137 643 45 538 q 397 747 228 747 q 556 721 486 747 q 673 646 627 694 l 676 450 l 515 450 l 483 565 q 446 586 468 578 q 397 595 425 595 q 278 534 313 595 q 243 376 243 473 l 243 356 q 275 198 243 258 q 387 138 307 138 m 445 3 l 437 -36 q 510 -71 481 -43 q 539 -153 539 -99 q 477 -269 539 -226 q 301 -313 415 -313 l 296 -203 q 351 -190 331 -203 q 372 -147 372 -176 q 350 -108 372 -119 q 275 -94 328 -97 l 296 3 l 445 3 z "},"è":{"ha":740,"x_min":45,"x_max":689,"o":"m 45 0 m 394 -14 q 140 87 235 -14 q 45 346 45 189 l 45 373 q 135 642 45 536 q 376 747 225 748 q 607 658 525 747 q 689 416 689 568 l 689 308 l 251 308 l 250 304 q 298 184 255 231 q 415 138 341 138 q 524 151 481 138 q 619 193 568 164 l 673 71 q 555 10 627 35 q 394 -14 483 -14 m 376 595 q 290 553 321 595 q 250 442 258 511 l 252 439 l 495 439 l 495 456 q 466 557 495 519 q 376 595 436 595 m 470 844 l 310 844 l 125 1021 l 127 1025 l 337 1025 l 470 844 z "},"é":{"ha":740,"x_min":45,"x_max":689,"o":"m 45 0 m 394 -14 q 140 87 235 -14 q 45 346 45 189 l 45 373 q 135 642 45 536 q 376 747 225 748 q 607 658 525 747 q 689 416 689 568 l 689 308 l 251 308 l 250 304 q 298 184 255 231 q 415 138 341 138 q 524 151 481 138 q 619 193 568 164 l 673 71 q 555 10 627 35 q 394 -14 483 -14 m 376 595 q 290 553 321 595 q 250 442 258 511 l 252 439 l 495 439 l 495 456 q 466 557 495 519 q 376 595 436 595 m 382 1019 l 591 1019 l 593 1015 l 406 839 l 247 839 l 382 1019 z "},"ê":{"ha":740,"x_min":45,"x_max":689,"o":"m 45 0 m 394 -14 q 140 87 235 -14 q 45 346 45 189 l 45 373 q 135 642 45 536 q 376 747 225 748 q 607 658 525 747 q 689 416 689 568 l 689 308 l 251 308 l 250 304 q 298 184 255 231 q 415 138 341 138 q 524 151 481 138 q 619 193 568 164 l 673 71 q 555 10 627 35 q 394 -14 483 -14 m 376 595 q 290 553 321 595 q 250 442 258 511 l 252 439 l 495 439 l 495 456 q 466 557 495 519 q 376 595 436 595 m 618 869 l 618 853 l 471 853 l 366 952 l 261 853 l 117 853 l 117 871 l 309 1034 l 423 1034 l 618 869 z "},"ë":{"ha":740,"x_min":45,"x_max":689,"o":"m 45 0 m 394 -14 q 140 87 235 -14 q 45 346 45 189 l 45 373 q 135 642 45 536 q 376 747 225 748 q 607 658 525 747 q 689 416 689 568 l 689 308 l 251 308 l 250 304 q 298 184 255 231 q 415 138 341 138 q 524 151 481 138 q 619 193 568 164 l 673 71 q 555 10 627 35 q 394 -14 483 -14 m 376 595 q 290 553 321 595 q 250 442 258 511 l 252 439 l 495 439 l 495 456 q 466 557 495 519 q 376 595 436 595 m 618 867 l 437 867 l 437 1005 l 618 1005 l 618 867 m 279 867 l 98 867 l 98 1005 l 279 1005 l 279 867 z "},"ì":{"ha":465,"x_min":5,"x_max":446,"o":"m 5 0 m 47 614 l 47 734 l 351 734 l 351 139 l 446 119 l 446 0 l 58 0 l 58 119 l 153 139 l 153 594 l 47 614 m 349 845 l 189 845 l 5 1021 l 6 1025 l 216 1025 l 349 845 z "},"í":{"ha":465,"x_min":47,"x_max":471,"o":"m 47 0 m 47 614 l 47 734 l 351 734 l 351 139 l 446 119 l 446 0 l 58 0 l 58 119 l 153 139 l 153 594 l 47 614 m 260 1020 l 470 1020 l 471 1016 l 284 840 l 125 840 l 260 1020 z "},"î":{"ha":465,"x_min":-3,"x_max":497,"o":"m 0 0 m 47 614 l 47 734 l 351 734 l 351 139 l 446 119 l 446 0 l 58 0 l 58 119 l 153 139 l 153 594 l 47 614 m 497 869 l 497 854 l 350 854 l 245 953 l 140 854 l -3 854 l -3 871 l 188 1034 l 302 1034 l 497 869 z "},"ï":{"ha":465,"x_min":-24,"x_max":496,"o":"m 0 0 m 47 614 l 47 734 l 351 734 l 351 139 l 446 119 l 446 0 l 58 0 l 58 119 l 153 139 l 153 594 l 47 614 m 496 867 l 315 867 l 315 1006 l 496 1006 l 496 867 m 157 867 l -24 867 l -24 1006 l 157 1006 l 157 867 z "},"ñ":{"ha":882,"x_min":22,"x_max":861,"o":"m 22 0 m 32 119 l 127 139 l 127 594 l 22 614 l 22 734 l 311 734 l 320 629 q 410 716 357 685 q 530 747 464 747 q 704 677 642 747 q 766 458 766 608 l 766 139 l 861 119 l 861 0 l 483 0 l 483 119 l 568 139 l 568 458 q 538 563 568 532 q 448 593 508 593 q 377 577 408 593 q 325 532 346 562 l 325 139 l 405 119 l 405 0 l 32 0 l 32 119 m 668 1025 q 628 915 668 960 q 526 869 587 869 q 418 898 478 869 q 323 928 358 928 q 282 906 298 928 q 265 853 265 884 l 160 882 q 200 992 160 945 q 302 1040 241 1040 q 405 1010 340 1040 q 505 981 469 981 q 546 1002 528 981 q 563 1056 563 1024 l 668 1025 z "},"ò":{"ha":779,"x_min":43,"x_max":735,"o":"m 43 0 m 43 374 q 135 643 43 538 q 389 747 227 747 q 643 643 551 747 q 735 374 735 538 l 735 359 q 643 90 735 194 q 390 -14 551 -14 q 135 90 227 -14 q 43 359 43 194 l 43 374 m 241 359 q 276 198 241 259 q 390 138 311 138 q 502 199 467 138 q 538 359 538 260 l 538 374 q 502 533 538 471 q 389 595 466 595 q 276 533 311 595 q 241 374 241 471 l 241 359 m 493 845 l 333 845 l 149 1021 l 150 1025 l 360 1025 l 493 845 z "},"ó":{"ha":779,"x_min":43,"x_max":735,"o":"m 43 0 m 43 374 q 135 643 43 538 q 389 747 227 747 q 643 643 551 747 q 735 374 735 538 l 735 359 q 643 90 735 194 q 390 -14 551 -14 q 135 90 227 -14 q 43 359 43 194 l 43 374 m 241 359 q 276 198 241 259 q 390 138 311 138 q 502 199 467 138 q 538 359 538 260 l 538 374 q 502 533 538 471 q 389 595 466 595 q 276 533 311 595 q 241 374 241 471 l 241 359 m 405 1020 l 614 1020 l 616 1016 l 429 840 l 270 840 l 405 1020 z "},"ô":{"ha":779,"x_min":43,"x_max":735,"o":"m 43 0 m 43 374 q 135 643 43 538 q 389 747 227 747 q 643 643 551 747 q 735 374 735 538 l 735 359 q 643 90 735 194 q 390 -14 551 -14 q 135 90 227 -14 q 43 359 43 194 l 43 374 m 241 359 q 276 198 241 259 q 390 138 311 138 q 502 199 467 138 q 538 359 538 260 l 538 374 q 502 533 538 471 q 389 595 466 595 q 276 533 311 595 q 241 374 241 471 l 241 359 m 641 869 l 641 854 l 494 854 l 389 953 l 284 854 l 140 854 l 140 871 l 332 1034 l 446 1034 l 641 869 z "},"õ":{"ha":779,"x_min":43,"x_max":735,"o":"m 43 0 m 43 374 q 135 643 43 538 q 389 747 227 747 q 643 643 551 747 q 735 374 735 538 l 735 359 q 643 90 735 194 q 390 -14 551 -14 q 135 90 227 -14 q 43 359 43 194 l 43 374 m 241 359 q 276 198 241 259 q 390 138 311 138 q 502 199 467 138 q 538 359 538 260 l 538 374 q 502 533 538 471 q 389 595 466 595 q 276 533 311 595 q 241 374 241 471 l 241 359 m 636 1027 q 596 916 636 962 q 494 870 555 870 q 386 900 446 870 q 291 929 326 929 q 250 907 267 929 q 233 854 233 885 l 128 883 q 169 994 128 947 q 270 1041 209 1041 q 373 1011 308 1041 q 473 982 437 982 q 514 1004 496 982 q 531 1057 531 1025 l 636 1027 z "},"ö":{"ha":779,"x_min":43,"x_max":735,"o":"m 43 0 m 43 374 q 135 643 43 538 q 389 747 227 747 q 643 643 551 747 q 735 374 735 538 l 735 359 q 643 90 735 194 q 390 -14 551 -14 q 135 90 227 -14 q 43 359 43 194 l 43 374 m 241 359 q 276 198 241 259 q 390 138 311 138 q 502 199 467 138 q 538 359 538 260 l 538 374 q 502 533 538 471 q 389 595 466 595 q 276 533 311 595 q 241 374 241 471 l 241 359 m 640 867 l 459 867 l 459 1006 l 640 1006 l 640 867 m 301 867 l 120 867 l 120 1006 l 301 1006 l 301 867 z "},"ù":{"ha":867,"x_min":22,"x_max":831,"o":"m 22 0 m 556 93 q 469 14 521 41 q 351 -14 417 -14 q 169 60 235 -14 q 103 291 103 134 l 103 594 l 22 614 l 22 734 l 103 734 l 301 734 l 301 290 q 328 175 301 210 q 408 140 355 140 q 489 155 454 140 q 545 199 523 170 l 545 594 l 458 614 l 458 734 l 545 734 l 743 734 l 743 139 l 831 119 l 831 0 l 569 0 l 556 93 m 515 845 l 355 845 l 171 1021 l 172 1025 l 382 1025 l 515 845 z "},"ú":{"ha":867,"x_min":22,"x_max":831,"o":"m 22 0 m 556 93 q 469 14 521 41 q 351 -14 417 -14 q 169 60 235 -14 q 103 291 103 134 l 103 594 l 22 614 l 22 734 l 103 734 l 301 734 l 301 290 q 328 175 301 210 q 408 140 355 140 q 489 155 454 140 q 545 199 523 170 l 545 594 l 458 614 l 458 734 l 545 734 l 743 734 l 743 139 l 831 119 l 831 0 l 569 0 l 556 93 m 427 1020 l 637 1020 l 638 1016 l 451 840 l 292 840 l 427 1020 z "},"û":{"ha":867,"x_min":22,"x_max":831,"o":"m 22 0 m 556 93 q 469 14 521 41 q 351 -14 417 -14 q 169 60 235 -14 q 103 291 103 134 l 103 594 l 22 614 l 22 734 l 103 734 l 301 734 l 301 290 q 328 175 301 210 q 408 140 355 140 q 489 155 454 140 q 545 199 523 170 l 545 594 l 458 614 l 458 734 l 545 734 l 743 734 l 743 139 l 831 119 l 831 0 l 569 0 l 556 93 m 663 869 l 663 854 l 516 854 l 411 953 l 307 854 l 163 854 l 163 871 l 354 1034 l 469 1034 l 663 869 z "},"ü":{"ha":867,"x_min":22,"x_max":831,"o":"m 22 0 m 556 93 q 469 14 521 41 q 351 -14 417 -14 q 169 60 235 -14 q 103 291 103 134 l 103 594 l 22 614 l 22 734 l 103 734 l 301 734 l 301 290 q 328 175 301 210 q 408 140 355 140 q 489 155 454 140 q 545 199 523 170 l 545 594 l 458 614 l 458 734 l 545 734 l 743 734 l 743 139 l 831 119 l 831 0 l 569 0 l 556 93 m 663 867 l 481 867 l 481 1006 l 663 1006 l 663 867 m 323 867 l 142 867 l 142 1006 l 323 1006 l 323 867 z "},"ý":{"ha":822,"x_min":18,"x_max":802,"o":"m 18 0 m 802 614 l 734 604 l 464 -110 q 379 -243 432 -189 q 218 -296 326 -296 q 171 -292 193 -296 q 119 -281 149 -288 l 142 -136 q 162 -139 152 -138 q 180 -140 172 -140 q 256 -116 229 -140 q 296 -56 282 -92 l 319 -1 l 86 604 l 18 614 l 18 734 l 377 734 l 377 614 l 295 601 l 395 308 l 406 255 l 410 254 l 526 601 l 443 614 l 443 734 l 802 734 l 802 614 m 416 1010 l 625 1010 l 627 1006 l 439 829 l 281 829 l 416 1010 z "},"ÿ":{"ha":822,"x_min":18,"x_max":802,"o":"m 18 0 m 802 614 l 734 604 l 464 -110 q 379 -243 432 -189 q 218 -296 326 -296 q 171 -292 193 -296 q 119 -281 149 -288 l 142 -136 q 162 -139 152 -138 q 180 -140 172 -140 q 256 -116 229 -140 q 296 -56 282 -92 l 319 -1 l 86 604 l 18 614 l 18 734 l 377 734 l 377 614 l 295 601 l 395 308 l 406 255 l 410 254 l 526 601 l 443 614 l 443 734 l 802 734 l 802 614 m 651 857 l 470 857 l 470 996 l 651 996 l 651 857 m 312 857 l 131 857 l 131 996 l 312 996 l 312 857 z "},"Ā":{"ha":998,"x_min":28,"x_max":970,"o":"m 28 0 m 28 119 l 98 129 l 399 987 l 602 987 l 900 129 l 970 119 l 970 0 l 634 0 l 634 119 l 703 131 l 659 267 l 339 267 l 296 131 l 364 119 l 364 0 l 28 0 l 28 119 m 386 412 l 612 412 l 501 760 l 497 760 l 386 412 m 735 1097 l 239 1097 l 239 1208 l 735 1208 l 735 1097 z "},"ā":{"ha":763,"x_min":50,"x_max":739,"o":"m 50 0 m 510 0 q 496 38 502 18 q 486 77 490 57 q 400 11 451 36 q 285 -14 350 -14 q 114 44 177 -14 q 50 204 50 103 q 133 363 50 307 q 376 420 216 420 l 477 420 l 477 492 q 446 574 477 545 q 356 603 416 603 q 296 595 322 603 q 253 576 269 587 l 240 498 l 91 498 l 92 661 q 216 722 146 697 q 369 747 286 747 q 590 681 505 747 q 675 490 675 614 l 675 187 q 676 155 675 170 q 678 127 676 140 l 739 119 l 739 0 l 510 0 m 338 132 q 420 152 383 132 q 477 200 456 171 l 477 312 l 376 312 q 280 282 313 312 q 248 212 248 253 q 272 153 248 174 q 338 132 296 132 m 629 877 l 133 877 l 133 989 l 629 989 l 629 877 z "},"Ă":{"ha":998,"x_min":28,"x_max":970,"o":"m 28 0 m 28 119 l 98 129 l 399 987 l 602 987 l 900 129 l 970 119 l 970 0 l 634 0 l 634 119 l 703 131 l 659 267 l 339 267 l 296 131 l 364 119 l 364 0 l 28 0 l 28 119 m 386 412 l 612 412 l 501 760 l 497 760 l 386 412 m 720 1277 l 722 1273 q 662 1132 725 1187 q 491 1078 598 1078 q 319 1132 383 1078 q 260 1273 256 1187 l 261 1277 l 395 1277 q 418 1212 395 1238 q 491 1186 441 1186 q 562 1212 539 1186 q 585 1277 585 1237 l 720 1277 z "},"ă":{"ha":763,"x_min":50,"x_max":739,"o":"m 50 0 m 510 0 q 496 38 502 18 q 486 77 490 57 q 400 11 451 36 q 285 -14 350 -14 q 114 44 177 -14 q 50 204 50 103 q 133 363 50 307 q 376 420 216 420 l 477 420 l 477 492 q 446 574 477 545 q 356 603 416 603 q 296 595 322 603 q 253 576 269 587 l 240 498 l 91 498 l 92 661 q 216 722 146 697 q 369 747 286 747 q 590 681 505 747 q 675 490 675 614 l 675 187 q 676 155 675 170 q 678 127 676 140 l 739 119 l 739 0 l 510 0 m 338 132 q 420 152 383 132 q 477 200 456 171 l 477 312 l 376 312 q 280 282 313 312 q 248 212 248 253 q 272 153 248 174 q 338 132 296 132 m 614 1057 l 615 1053 q 555 912 618 967 q 385 858 492 858 q 213 912 277 858 q 153 1053 149 967 l 155 1057 l 289 1057 q 312 992 289 1018 q 385 966 335 966 q 456 992 433 966 q 479 1057 479 1017 l 614 1057 z "},"Ą":{"ha":998,"x_min":28,"x_max":1046,"o":"m 28 0 m 28 119 l 98 129 l 399 987 l 602 987 l 900 129 l 970 119 l 970 0 l 634 0 l 634 119 l 703 131 l 659 267 l 339 267 l 296 131 l 364 119 l 364 0 l 28 0 l 28 119 m 386 412 l 612 412 l 501 760 l 497 760 l 386 412 m 971 0 q 918 -61 935 -36 q 901 -119 901 -86 q 912 -152 901 -138 q 959 -167 924 -167 q 992 -163 978 -167 q 1023 -153 1007 -159 l 1046 -258 q 992 -279 1022 -271 q 921 -288 962 -288 q 800 -249 847 -288 q 753 -142 753 -211 q 784 -43 753 -90 q 882 41 815 4 l 971 0 z "},"ą":{"ha":763,"x_min":50,"x_max":814,"o":"m 50 0 m 510 0 q 496 38 502 18 q 486 77 490 57 q 400 11 451 36 q 285 -14 350 -14 q 114 44 177 -14 q 50 204 50 103 q 133 363 50 307 q 376 420 216 420 l 477 420 l 477 492 q 446 574 477 545 q 356 603 416 603 q 296 595 322 603 q 253 576 269 587 l 240 498 l 91 498 l 92 661 q 216 722 146 697 q 369 747 286 747 q 590 681 505 747 q 675 490 675 614 l 675 187 q 676 155 675 170 q 678 127 676 140 l 739 119 l 739 0 l 510 0 m 338 132 q 420 152 383 132 q 477 200 456 171 l 477 312 l 376 312 q 280 282 313 312 q 248 212 248 253 q 272 153 248 174 q 338 132 296 132 m 739 0 q 686 -61 703 -36 q 669 -119 669 -86 q 680 -152 669 -138 q 726 -167 691 -167 q 760 -163 745 -167 q 790 -153 774 -159 l 814 -258 q 760 -279 789 -271 q 688 -288 730 -288 q 567 -249 614 -288 q 520 -142 520 -211 q 551 -43 520 -90 q 649 41 583 4 l 739 0 z "},"Ć":{"ha":900,"x_min":35,"x_max":847,"o":"m 35 0 m 847 654 l 700 654 l 680 786 q 606 832 650 815 q 501 849 562 849 q 303 755 372 849 q 233 511 233 662 l 233 477 q 302 232 233 326 q 498 138 372 138 q 605 155 556 138 q 680 201 653 172 l 700 332 l 847 332 l 847 137 q 695 27 787 68 q 488 -14 602 -14 q 162 123 289 -14 q 35 477 35 261 l 35 510 q 161 863 35 725 q 488 1002 288 1002 q 694 960 602 1002 q 847 850 787 918 l 847 654 m 503 1243 l 712 1243 l 713 1239 l 526 1063 l 368 1063 l 503 1243 z "},"ć":{"ha":732,"x_min":45,"x_max":688,"o":"m 45 0 m 387 138 q 472 169 440 138 q 504 251 504 199 l 683 251 l 685 247 q 602 61 688 136 q 387 -14 515 -14 q 134 90 223 -14 q 45 356 45 193 l 45 376 q 137 643 45 538 q 397 747 228 747 q 556 721 486 747 q 673 646 627 694 l 676 450 l 515 450 l 483 565 q 446 586 468 578 q 397 595 425 595 q 278 534 313 595 q 243 376 243 473 l 243 356 q 275 198 243 258 q 387 138 307 138 m 406 1019 l 615 1019 l 616 1015 l 429 838 l 271 838 l 406 1019 z "},"Ĉ":{"ha":900,"x_min":35,"x_max":847,"o":"m 35 0 m 847 654 l 700 654 l 680 786 q 606 832 650 815 q 501 849 562 849 q 303 755 372 849 q 233 511 233 662 l 233 477 q 302 232 233 326 q 498 138 372 138 q 605 155 556 138 q 680 201 653 172 l 700 332 l 847 332 l 847 137 q 695 27 787 68 q 488 -14 602 -14 q 162 123 289 -14 q 35 477 35 261 l 35 510 q 161 863 35 725 q 488 1002 288 1002 q 694 960 602 1002 q 847 850 787 918 l 847 654 m 739 1093 l 739 1077 l 591 1077 l 486 1176 l 382 1077 l 238 1077 l 238 1095 l 429 1257 l 544 1257 l 739 1093 z "},"ĉ":{"ha":732,"x_min":45,"x_max":688,"o":"m 45 0 m 387 138 q 472 169 440 138 q 504 251 504 199 l 683 251 l 685 247 q 602 61 688 136 q 387 -14 515 -14 q 134 90 223 -14 q 45 356 45 193 l 45 376 q 137 643 45 538 q 397 747 228 747 q 556 721 486 747 q 673 646 627 694 l 676 450 l 515 450 l 483 565 q 446 586 468 578 q 397 595 425 595 q 278 534 313 595 q 243 376 243 473 l 243 356 q 275 198 243 258 q 387 138 307 138 m 642 868 l 642 852 l 494 852 l 389 951 l 285 852 l 141 852 l 141 870 l 332 1033 l 447 1033 l 642 868 z "},"Ċ":{"ha":900,"x_min":35,"x_max":847,"o":"m 35 0 m 847 654 l 700 654 l 680 786 q 606 832 650 815 q 501 849 562 849 q 303 755 372 849 q 233 511 233 662 l 233 477 q 302 232 233 326 q 498 138 372 138 q 605 155 556 138 q 680 201 653 172 l 700 332 l 847 332 l 847 137 q 695 27 787 68 q 488 -14 602 -14 q 162 123 289 -14 q 35 477 35 261 l 35 510 q 161 863 35 725 q 488 1002 288 1002 q 694 960 602 1002 q 847 850 787 918 l 847 654 m 581 1090 l 374 1090 l 374 1254 l 581 1254 l 581 1090 z "},"ċ":{"ha":732,"x_min":45,"x_max":688,"o":"m 45 0 m 387 138 q 472 169 440 138 q 504 251 504 199 l 683 251 l 685 247 q 602 61 688 136 q 387 -14 515 -14 q 134 90 223 -14 q 45 356 45 193 l 45 376 q 137 643 45 538 q 397 747 228 747 q 556 721 486 747 q 673 646 627 694 l 676 450 l 515 450 l 483 565 q 446 586 468 578 q 397 595 425 595 q 278 534 313 595 q 243 376 243 473 l 243 356 q 275 198 243 258 q 387 138 307 138 m 484 866 l 277 866 l 277 1029 l 484 1029 l 484 866 z "},"Č":{"ha":900,"x_min":35,"x_max":847,"o":"m 35 0 m 847 654 l 700 654 l 680 786 q 606 832 650 815 q 501 849 562 849 q 303 755 372 849 q 233 511 233 662 l 233 477 q 302 232 233 326 q 498 138 372 138 q 605 155 556 138 q 680 201 653 172 l 700 332 l 847 332 l 847 137 q 695 27 787 68 q 488 -14 602 -14 q 162 123 289 -14 q 35 477 35 261 l 35 510 q 161 863 35 725 q 488 1002 288 1002 q 694 960 602 1002 q 847 850 787 918 l 847 654 m 474 1176 l 564 1271 l 732 1271 l 732 1259 l 542 1086 l 406 1086 l 216 1260 l 216 1271 l 385 1271 l 474 1176 z "},"č":{"ha":732,"x_min":45,"x_max":688,"o":"m 45 0 m 387 138 q 472 169 440 138 q 504 251 504 199 l 683 251 l 685 247 q 602 61 688 136 q 387 -14 515 -14 q 134 90 223 -14 q 45 356 45 193 l 45 376 q 137 643 45 538 q 397 747 228 747 q 556 721 486 747 q 673 646 627 694 l 676 450 l 515 450 l 483 565 q 446 586 468 578 q 397 595 425 595 q 278 534 313 595 q 243 376 243 473 l 243 356 q 275 198 243 258 q 387 138 307 138 m 377 951 l 467 1046 l 635 1046 l 635 1035 l 445 862 l 309 862 l 119 1036 l 119 1046 l 288 1046 l 377 951 z "},"Ď":{"ha":957,"x_min":38,"x_max":898,"o":"m 38 0 m 482 987 q 781 872 663 987 q 898 575 898 756 l 898 412 q 781 115 898 230 q 482 0 663 0 l 38 0 l 38 119 l 143 139 l 143 848 l 38 868 l 38 987 l 143 987 l 482 987 m 341 835 l 341 152 l 472 152 q 639 224 578 152 q 699 412 699 296 l 699 576 q 639 763 699 691 q 472 835 578 835 l 341 835 m 414 1171 l 503 1266 l 671 1266 l 671 1255 l 481 1082 l 346 1082 l 155 1255 l 155 1266 l 324 1266 l 414 1171 z "},"ď":{"ha":924,"x_min":45,"x_max":948,"o":"m 45 0 m 520 90 q 438 12 486 39 q 331 -14 391 -14 q 120 85 195 -14 q 45 347 45 184 l 45 361 q 121 641 45 534 q 332 747 196 747 q 431 723 387 747 q 509 655 475 699 l 509 918 l 403 939 l 403 1058 l 509 1058 l 707 1058 l 707 139 l 802 119 l 802 0 l 535 0 l 520 90 m 243 347 q 276 195 243 250 q 381 140 308 140 q 456 157 425 140 q 509 208 488 175 l 509 519 q 457 574 488 555 q 382 593 425 593 q 277 529 310 593 q 243 361 243 465 l 243 347 m 948 976 q 919 830 948 905 q 846 707 890 756 l 749 760 q 790 856 776 808 q 804 967 804 904 l 804 1057 l 948 1057 l 948 976 z "},"Ē":{"ha":887,"x_min":38,"x_max":819,"o":"m 38 0 m 675 434 l 341 434 l 341 152 l 660 152 l 669 270 l 819 270 l 819 0 l 38 0 l 38 119 l 143 139 l 143 848 l 38 868 l 38 987 l 143 987 l 818 987 l 818 717 l 666 717 l 657 835 l 341 835 l 341 587 l 675 587 l 675 434 m 675 1097 l 179 1097 l 179 1208 l 675 1208 l 675 1097 z "},"ē":{"ha":740,"x_min":45,"x_max":689,"o":"m 45 0 m 394 -14 q 140 87 235 -14 q 45 346 45 189 l 45 373 q 135 642 45 536 q 376 747 225 748 q 607 658 525 747 q 689 416 689 568 l 689 308 l 251 308 l 250 304 q 298 184 255 231 q 415 138 341 138 q 524 151 481 138 q 619 193 568 164 l 673 71 q 555 10 627 35 q 394 -14 483 -14 m 376 595 q 290 553 321 595 q 250 442 258 511 l 252 439 l 495 439 l 495 456 q 466 557 495 519 q 376 595 436 595 m 606 878 l 110 878 l 110 989 l 606 989 l 606 878 z "},"Ĕ":{"ha":887,"x_min":38,"x_max":819,"o":"m 38 0 m 675 434 l 341 434 l 341 152 l 660 152 l 669 270 l 819 270 l 819 0 l 38 0 l 38 119 l 143 139 l 143 848 l 38 868 l 38 987 l 143 987 l 818 987 l 818 717 l 666 717 l 657 835 l 341 835 l 341 587 l 675 587 l 675 434 m 660 1277 l 661 1273 q 601 1132 665 1187 q 431 1078 538 1078 q 259 1132 323 1078 q 199 1273 195 1187 l 201 1277 l 335 1277 q 358 1212 335 1238 q 431 1186 381 1186 q 502 1212 479 1186 q 525 1277 525 1237 l 660 1277 z "},"ĕ":{"ha":740,"x_min":45,"x_max":689,"o":"m 45 0 m 394 -14 q 140 87 235 -14 q 45 346 45 189 l 45 373 q 135 642 45 536 q 376 747 225 748 q 607 658 525 747 q 689 416 689 568 l 689 308 l 251 308 l 250 304 q 298 184 255 231 q 415 138 341 138 q 524 151 481 138 q 619 193 568 164 l 673 71 q 555 10 627 35 q 394 -14 483 -14 m 376 595 q 290 553 321 595 q 250 442 258 511 l 252 439 l 495 439 l 495 456 q 466 557 495 519 q 376 595 436 595 m 591 1058 l 592 1054 q 532 913 595 968 q 361 859 469 859 q 190 913 254 859 q 130 1054 126 968 l 132 1058 l 266 1058 q 289 993 266 1019 q 361 967 312 967 q 433 992 410 967 q 456 1058 456 1018 l 591 1058 z "},"Ė":{"ha":887,"x_min":38,"x_max":819,"o":"m 38 0 m 675 434 l 341 434 l 341 152 l 660 152 l 669 270 l 819 270 l 819 0 l 38 0 l 38 119 l 143 139 l 143 848 l 38 868 l 38 987 l 143 987 l 818 987 l 818 717 l 666 717 l 657 835 l 341 835 l 341 587 l 675 587 l 675 434 m 530 1086 l 323 1086 l 323 1249 l 530 1249 l 530 1086 z "},"ė":{"ha":740,"x_min":45,"x_max":689,"o":"m 45 0 m 394 -14 q 140 87 235 -14 q 45 346 45 189 l 45 373 q 135 642 45 536 q 376 747 225 748 q 607 658 525 747 q 689 416 689 568 l 689 308 l 251 308 l 250 304 q 298 184 255 231 q 415 138 341 138 q 524 151 481 138 q 619 193 568 164 l 673 71 q 555 10 627 35 q 394 -14 483 -14 m 376 595 q 290 553 321 595 q 250 442 258 511 l 252 439 l 495 439 l 495 456 q 466 557 495 519 q 376 595 436 595 m 460 867 l 254 867 l 254 1030 l 460 1030 l 460 867 z "},"Ę":{"ha":887,"x_min":38,"x_max":819,"o":"m 38 0 m 675 434 l 341 434 l 341 152 l 660 152 l 669 270 l 819 270 l 819 0 l 38 0 l 38 119 l 143 139 l 143 848 l 38 868 l 38 987 l 143 987 l 818 987 l 818 717 l 666 717 l 657 835 l 341 835 l 341 587 l 675 587 l 675 434 m 505 7 q 452 -54 469 -29 q 435 -113 435 -79 q 446 -145 435 -131 q 492 -160 457 -160 q 526 -156 511 -160 q 556 -146 541 -152 l 580 -251 q 526 -272 555 -264 q 454 -281 496 -281 q 333 -242 380 -281 q 286 -136 286 -204 q 317 -36 286 -83 q 415 47 349 11 l 505 7 z "},"ę":{"ha":740,"x_min":45,"x_max":689,"o":"m 45 0 m 394 -14 q 140 87 235 -14 q 45 346 45 189 l 45 373 q 135 642 45 536 q 376 747 225 748 q 607 658 525 747 q 689 416 689 568 l 689 308 l 251 308 l 250 304 q 298 184 255 231 q 415 138 341 138 q 524 151 481 138 q 619 193 568 164 l 673 71 q 555 10 627 35 q 394 -14 483 -14 m 376 595 q 290 553 321 595 q 250 442 258 511 l 252 439 l 495 439 l 495 456 q 466 557 495 519 q 376 595 436 595 m 597 39 q 545 -22 562 3 q 528 -80 528 -47 q 539 -113 528 -98 q 585 -127 550 -127 q 619 -123 604 -127 q 649 -114 633 -119 l 673 -218 q 618 -240 648 -231 q 547 -248 589 -248 q 426 -210 473 -248 q 379 -103 379 -172 q 410 -4 379 -51 q 508 80 441 43 l 597 39 z "},"Ě":{"ha":887,"x_min":38,"x_max":819,"o":"m 38 0 m 675 434 l 341 434 l 341 152 l 660 152 l 669 270 l 819 270 l 819 0 l 38 0 l 38 119 l 143 139 l 143 848 l 38 868 l 38 987 l 143 987 l 818 987 l 818 717 l 666 717 l 657 835 l 341 835 l 341 587 l 675 587 l 675 434 m 422 1171 l 512 1266 l 680 1266 l 680 1255 l 490 1082 l 355 1082 l 164 1255 l 164 1266 l 333 1266 l 422 1171 z "},"ě":{"ha":740,"x_min":45,"x_max":689,"o":"m 45 0 m 394 -14 q 140 87 235 -14 q 45 346 45 189 l 45 373 q 135 642 45 536 q 376 747 225 748 q 607 658 525 747 q 689 416 689 568 l 689 308 l 251 308 l 250 304 q 298 184 255 231 q 415 138 341 138 q 524 151 481 138 q 619 193 568 164 l 673 71 q 555 10 627 35 q 394 -14 483 -14 m 376 595 q 290 553 321 595 q 250 442 258 511 l 252 439 l 495 439 l 495 456 q 466 557 495 519 q 376 595 436 595 m 353 952 l 443 1047 l 611 1047 l 611 1036 l 421 863 l 286 863 l 95 1036 l 95 1047 l 264 1047 l 353 952 z "}}}
